{"glyphs":{"0":{"ha":686,"x_min":54,"x_max":632,"o":"m 301 0 l 301 52 q 191 122 241 53 q 110 460 110 233 l 110 540 q 216 852 114 753 q 302 895 260 894 l 302 947 q 115 806 183 940 q 54 479 54 682 q 216 26 54 119 q 301 0 256 3 m 385 0 q 564 126 498 5 q 632 479 632 252 q 490 907 632 800 q 384 947 441 943 l 384 895 q 498 821 442 894 q 578 540 578 715 l 578 460 q 385 52 576 80 l 385 0 z "},"1":{"ha":217,"x_min":54,"x_max":163,"o":"m 54 846 l 54 905 l 109 949 l 163 949 l 163 0 l 109 0 l 109 846 l 54 846 z "},"2":{"ha":692,"x_min":56,"x_max":639,"o":"m 56 705 q 156 895 68 823 q 294 949 217 943 l 294 898 q 254 890 294 898 q 109 708 137 853 q 106 694 107 701 l 56 705 m 81 0 l 81 52 l 629 52 l 629 0 l 81 0 m 81 109 q 384 456 81 324 q 414 469 410 468 q 552 568 517 519 q 583 670 583 613 q 355 898 581 897 l 355 949 q 620 787 564 949 q 637 670 639 734 q 510 463 635 537 q 481 446 496 454 q 434 423 468 439 q 214 288 278 351 q 136 109 136 208 l 81 109 z "},"3":{"ha":690,"x_min":56,"x_max":636,"o":"m 369 -5 l 369 46 q 560 152 510 46 q 582 255 582 197 q 392 446 582 434 q 362 448 377 448 l 362 496 q 582 689 576 506 q 467 880 582 833 q 369 898 423 898 l 369 949 q 602 830 533 949 q 636 693 636 769 q 532 475 636 548 q 528 472 529 473 q 636 251 632 387 q 534 41 636 111 q 369 -5 467 -5 m 56 239 l 106 250 q 250 56 130 96 q 294 46 275 46 l 294 -5 q 94 122 161 5 q 56 239 62 178 m 56 705 q 156 895 68 823 q 294 949 217 943 l 294 898 q 254 890 294 898 q 109 708 137 853 q 106 694 107 701 l 56 705 z "},"4":{"ha":680,"x_min":41,"x_max":625,"o":"m 41 197 l 41 248 l 435 918 l 435 825 l 99 248 l 435 248 l 435 197 l 41 197 m 496 0 l 496 951 l 552 951 l 552 248 l 625 248 l 625 197 l 552 197 l 552 0 l 496 0 z "},"5":{"ha":705,"x_min":54,"x_max":651,"o":"m 54 480 l 94 949 l 574 949 l 574 898 l 142 897 l 114 540 q 301 606 199 606 l 301 555 q 107 448 187 553 l 54 480 m 362 0 l 362 52 q 514 114 442 52 q 598 304 597 189 q 469 529 598 465 q 362 555 416 555 l 362 606 q 610 468 534 606 q 651 302 651 393 q 526 52 651 137 q 362 0 452 3 m 57 145 l 102 175 q 228 65 152 88 q 301 52 259 56 l 301 0 q 83 106 163 0 q 57 145 68 125 z "},"6":{"ha":724,"x_min":54,"x_max":670,"o":"m 335 -1 q 65 298 107 8 q 54 473 54 374 q 156 848 54 720 q 335 945 225 933 l 335 894 q 109 439 109 854 q 304 575 167 560 q 335 576 320 576 l 335 525 q 156 415 212 525 q 127 286 127 357 q 174 137 127 208 q 335 50 233 52 l 335 -1 m 410 -1 l 410 50 q 581 155 518 50 q 617 286 617 218 q 510 500 617 437 q 410 528 463 528 l 410 576 q 631 452 562 576 q 670 288 670 380 q 570 60 670 145 q 410 -1 498 0 m 589 776 q 408 895 528 892 l 408 947 q 604 853 529 947 q 633 806 621 830 l 589 776 z "},"7":{"ha":595,"x_min":54,"x_max":595,"o":"m 595 897 l 54 895 l 54 949 l 595 949 l 595 897 m 298 0 q 529 833 351 492 q 530 836 530 834 l 589 836 q 357 0 408 500 l 298 0 z "},"8":{"ha":704,"x_min":54,"x_max":650,"o":"m 315 0 q 100 111 174 0 q 54 263 54 180 q 163 471 54 406 q 168 473 167 472 q 60 677 64 551 q 144 876 60 795 q 319 947 217 947 l 319 895 q 140 783 193 890 q 115 680 115 734 q 198 528 115 575 q 317 499 248 499 l 317 448 q 119 340 159 448 q 107 270 107 309 q 227 72 107 123 q 315 52 267 54 l 315 0 m 389 0 l 389 52 q 568 152 515 58 q 597 270 597 202 q 444 444 597 418 q 387 448 416 448 l 387 499 q 574 604 528 499 q 589 680 589 639 q 517 845 589 783 q 385 895 463 891 l 385 947 q 593 840 517 947 q 644 677 644 765 q 544 479 644 551 q 536 473 540 476 q 650 263 648 404 q 566 66 650 144 q 389 0 494 0 z "},"9":{"ha":720,"x_min":54,"x_max":666,"o":"m 381 3 l 381 56 q 533 149 471 56 q 612 496 612 267 q 604 483 609 494 q 494 389 560 414 q 381 372 445 372 l 381 426 q 578 571 538 426 q 590 665 590 613 q 534 819 590 747 q 381 895 473 894 l 381 949 q 652 658 608 949 q 666 463 666 575 q 594 137 666 267 q 381 3 518 3 m 321 372 q 83 511 146 372 q 54 658 54 575 q 156 886 54 798 q 321 949 231 948 l 321 895 q 136 776 197 892 q 106 658 106 716 q 213 450 106 507 q 321 426 260 426 l 321 372 m 77 156 l 122 184 q 250 69 163 102 q 321 56 286 56 l 321 1 q 118 96 203 1 q 77 156 94 125 z "},"A":{"ha":582,"x_min":41,"x_max":541,"o":"m 41 0 l 227 812 l 250 812 l 263 751 l 95 0 l 41 0 m 195 183 l 206 235 l 437 235 l 281 948 l 335 948 l 541 0 l 487 0 l 449 183 l 195 183 z "},"Æ":{"ha":986,"x_min":110,"x_max":951,"o":"m 110 0 l 354 949 l 951 949 l 951 897 l 579 897 l 579 498 l 823 498 l 823 446 l 579 446 l 579 52 l 951 52 l 951 0 l 525 0 l 525 255 l 296 255 l 309 309 l 525 309 l 525 897 l 397 897 l 170 0 l 110 0 z "},"Á":{"ha":582,"x_min":41,"x_max":541,"o":"m 292 1039 l 342 1245 l 396 1245 l 330 1039 l 292 1039 m 41 0 l 227 812 l 250 812 l 263 751 l 95 0 l 41 0 m 195 183 l 206 235 l 437 235 l 281 948 l 335 948 l 541 0 l 487 0 l 449 183 l 195 183 z "},"Ă":{"ha":582,"x_min":41,"x_max":541,"o":"m 224 1123 l 267 1123 q 297 1081 267 1090 q 311 1080 305 1080 q 353 1109 343 1080 q 354 1123 354 1118 l 397 1123 q 362 1057 397 1084 q 311 1039 339 1039 q 231 1095 254 1039 q 224 1123 224 1109 m 41 0 l 227 812 l 250 812 l 263 751 l 95 0 l 41 0 m 195 183 l 206 235 l 437 235 l 281 948 l 335 948 l 541 0 l 487 0 l 449 183 l 195 183 z "},"Â":{"ha":582,"x_min":41,"x_max":541,"o":"m 187 1039 l 289 1245 l 332 1245 l 435 1039 l 387 1039 l 311 1192 l 236 1039 l 187 1039 m 41 0 l 227 812 l 250 812 l 263 751 l 95 0 l 41 0 m 195 183 l 206 235 l 437 235 l 281 948 l 335 948 l 541 0 l 487 0 l 449 183 l 195 183 z "},"Ä":{"ha":582,"x_min":41,"x_max":541,"o":"m 205 1076 q 232 1111 205 1103 q 243 1112 239 1112 q 278 1086 270 1112 q 279 1076 279 1081 q 254 1040 279 1048 q 243 1039 248 1039 q 206 1065 214 1039 q 205 1076 205 1072 m 342 1076 q 369 1111 342 1103 q 380 1112 376 1112 q 415 1086 407 1112 q 416 1076 416 1081 q 391 1040 416 1048 q 380 1039 385 1039 q 343 1065 351 1039 q 342 1076 342 1072 m 41 0 l 227 812 l 250 812 l 263 751 l 95 0 l 41 0 m 195 183 l 206 235 l 437 235 l 281 948 l 335 948 l 541 0 l 487 0 l 449 183 l 195 183 z "},"À":{"ha":582,"x_min":41,"x_max":541,"o":"m 224 1245 l 278 1245 l 328 1039 l 289 1039 l 224 1245 m 41 0 l 227 812 l 250 812 l 263 751 l 95 0 l 41 0 m 195 183 l 206 235 l 437 235 l 281 948 l 335 948 l 541 0 l 487 0 l 449 183 l 195 183 z "},"Ā":{"ha":582,"x_min":41,"x_max":541,"o":"m 96 1039 l 96 1080 l 525 1080 l 525 1039 l 96 1039 m 41 0 l 227 812 l 250 812 l 263 751 l 95 0 l 41 0 m 195 183 l 206 235 l 437 235 l 281 948 l 335 948 l 541 0 l 487 0 l 449 183 l 195 183 z "},"Ą":{"ha":582,"x_min":41,"x_max":690,"o":"m 690 -233 q 518 -134 567 -233 q 499 -54 499 -95 l 553 -54 q 623 -167 553 -133 q 690 -182 654 -182 l 690 -233 m 41 0 l 227 812 l 250 812 l 263 751 l 95 0 l 41 0 m 195 183 l 206 235 l 437 235 l 281 948 l 335 948 l 541 0 l 487 0 l 449 183 l 195 183 z "},"Å":{"ha":700,"x_min":100,"x_max":601,"o":"m 100 0 l 286 812 l 309 812 l 323 751 l 155 0 l 100 0 m 255 183 l 266 235 l 496 235 l 342 941 q 271 1004 290 952 q 266 1038 266 1021 q 317 1124 266 1097 q 363 1135 340 1135 q 450 1085 422 1135 q 463 1038 463 1062 q 411 951 463 978 q 396 944 403 947 l 601 0 l 547 0 l 509 183 l 255 183 m 312 1038 q 346 989 312 1001 q 363 986 355 986 q 414 1021 401 986 q 416 1038 416 1029 q 381 1088 416 1076 q 363 1090 373 1090 q 316 1057 328 1090 q 312 1038 312 1047 z "},"Ã":{"ha":582,"x_min":41,"x_max":541,"o":"m 121 1063 l 121 1116 q 216 1146 174 1146 q 312 1115 250 1146 q 393 1090 359 1090 q 502 1128 441 1092 l 502 1077 q 388 1039 439 1039 q 288 1070 351 1039 q 210 1093 241 1093 q 121 1063 168 1092 m 41 0 l 227 812 l 250 812 l 263 751 l 95 0 l 41 0 m 195 183 l 206 235 l 437 235 l 281 948 l 335 948 l 541 0 l 487 0 l 449 183 l 195 183 z "},"B":{"ha":694,"x_min":54,"x_max":640,"o":"m 54 0 l 109 0 l 109 949 l 54 949 l 54 0 m 170 -1 l 353 -1 q 579 102 496 -1 q 640 278 640 176 q 568 454 640 389 q 541 477 557 465 q 635 659 628 543 q 635 674 635 667 q 552 876 635 796 q 347 949 473 949 l 170 949 l 170 898 l 345 898 q 552 783 491 898 q 581 674 581 731 q 412 505 581 514 q 388 503 400 503 l 170 503 l 170 452 l 388 452 q 586 278 583 448 q 494 100 586 163 q 300 50 419 50 l 170 50 l 170 -1 z "},"C":{"ha":700,"x_min":54,"x_max":646,"o":"m 54 245 l 54 703 q 111 854 54 780 q 327 956 191 956 l 327 905 q 137 798 201 905 q 109 703 109 747 l 109 245 q 163 118 109 179 q 327 45 227 46 l 327 -7 q 91 123 168 -7 q 54 245 54 187 m 388 -7 l 388 45 q 438 53 388 45 q 587 189 555 85 q 597 232 590 199 q 600 258 600 256 l 646 247 q 549 52 646 129 q 388 -7 476 -7 m 388 905 l 388 956 q 574 869 492 958 q 646 700 646 792 l 597 688 q 595 711 597 703 q 587 746 593 728 q 546 822 572 789 q 493 870 519 854 q 442 894 467 886 q 403 903 418 902 l 388 905 z "},"Ć":{"ha":700,"x_min":54,"x_max":646,"o":"m 374 1039 l 425 1245 l 479 1245 l 412 1039 l 374 1039 m 54 245 l 54 703 q 111 854 54 780 q 327 956 191 956 l 327 905 q 137 798 201 905 q 109 703 109 747 l 109 245 q 163 118 109 179 q 327 45 227 46 l 327 -7 q 91 123 168 -7 q 54 245 54 187 m 388 -7 l 388 45 q 438 53 388 45 q 587 189 555 85 q 597 232 590 199 q 600 258 600 256 l 646 247 q 549 52 646 129 q 388 -7 476 -7 m 388 905 l 388 956 q 574 869 492 958 q 646 700 646 792 l 597 688 q 595 711 597 703 q 587 746 593 728 q 546 822 572 789 q 493 870 519 854 q 442 894 467 886 q 403 903 418 902 l 388 905 z "},"Č":{"ha":700,"x_min":54,"x_max":646,"o":"m 231 1245 l 279 1245 l 355 1092 l 430 1245 l 479 1245 l 377 1039 l 334 1039 l 231 1245 m 54 245 l 54 703 q 111 854 54 780 q 327 956 191 956 l 327 905 q 137 798 201 905 q 109 703 109 747 l 109 245 q 163 118 109 179 q 327 45 227 46 l 327 -7 q 91 123 168 -7 q 54 245 54 187 m 388 -7 l 388 45 q 438 53 388 45 q 587 189 555 85 q 597 232 590 199 q 600 258 600 256 l 646 247 q 549 52 646 129 q 388 -7 476 -7 m 388 905 l 388 956 q 574 869 492 958 q 646 700 646 792 l 597 688 q 595 711 597 703 q 587 746 593 728 q 546 822 572 789 q 493 870 519 854 q 442 894 467 886 q 403 903 418 902 l 388 905 z "},"Ç":{"ha":700,"x_min":54,"x_max":646,"o":"m 191 -236 l 191 -184 q 313 -118 277 -184 q 328 -57 328 -90 l 382 -57 q 319 -194 382 -141 q 191 -236 267 -236 m 54 245 l 54 703 q 111 854 54 780 q 327 956 191 956 l 327 905 q 137 798 201 905 q 109 703 109 747 l 109 245 q 163 118 109 179 q 327 45 227 46 l 327 -7 q 91 123 168 -7 q 54 245 54 187 m 388 -7 l 388 45 q 438 53 388 45 q 587 189 555 85 q 597 232 590 199 q 600 258 600 256 l 646 247 q 549 52 646 129 q 388 -7 476 -7 m 388 905 l 388 956 q 574 869 492 958 q 646 700 646 792 l 597 688 q 595 711 597 703 q 587 746 593 728 q 546 822 572 789 q 493 870 519 854 q 442 894 467 886 q 403 903 418 902 l 388 905 z "},"D":{"ha":640,"x_min":54,"x_max":586,"o":"m 54 0 l 54 949 l 109 949 l 109 0 l 54 0 m 170 0 l 170 52 q 418 77 350 52 q 532 267 530 123 l 532 682 q 406 879 532 841 q 170 898 335 898 l 170 949 q 415 933 349 949 q 581 751 557 897 q 586 682 586 719 l 586 267 q 444 27 586 79 q 170 0 358 0 z "},"Ď":{"ha":640,"x_min":54,"x_max":586,"o":"m 199 1245 l 248 1245 l 324 1092 l 399 1245 l 448 1245 l 346 1039 l 302 1039 l 199 1245 m 54 0 l 54 949 l 109 949 l 109 0 l 54 0 m 170 0 l 170 52 q 418 77 350 52 q 532 267 530 123 l 532 682 q 406 879 532 841 q 170 898 335 898 l 170 949 q 415 933 349 949 q 581 751 557 897 q 586 682 586 719 l 586 267 q 444 27 586 79 q 170 0 358 0 z "},"Đ":{"ha":613,"x_min":35,"x_max":643,"o":"m 35 454 l 35 506 l 111 506 l 111 949 l 165 949 l 165 506 l 241 506 l 241 454 l 165 454 l 165 0 l 111 0 l 111 454 l 35 454 m 227 0 l 227 52 q 475 77 407 52 q 589 267 587 123 l 589 682 q 463 879 589 841 q 227 898 392 898 l 227 949 q 472 933 406 949 q 637 751 614 897 q 643 682 643 719 l 643 267 q 500 27 643 79 q 227 0 415 0 z "},"E":{"ha":602,"x_min":54,"x_max":548,"o":"m 54 0 l 54 949 l 548 949 l 548 898 l 109 898 l 109 499 l 420 499 l 420 448 l 109 448 l 109 52 l 548 52 l 548 0 l 54 0 z "},"É":{"ha":602,"x_min":54,"x_max":548,"o":"m 324 1039 l 374 1245 l 429 1245 l 362 1039 l 324 1039 m 54 0 l 54 949 l 548 949 l 548 898 l 109 898 l 109 499 l 420 499 l 420 448 l 109 448 l 109 52 l 548 52 l 548 0 l 54 0 z "},"Ě":{"ha":602,"x_min":54,"x_max":548,"o":"m 179 1245 l 228 1245 l 304 1092 l 378 1245 l 427 1245 l 326 1039 l 282 1039 l 179 1245 m 54 0 l 54 949 l 548 949 l 548 898 l 109 898 l 109 499 l 420 499 l 420 448 l 109 448 l 109 52 l 548 52 l 548 0 l 54 0 z "},"Ê":{"ha":602,"x_min":54,"x_max":548,"o":"m 179 1039 l 281 1245 l 324 1245 l 427 1039 l 378 1039 l 302 1192 l 228 1039 l 179 1039 m 54 0 l 54 949 l 548 949 l 548 898 l 109 898 l 109 499 l 420 499 l 420 448 l 109 448 l 109 52 l 548 52 l 548 0 l 54 0 z "},"Ë":{"ha":602,"x_min":54,"x_max":548,"o":"m 198 1076 q 225 1111 198 1103 q 236 1112 232 1112 q 271 1086 263 1112 q 273 1076 273 1081 q 247 1040 273 1048 q 236 1039 241 1039 q 199 1065 208 1039 q 198 1076 198 1072 m 335 1076 q 362 1111 335 1103 q 373 1112 369 1112 q 408 1086 400 1112 q 410 1076 410 1081 q 384 1040 410 1048 q 373 1039 378 1039 q 336 1065 345 1039 q 335 1076 335 1072 m 54 0 l 54 949 l 548 949 l 548 898 l 109 898 l 109 499 l 420 499 l 420 448 l 109 448 l 109 52 l 548 52 l 548 0 l 54 0 z "},"Ė":{"ha":602,"x_min":54,"x_max":548,"o":"m 263 1080 q 292 1120 263 1111 q 304 1122 297 1122 q 343 1092 334 1122 q 345 1080 345 1086 q 315 1040 345 1048 q 304 1039 309 1039 q 264 1069 273 1039 q 263 1080 263 1074 m 54 0 l 54 949 l 548 949 l 548 898 l 109 898 l 109 499 l 420 499 l 420 448 l 109 448 l 109 52 l 548 52 l 548 0 l 54 0 z "},"È":{"ha":602,"x_min":54,"x_max":548,"o":"m 217 1245 l 271 1245 l 321 1039 l 282 1039 l 217 1245 m 54 0 l 54 949 l 548 949 l 548 898 l 109 898 l 109 499 l 420 499 l 420 448 l 109 448 l 109 52 l 548 52 l 548 0 l 54 0 z "},"Ē":{"ha":602,"x_min":54,"x_max":548,"o":"m 90 1039 l 90 1080 l 518 1080 l 518 1039 l 90 1039 m 54 0 l 54 949 l 548 949 l 548 898 l 109 898 l 109 499 l 420 499 l 420 448 l 109 448 l 109 52 l 548 52 l 548 0 l 54 0 z "},"Ę":{"ha":602,"x_min":54,"x_max":556,"o":"m 556 -233 l 556 -182 q 434 -115 471 -182 q 419 -54 419 -87 l 365 -54 q 429 -191 365 -138 q 556 -233 480 -233 m 54 0 l 54 949 l 548 949 l 548 898 l 109 898 l 109 499 l 420 499 l 420 448 l 109 448 l 109 52 l 548 52 l 548 0 l 54 0 z "},"Ð":{"ha":613,"x_min":35,"x_max":643,"o":"m 35 454 l 35 506 l 111 506 l 111 949 l 165 949 l 165 506 l 241 506 l 241 454 l 165 454 l 165 0 l 111 0 l 111 454 l 35 454 m 227 0 l 227 52 q 475 77 407 52 q 589 267 587 123 l 589 682 q 463 879 589 841 q 227 898 392 898 l 227 949 q 472 933 406 949 q 637 751 614 897 q 643 682 643 719 l 643 267 q 500 27 643 79 q 227 0 415 0 z "},"€":{"ha":670,"x_min":69,"x_max":712,"o":"m 69 382 l 69 430 l 121 430 l 121 511 l 69 511 l 69 559 l 121 559 l 121 703 q 178 854 121 780 q 393 956 258 956 l 393 905 q 203 798 267 905 q 175 703 175 747 l 175 559 l 555 559 l 555 511 l 175 511 l 175 430 l 555 430 l 555 382 l 175 382 l 175 245 q 229 118 175 179 q 393 45 293 46 l 393 -7 q 157 123 235 -7 q 121 245 121 187 l 121 382 l 69 382 m 454 -7 l 454 45 q 505 53 454 45 q 654 189 621 85 q 666 258 666 228 l 712 247 q 616 52 712 129 q 454 -7 543 -7 m 454 905 l 454 956 q 640 869 559 958 q 712 700 712 792 l 663 688 q 654 746 663 722 q 612 822 639 789 q 559 870 586 854 q 509 894 533 886 q 469 903 484 902 l 454 905 z "},"F":{"ha":602,"x_min":54,"x_max":548,"o":"m 54 1 l 54 949 l 548 949 l 548 898 l 109 898 l 109 499 l 420 499 l 420 448 l 109 448 l 109 1 l 54 1 z "},"G":{"ha":699,"x_min":54,"x_max":644,"o":"m 54 260 l 54 711 q 115 860 54 785 q 326 956 198 956 l 326 905 q 160 826 228 905 q 109 689 109 765 l 109 260 q 228 75 109 138 q 326 45 283 45 l 326 -7 q 160 52 240 -7 q 54 260 56 129 m 387 -7 l 387 45 q 514 106 448 45 q 590 258 589 175 l 590 427 l 387 427 l 387 479 l 644 479 l 644 239 q 560 75 644 156 q 387 -7 475 -5 m 387 905 l 387 956 q 574 868 492 958 q 644 700 644 791 l 591 681 q 590 703 591 696 q 469 882 581 825 q 387 905 423 905 z "},"Ğ":{"ha":699,"x_min":54,"x_max":644,"o":"m 266 1123 l 309 1123 q 339 1081 309 1090 q 353 1080 347 1080 q 395 1109 385 1080 q 396 1123 396 1118 l 439 1123 q 404 1057 439 1084 q 353 1039 381 1039 q 273 1095 296 1039 q 266 1123 266 1109 m 54 260 l 54 711 q 115 860 54 785 q 326 956 198 956 l 326 905 q 160 826 228 905 q 109 689 109 765 l 109 260 q 228 75 109 138 q 326 45 283 45 l 326 -7 q 160 52 240 -7 q 54 260 56 129 m 387 -7 l 387 45 q 514 106 448 45 q 590 258 589 175 l 590 427 l 387 427 l 387 479 l 644 479 l 644 239 q 560 75 644 156 q 387 -7 475 -5 m 387 905 l 387 956 q 574 868 492 958 q 644 700 644 791 l 591 681 q 590 703 591 696 q 469 882 581 825 q 387 905 423 905 z "},"H":{"ha":643,"x_min":54,"x_max":589,"o":"m 54 0 l 54 949 l 109 949 l 109 503 l 290 503 l 290 452 l 109 452 l 109 0 l 54 0 m 353 452 l 353 503 l 534 503 l 534 949 l 589 949 l 589 0 l 534 0 l 534 452 l 353 452 z "},"I":{"ha":168,"x_min":57,"x_max":111,"o":"m 57 0 l 57 949 l 111 949 l 111 0 l 57 0 z "},"Í":{"ha":168,"x_min":57,"x_max":170,"o":"m 65 1039 l 115 1245 l 170 1245 l 103 1039 l 65 1039 m 57 0 l 57 949 l 111 949 l 111 0 l 57 0 z "},"Î":{"ha":168,"x_min":-39,"x_max":209,"o":"m -39 1039 l 62 1245 l 106 1245 l 209 1039 l 160 1039 l 84 1192 l 9 1039 l -39 1039 m 57 0 l 57 949 l 111 949 l 111 0 l 57 0 z "},"Ï":{"ha":168,"x_min":-22,"x_max":190,"o":"m -22 1076 q 5 1111 -22 1103 q 16 1112 12 1112 q 52 1086 43 1112 q 53 1076 53 1081 q 27 1040 53 1048 q 16 1039 22 1039 q -20 1065 -12 1039 q -22 1076 -22 1072 m 115 1076 q 142 1111 115 1103 q 153 1112 148 1112 q 189 1086 180 1112 q 190 1076 190 1081 q 164 1040 190 1048 q 153 1039 159 1039 q 117 1065 125 1039 q 115 1076 115 1072 m 57 0 l 57 949 l 111 949 l 111 0 l 57 0 z "},"İ":{"ha":168,"x_min":43,"x_max":125,"o":"m 43 1080 q 72 1120 43 1111 q 84 1122 77 1122 q 123 1092 114 1122 q 125 1080 125 1086 q 95 1040 125 1048 q 84 1039 90 1039 q 45 1069 53 1039 q 43 1080 43 1074 m 57 0 l 57 949 l 111 949 l 111 0 l 57 0 z "},"Ì":{"ha":168,"x_min":-4,"x_max":111,"o":"m -4 1245 l 50 1245 l 100 1039 l 61 1039 l -4 1245 m 57 0 l 57 949 l 111 949 l 111 0 l 57 0 z "},"Ī":{"ha":168,"x_min":-130,"x_max":298,"o":"m -130 1039 l -130 1080 l 298 1080 l 298 1039 l -130 1039 m 57 0 l 57 949 l 111 949 l 111 0 l 57 0 z "},"Į":{"ha":168,"x_min":57,"x_max":248,"o":"m 248 -233 q 76 -134 125 -233 q 57 -54 57 -96 l 111 -54 q 180 -167 111 -133 q 248 -182 212 -182 l 248 -233 m 57 0 l 57 949 l 111 949 l 111 0 l 57 0 z "},"J":{"ha":674,"x_min":27,"x_max":620,"o":"m 27 262 l 27 328 l 81 328 l 81 271 q 187 79 81 145 q 286 45 240 45 l 286 -7 q 134 50 212 -7 q 27 262 28 132 m 349 -7 l 349 45 q 472 92 404 45 q 566 262 564 160 l 566 949 l 620 949 l 620 262 q 483 34 620 111 q 349 -7 412 -7 z "},"K":{"ha":666,"x_min":54,"x_max":639,"o":"m 54 0 l 54 949 l 109 949 l 109 0 l 54 0 m 170 463 l 566 949 l 633 949 l 237 463 l 639 0 l 571 0 l 170 463 z "},"L":{"ha":591,"x_min":54,"x_max":564,"o":"m 54 0 l 54 949 l 109 949 l 109 52 l 564 52 l 564 0 l 54 0 z "},"Ĺ":{"ha":591,"x_min":54,"x_max":564,"o":"m 65 1039 l 115 1245 l 170 1245 l 103 1039 l 65 1039 m 54 0 l 54 949 l 109 949 l 109 52 l 564 52 l 564 0 l 54 0 z "},"Ľ":{"ha":591,"x_min":54,"x_max":564,"o":"m 194 750 l 244 956 l 297 956 l 247 750 l 194 750 m 54 0 l 54 949 l 109 949 l 109 52 l 564 52 l 564 0 l 54 0 z "},"Ł":{"ha":581,"x_min":69,"x_max":685,"o":"m 69 368 l 175 449 l 175 949 l 229 949 l 229 490 l 321 562 l 355 518 l 229 422 l 229 52 l 685 52 l 685 0 l 175 0 l 175 380 l 103 324 l 69 368 z "},"M":{"ha":944,"x_min":57,"x_max":887,"o":"m 57 0 l 57 745 l 69 745 l 111 640 l 111 0 l 57 0 m 57 920 l 57 949 l 107 949 l 465 80 l 758 742 l 772 742 l 772 636 l 491 0 l 439 0 l 57 920 m 833 0 l 833 949 l 887 949 l 887 0 l 833 0 z "},"N":{"ha":718,"x_min":57,"x_max":661,"o":"m 57 0 l 57 808 l 68 808 l 111 738 l 111 0 l 57 0 m 57 917 l 57 949 l 110 949 l 661 72 l 661 0 l 632 0 l 57 917 m 606 256 l 606 949 l 661 949 l 661 184 l 650 184 l 606 256 z "},"Ń":{"ha":718,"x_min":57,"x_max":661,"o":"m 340 1039 l 391 1245 l 445 1245 l 378 1039 l 340 1039 m 57 0 l 57 808 l 68 808 l 111 738 l 111 0 l 57 0 m 57 917 l 57 949 l 110 949 l 661 72 l 661 0 l 632 0 l 57 917 m 606 256 l 606 949 l 661 949 l 661 184 l 650 184 l 606 256 z "},"Ň":{"ha":718,"x_min":57,"x_max":661,"o":"m 235 1245 l 283 1245 l 359 1092 l 434 1245 l 483 1245 l 381 1039 l 338 1039 l 235 1245 m 57 0 l 57 808 l 68 808 l 111 738 l 111 0 l 57 0 m 57 917 l 57 949 l 110 949 l 661 72 l 661 0 l 632 0 l 57 917 m 606 256 l 606 949 l 661 949 l 661 184 l 650 184 l 606 256 z "},"Ñ":{"ha":718,"x_min":57,"x_max":661,"o":"m 168 1063 l 168 1116 q 263 1146 221 1146 q 359 1115 297 1146 q 441 1090 407 1090 q 549 1128 488 1092 l 549 1077 q 435 1039 487 1039 q 335 1070 399 1039 q 258 1093 289 1093 q 168 1063 216 1092 m 57 0 l 57 808 l 68 808 l 111 738 l 111 0 l 57 0 m 57 917 l 57 949 l 110 949 l 661 72 l 661 0 l 632 0 l 57 917 m 606 256 l 606 949 l 661 949 l 661 184 l 650 184 l 606 256 z "},"O":{"ha":716,"x_min":54,"x_max":662,"o":"m 54 264 l 54 711 q 115 857 54 783 q 321 956 197 955 l 321 903 q 148 803 216 903 q 109 689 109 743 l 109 264 q 209 85 109 155 q 320 46 269 46 l 320 -7 q 165 49 243 -7 q 54 264 56 130 m 395 -7 l 395 46 q 532 104 465 46 q 608 264 606 171 l 608 689 q 545 834 608 766 q 395 903 481 902 l 395 956 q 614 838 532 956 q 662 711 662 770 l 662 264 q 528 34 662 114 q 395 -7 457 -7 z "},"Œ":{"ha":572,"x_min":-37,"x_max":947,"o":"m -37 267 l -37 682 q 87 922 -37 872 q 320 949 152 949 l 321 949 l 323 949 l 324 949 l 326 949 l 327 949 l 328 949 l 330 949 l 331 949 l 332 949 l 334 949 l 335 949 l 336 949 l 350 949 l 350 898 q 144 884 194 898 q 22 741 39 856 q 18 682 18 713 l 18 267 q 122 75 18 117 q 350 52 184 52 l 350 0 q 106 22 171 0 q -34 208 -16 61 q -37 267 -37 236 m 411 0 l 411 52 l 453 52 l 453 898 l 411 898 l 411 949 l 947 949 l 947 898 l 507 898 l 507 499 l 819 499 l 819 448 l 507 448 l 507 52 l 947 52 l 947 0 l 411 0 z "},"Ó":{"ha":716,"x_min":54,"x_max":662,"o":"m 336 1039 l 387 1245 l 441 1245 l 374 1039 l 336 1039 m 54 264 l 54 711 q 115 857 54 783 q 321 956 197 955 l 321 903 q 148 803 216 903 q 109 689 109 743 l 109 264 q 209 85 109 155 q 320 46 269 46 l 320 -7 q 165 49 243 -7 q 54 264 56 130 m 395 -7 l 395 46 q 532 104 465 46 q 608 264 606 171 l 608 689 q 545 834 608 766 q 395 903 481 902 l 395 956 q 614 838 532 956 q 662 711 662 770 l 662 264 q 528 34 662 114 q 395 -7 457 -7 z "},"Ô":{"ha":716,"x_min":54,"x_max":662,"o":"m 232 1039 l 334 1245 l 377 1245 l 480 1039 l 431 1039 l 355 1192 l 281 1039 l 232 1039 m 54 264 l 54 711 q 115 857 54 783 q 321 956 197 955 l 321 903 q 148 803 216 903 q 109 689 109 743 l 109 264 q 209 85 109 155 q 320 46 269 46 l 320 -7 q 165 49 243 -7 q 54 264 56 130 m 395 -7 l 395 46 q 532 104 465 46 q 608 264 606 171 l 608 689 q 545 834 608 766 q 395 903 481 902 l 395 956 q 614 838 532 956 q 662 711 662 770 l 662 264 q 528 34 662 114 q 395 -7 457 -7 z "},"Ö":{"ha":716,"x_min":54,"x_max":662,"o":"m 250 1076 q 277 1111 250 1103 q 288 1112 283 1112 q 323 1086 315 1112 q 324 1076 324 1081 q 298 1040 324 1048 q 288 1039 293 1039 q 251 1065 259 1039 q 250 1076 250 1072 m 387 1076 q 414 1111 387 1103 q 425 1112 419 1112 q 460 1086 452 1112 q 461 1076 461 1081 q 435 1040 461 1048 q 425 1039 430 1039 q 388 1065 396 1039 q 387 1076 387 1072 m 54 264 l 54 711 q 115 857 54 783 q 321 956 197 955 l 321 903 q 148 803 216 903 q 109 689 109 743 l 109 264 q 209 85 109 155 q 320 46 269 46 l 320 -7 q 165 49 243 -7 q 54 264 56 130 m 395 -7 l 395 46 q 532 104 465 46 q 608 264 606 171 l 608 689 q 545 834 608 766 q 395 903 481 902 l 395 956 q 614 838 532 956 q 662 711 662 770 l 662 264 q 528 34 662 114 q 395 -7 457 -7 z "},"Ò":{"ha":716,"x_min":54,"x_max":662,"o":"m 269 1245 l 323 1245 l 373 1039 l 334 1039 l 269 1245 m 54 264 l 54 711 q 115 857 54 783 q 321 956 197 955 l 321 903 q 148 803 216 903 q 109 689 109 743 l 109 264 q 209 85 109 155 q 320 46 269 46 l 320 -7 q 165 49 243 -7 q 54 264 56 130 m 395 -7 l 395 46 q 532 104 465 46 q 608 264 606 171 l 608 689 q 545 834 608 766 q 395 903 481 902 l 395 956 q 614 838 532 956 q 662 711 662 770 l 662 264 q 528 34 662 114 q 395 -7 457 -7 z "},"Ő":{"ha":716,"x_min":54,"x_max":662,"o":"m 396 1039 l 446 1245 l 500 1245 l 434 1039 l 396 1039 m 277 1039 l 327 1245 l 381 1245 l 315 1039 l 277 1039 m 54 264 l 54 711 q 115 857 54 783 q 321 956 197 955 l 321 903 q 148 803 216 903 q 109 689 109 743 l 109 264 q 209 85 109 155 q 320 46 269 46 l 320 -7 q 165 49 243 -7 q 54 264 56 130 m 395 -7 l 395 46 q 532 104 465 46 q 608 264 606 171 l 608 689 q 545 834 608 766 q 395 903 481 902 l 395 956 q 614 838 532 956 q 662 711 662 770 l 662 264 q 528 34 662 114 q 395 -7 457 -7 z "},"Ō":{"ha":716,"x_min":54,"x_max":662,"o":"m 141 1039 l 141 1080 l 570 1080 l 570 1039 l 141 1039 m 54 264 l 54 711 q 115 857 54 783 q 321 956 197 955 l 321 903 q 148 803 216 903 q 109 689 109 743 l 109 264 q 209 85 109 155 q 320 46 269 46 l 320 -7 q 165 49 243 -7 q 54 264 56 130 m 395 -7 l 395 46 q 532 104 465 46 q 608 264 606 171 l 608 689 q 545 834 608 766 q 395 903 481 902 l 395 956 q 614 838 532 956 q 662 711 662 770 l 662 264 q 528 34 662 114 q 395 -7 457 -7 z "},"Ø":{"ha":914,"x_min":33,"x_max":863,"o":"m 33 136 l 146 240 l 146 711 q 208 857 146 783 q 414 956 289 955 l 414 903 q 240 803 308 903 q 201 689 201 743 l 201 288 l 694 731 q 595 871 671 822 q 487 903 545 903 l 487 956 q 707 837 625 956 q 741 773 728 806 l 827 850 l 863 814 l 754 716 l 754 264 q 620 34 754 114 q 487 -7 549 -7 l 487 46 q 624 104 557 46 q 700 264 699 171 l 700 667 l 205 222 q 323 73 225 126 q 412 46 373 46 l 412 -7 q 256 50 335 -7 q 159 182 184 103 l 69 100 l 33 136 z "},"Õ":{"ha":716,"x_min":54,"x_max":662,"o":"m 164 1082 l 164 1135 q 259 1165 217 1165 q 355 1134 293 1165 q 437 1109 403 1109 q 545 1147 484 1111 l 545 1096 q 431 1058 483 1058 q 331 1089 395 1058 q 254 1112 285 1112 q 164 1082 212 1111 m 54 264 l 54 711 q 115 857 54 783 q 321 956 197 955 l 321 903 q 148 803 216 903 q 109 689 109 743 l 109 264 q 209 85 109 155 q 320 46 269 46 l 320 -7 q 165 49 243 -7 q 54 264 56 130 m 395 -7 l 395 46 q 532 104 465 46 q 608 264 606 171 l 608 689 q 545 834 608 766 q 395 903 481 902 l 395 956 q 614 838 532 956 q 662 711 662 770 l 662 264 q 528 34 662 114 q 395 -7 457 -7 z "},"P":{"ha":656,"x_min":57,"x_max":629,"o":"m 57 0 l 57 949 l 111 949 l 111 0 l 57 0 m 172 418 l 172 468 l 376 468 q 559 578 522 468 q 574 689 574 624 q 471 886 574 848 q 374 901 430 901 l 172 901 l 172 949 l 404 949 q 617 792 578 939 q 629 685 629 746 q 450 423 629 453 q 404 418 429 419 l 172 418 z "},"Q":{"ha":716,"x_min":54,"x_max":662,"o":"m 54 264 l 54 711 q 114 856 54 783 q 327 956 198 956 l 327 905 q 148 807 213 905 q 109 689 109 749 l 109 264 q 243 68 109 127 q 327 45 294 45 l 327 -7 q 161 53 241 -7 q 54 264 56 132 m 389 -7 l 389 45 q 491 79 430 45 q 606 264 605 144 l 606 689 q 543 838 606 770 q 389 905 479 905 l 389 956 q 614 838 532 958 q 662 711 662 770 l 662 264 q 456 3 661 85 l 534 -114 l 491 -145 l 389 -7 z "},"R":{"ha":690,"x_min":57,"x_max":650,"o":"m 57 0 l 57 949 l 111 949 l 111 0 l 57 0 m 172 431 l 172 484 l 389 484 q 547 583 515 484 q 560 689 560 627 q 456 890 560 850 q 354 905 414 905 l 172 905 l 172 949 l 384 949 q 602 798 560 940 q 616 685 616 747 q 522 457 614 510 q 627 294 617 414 l 650 0 l 595 0 l 575 241 q 518 401 564 363 q 404 431 479 434 l 172 431 z "},"Ŕ":{"ha":690,"x_min":57,"x_max":650,"o":"m 273 1039 l 323 1245 l 377 1245 l 311 1039 l 273 1039 m 57 0 l 57 949 l 111 949 l 111 0 l 57 0 m 172 431 l 172 484 l 389 484 q 547 583 515 484 q 560 689 560 627 q 456 890 560 850 q 354 905 414 905 l 172 905 l 172 949 l 384 949 q 602 798 560 940 q 616 685 616 747 q 522 457 614 510 q 627 294 617 414 l 650 0 l 595 0 l 575 241 q 518 401 564 363 q 404 431 479 434 l 172 431 z "},"Ř":{"ha":690,"x_min":57,"x_max":650,"o":"m 168 1245 l 217 1245 l 293 1092 l 368 1245 l 416 1245 l 315 1039 l 271 1039 l 168 1245 m 57 0 l 57 949 l 111 949 l 111 0 l 57 0 m 172 431 l 172 484 l 389 484 q 547 583 515 484 q 560 689 560 627 q 456 890 560 850 q 354 905 414 905 l 172 905 l 172 949 l 384 949 q 602 798 560 940 q 616 685 616 747 q 522 457 614 510 q 627 294 617 414 l 650 0 l 595 0 l 575 241 q 518 401 564 363 q 404 431 479 434 l 172 431 z "},"S":{"ha":680,"x_min":41,"x_max":639,"o":"m 41 214 l 91 232 q 125 146 100 183 q 178 91 151 109 q 233 62 206 73 q 278 49 260 52 l 296 47 l 296 -4 q 91 99 172 -4 q 41 214 42 161 m 52 697 q 179 914 52 841 q 296 949 241 949 l 296 898 q 190 856 247 898 q 106 689 107 792 q 267 536 106 579 q 425 505 282 532 q 465 495 449 499 q 623 374 589 461 q 639 275 639 331 q 549 76 639 161 q 357 -4 465 -4 l 357 47 q 491 104 419 47 q 585 283 583 180 q 419 449 585 406 q 270 476 404 452 q 218 488 235 481 q 76 590 109 529 q 52 697 52 633 m 357 898 l 357 949 q 560 834 480 949 q 601 750 593 788 l 549 734 q 513 812 537 779 q 463 861 488 845 q 412 886 437 876 q 372 897 388 895 l 357 898 z "},"Ś":{"ha":680,"x_min":41,"x_max":639,"o":"m 294 1039 l 345 1245 l 399 1245 l 332 1039 l 294 1039 m 41 214 l 91 232 q 125 146 100 183 q 178 91 151 109 q 233 62 206 73 q 278 49 260 52 l 296 47 l 296 -4 q 91 99 172 -4 q 41 214 42 161 m 52 697 q 179 914 52 841 q 296 949 241 949 l 296 898 q 190 856 247 898 q 106 689 107 792 q 267 536 106 579 q 425 505 282 532 q 465 495 449 499 q 623 374 589 461 q 639 275 639 331 q 549 76 639 161 q 357 -4 465 -4 l 357 47 q 491 104 419 47 q 585 283 583 180 q 419 449 585 406 q 270 476 404 452 q 218 488 235 481 q 76 590 109 529 q 52 697 52 633 m 357 898 l 357 949 q 560 834 480 949 q 601 750 593 788 l 549 734 q 513 812 537 779 q 463 861 488 845 q 412 886 437 876 q 372 897 388 895 l 357 898 z "},"Š":{"ha":680,"x_min":31,"x_max":629,"o":"m 176 1245 l 225 1245 l 301 1092 l 376 1245 l 425 1245 l 323 1039 l 279 1039 l 176 1245 m 31 214 l 81 232 q 116 146 91 183 q 169 91 141 109 q 224 62 197 73 q 269 49 251 52 l 286 47 l 286 -4 q 81 99 163 -4 q 31 214 33 161 m 42 697 q 170 914 42 841 q 286 949 232 949 l 286 898 q 180 856 237 898 q 96 689 98 792 q 258 536 96 579 q 415 505 273 532 q 456 495 439 499 q 613 374 579 461 q 629 275 629 331 q 540 76 629 161 q 347 -4 456 -4 l 347 47 q 481 104 410 47 q 575 283 574 180 q 410 449 575 406 q 260 476 395 452 q 209 488 225 481 q 66 590 99 529 q 42 697 42 633 m 347 898 l 347 949 q 551 834 471 949 q 591 750 583 788 l 540 734 q 503 812 528 779 q 453 861 479 845 q 403 886 427 876 q 363 897 378 895 l 347 898 z "},"T":{"ha":642,"x_min":27,"x_max":614,"o":"m 27 898 l 27 949 l 614 949 l 614 898 l 347 898 l 347 0 l 293 0 l 293 898 l 27 898 z "},"Ť":{"ha":642,"x_min":27,"x_max":614,"o":"m 190 1245 l 239 1245 l 315 1092 l 389 1245 l 438 1245 l 336 1039 l 293 1039 l 190 1245 m 27 898 l 27 949 l 614 949 l 614 898 l 347 898 l 347 0 l 293 0 l 293 898 l 27 898 z "},"Þ":{"ha":643,"x_min":103,"x_max":610,"o":"m 103 0 l 103 949 l 157 949 l 157 0 l 103 0 m 227 282 l 227 334 l 285 334 q 528 429 473 334 q 553 540 553 475 q 376 742 553 715 q 282 749 335 749 l 227 749 l 227 800 q 545 731 465 808 q 608 540 605 671 q 437 296 610 340 q 227 282 355 274 z "},"U":{"ha":715,"x_min":54,"x_max":661,"o":"m 54 262 l 54 949 l 109 949 l 109 262 q 225 79 109 146 q 327 45 283 45 l 327 -7 q 170 47 250 -7 q 54 262 56 127 m 389 -7 l 389 45 q 517 92 450 45 q 606 262 605 157 l 606 949 l 661 949 l 661 262 q 524 33 661 110 q 389 -7 453 -7 z "},"Ú":{"ha":715,"x_min":54,"x_max":661,"o":"m 328 1039 l 378 1245 l 433 1245 l 366 1039 l 328 1039 m 54 262 l 54 949 l 109 949 l 109 262 q 225 79 109 146 q 327 45 283 45 l 327 -7 q 170 47 250 -7 q 54 262 56 127 m 389 -7 l 389 45 q 517 92 450 45 q 606 262 605 157 l 606 949 l 661 949 l 661 262 q 524 33 661 110 q 389 -7 453 -7 z "},"Û":{"ha":715,"x_min":54,"x_max":661,"o":"m 222 1039 l 324 1245 l 368 1245 l 471 1039 l 422 1039 l 346 1192 l 271 1039 l 222 1039 m 54 262 l 54 949 l 109 949 l 109 262 q 225 79 109 146 q 327 45 283 45 l 327 -7 q 170 47 250 -7 q 54 262 56 127 m 389 -7 l 389 45 q 517 92 450 45 q 606 262 605 157 l 606 949 l 661 949 l 661 262 q 524 33 661 110 q 389 -7 453 -7 z "},"Ü":{"ha":715,"x_min":54,"x_max":661,"o":"m 241 1076 q 269 1111 241 1103 q 279 1112 275 1112 q 315 1086 307 1112 q 316 1076 316 1081 q 290 1040 316 1048 q 279 1039 285 1039 q 243 1065 251 1039 q 241 1076 241 1072 m 378 1076 q 406 1111 378 1103 q 416 1112 412 1112 q 452 1086 444 1112 q 453 1076 453 1081 q 427 1040 453 1048 q 416 1039 422 1039 q 380 1065 388 1039 q 378 1076 378 1072 m 54 262 l 54 949 l 109 949 l 109 262 q 225 79 109 146 q 327 45 283 45 l 327 -7 q 170 47 250 -7 q 54 262 56 127 m 389 -7 l 389 45 q 517 92 450 45 q 606 262 605 157 l 606 949 l 661 949 l 661 262 q 524 33 661 110 q 389 -7 453 -7 z "},"Ù":{"ha":715,"x_min":54,"x_max":661,"o":"m 259 1245 l 313 1245 l 363 1039 l 324 1039 l 259 1245 m 54 262 l 54 949 l 109 949 l 109 262 q 225 79 109 146 q 327 45 283 45 l 327 -7 q 170 47 250 -7 q 54 262 56 127 m 389 -7 l 389 45 q 517 92 450 45 q 606 262 605 157 l 606 949 l 661 949 l 661 262 q 524 33 661 110 q 389 -7 453 -7 z "},"Ű":{"ha":715,"x_min":54,"x_max":661,"o":"m 427 1039 l 477 1245 l 532 1245 l 465 1039 l 427 1039 m 308 1039 l 358 1245 l 412 1245 l 346 1039 l 308 1039 m 54 262 l 54 949 l 109 949 l 109 262 q 225 79 109 146 q 327 45 283 45 l 327 -7 q 170 47 250 -7 q 54 262 56 127 m 389 -7 l 389 45 q 517 92 450 45 q 606 262 605 157 l 606 949 l 661 949 l 661 262 q 524 33 661 110 q 389 -7 453 -7 z "},"Ū":{"ha":715,"x_min":54,"x_max":661,"o":"m 133 1039 l 133 1080 l 562 1080 l 562 1039 l 133 1039 m 54 262 l 54 949 l 109 949 l 109 262 q 225 79 109 146 q 327 45 283 45 l 327 -7 q 170 47 250 -7 q 54 262 56 127 m 389 -7 l 389 45 q 517 92 450 45 q 606 262 605 157 l 606 949 l 661 949 l 661 262 q 524 33 661 110 q 389 -7 453 -7 z "},"Ų":{"ha":715,"x_min":54,"x_max":661,"o":"m 511 -233 q 339 -134 388 -233 q 320 -54 320 -95 l 374 -54 q 444 -167 374 -133 q 511 -182 475 -182 l 511 -233 m 54 262 l 54 949 l 109 949 l 109 262 q 225 79 109 146 q 327 45 283 45 l 327 -7 q 170 47 250 -7 q 54 262 56 127 m 389 -7 l 389 45 q 517 92 450 45 q 606 262 605 157 l 606 949 l 661 949 l 661 262 q 524 33 661 110 q 389 -7 453 -7 z "},"Ů":{"ha":715,"x_min":54,"x_max":661,"o":"m 256 1169 q 305 1251 256 1225 q 347 1260 326 1260 q 429 1211 403 1260 q 438 1169 438 1191 q 389 1088 438 1114 q 347 1078 369 1078 q 266 1127 292 1078 q 256 1169 256 1147 m 304 1169 q 334 1127 304 1137 q 347 1126 342 1126 q 389 1156 380 1126 q 391 1169 391 1164 q 361 1211 391 1202 q 347 1213 353 1213 q 305 1183 315 1213 q 304 1169 304 1175 m 54 262 l 54 949 l 109 949 l 109 262 q 225 79 109 146 q 327 45 283 45 l 327 -7 q 170 47 250 -7 q 54 262 56 127 m 389 -7 l 389 45 q 517 92 450 45 q 606 262 605 157 l 606 949 l 661 949 l 661 262 q 524 33 661 110 q 389 -7 453 -7 z "},"V":{"ha":646,"x_min":14,"x_max":632,"o":"m 14 949 l 66 949 l 330 46 l 312 0 l 289 0 l 14 949 m 330 224 l 579 949 l 632 949 l 362 156 l 349 156 l 330 224 z "},"W":{"ha":1074,"x_min":14,"x_max":1061,"o":"m 14 949 l 289 0 l 309 0 l 324 60 l 66 949 l 14 949 m 319 247 l 338 176 l 351 176 l 532 850 l 755 0 l 776 0 l 793 52 l 559 949 l 506 949 l 319 247 m 800 245 l 821 176 l 834 176 l 1061 949 l 1008 949 l 800 245 z "},"X":{"ha":640,"x_min":41,"x_max":600,"o":"m 41 0 l 294 491 l 57 949 l 110 949 l 320 540 l 530 949 l 583 949 l 346 491 l 600 0 l 547 0 l 320 441 l 94 0 l 41 0 z "},"Y":{"ha":661,"x_min":41,"x_max":620,"o":"m 41 949 l 96 949 l 345 343 l 345 0 l 290 0 l 290 342 l 41 949 m 349 484 l 564 949 l 620 949 l 380 422 l 374 422 l 349 484 z "},"Ý":{"ha":661,"x_min":41,"x_max":620,"o":"m 288 1039 l 338 1245 l 392 1245 l 326 1039 l 288 1039 m 41 949 l 96 949 l 345 343 l 345 0 l 290 0 l 290 342 l 41 949 m 349 484 l 564 949 l 620 949 l 380 422 l 374 422 l 349 484 z "},"Ÿ":{"ha":661,"x_min":41,"x_max":620,"o":"m 201 1076 q 228 1111 201 1103 q 239 1112 233 1112 q 274 1086 266 1112 q 275 1076 275 1081 q 250 1040 275 1048 q 239 1039 244 1039 q 202 1065 210 1039 q 201 1076 201 1072 m 338 1076 q 365 1111 338 1103 q 376 1112 372 1112 q 411 1086 403 1112 q 412 1076 412 1081 q 387 1040 412 1048 q 376 1039 381 1039 q 339 1065 347 1039 q 338 1076 338 1072 m 41 949 l 96 949 l 345 343 l 345 0 l 290 0 l 290 342 l 41 949 m 349 484 l 564 949 l 620 949 l 380 422 l 374 422 l 349 484 z "},"Z":{"ha":606,"x_min":54,"x_max":552,"o":"m 54 0 l 54 47 l 492 898 l 54 898 l 54 949 l 551 949 l 551 902 l 113 52 l 552 52 l 551 0 l 54 0 z "},"Ź":{"ha":606,"x_min":54,"x_max":552,"o":"m 270 1039 l 320 1245 l 374 1245 l 308 1039 l 270 1039 m 54 0 l 54 47 l 492 898 l 54 898 l 54 949 l 551 949 l 551 902 l 113 52 l 552 52 l 551 0 l 54 0 z "},"Ž":{"ha":606,"x_min":54,"x_max":552,"o":"m 164 1245 l 213 1245 l 289 1092 l 363 1245 l 412 1245 l 311 1039 l 267 1039 l 164 1245 m 54 0 l 54 47 l 492 898 l 54 898 l 54 949 l 551 949 l 551 902 l 113 52 l 552 52 l 551 0 l 54 0 z "},"Ż":{"ha":606,"x_min":54,"x_max":552,"o":"m 248 1080 q 277 1120 248 1111 q 289 1122 282 1122 q 328 1092 319 1122 q 330 1080 330 1086 q 300 1040 330 1048 q 289 1039 294 1039 q 250 1069 258 1039 q 248 1080 248 1074 m 54 0 l 54 47 l 492 898 l 54 898 l 54 949 l 551 949 l 551 902 l 113 52 l 552 52 l 551 0 l 54 0 z "},"a":{"ha":629,"x_min":54,"x_max":575,"o":"m 54 164 l 54 227 q 121 349 56 315 q 312 400 145 361 q 484 471 483 439 l 484 492 q 403 633 484 586 q 327 655 365 655 l 327 704 q 511 600 453 704 q 540 490 540 548 l 540 100 q 575 54 545 58 l 575 1 q 491 46 521 1 q 486 53 488 50 q 345 1 441 8 q 327 1 335 1 l 327 53 q 486 202 484 56 l 486 396 q 283 340 448 376 q 125 285 151 311 q 110 232 110 269 l 110 179 q 206 61 111 88 q 266 53 235 53 l 266 1 q 85 80 146 1 q 54 164 54 121 m 64 528 q 145 667 62 613 q 266 704 202 704 l 266 652 q 144 593 190 652 q 114 509 114 555 l 64 528 z "},"á":{"ha":629,"x_min":54,"x_max":575,"o":"m 258 787 l 308 993 l 362 993 l 296 787 l 258 787 m 54 164 l 54 227 q 121 349 56 315 q 312 400 145 361 q 484 471 483 439 l 484 492 q 403 633 484 586 q 327 655 365 655 l 327 704 q 511 600 453 704 q 540 490 540 548 l 540 100 q 575 54 545 58 l 575 1 q 491 46 521 1 q 486 53 488 50 q 345 1 441 8 q 327 1 335 1 l 327 53 q 486 202 484 56 l 486 396 q 283 340 448 376 q 125 285 151 311 q 110 232 110 269 l 110 179 q 206 61 111 88 q 266 53 235 53 l 266 1 q 85 80 146 1 q 54 164 54 121 m 64 528 q 145 667 62 613 q 266 704 202 704 l 266 652 q 144 593 190 652 q 114 509 114 555 l 64 528 z "},"ă":{"ha":629,"x_min":54,"x_max":575,"o":"m 190 871 l 233 871 q 263 829 233 838 q 277 827 271 827 q 319 857 309 827 q 320 871 320 865 l 363 871 q 328 804 363 831 q 277 787 305 787 q 197 842 220 787 q 190 871 190 857 m 54 164 l 54 227 q 121 349 56 315 q 312 400 145 361 q 484 471 483 439 l 484 492 q 403 633 484 586 q 327 655 365 655 l 327 704 q 511 600 453 704 q 540 490 540 548 l 540 100 q 575 54 545 58 l 575 1 q 491 46 521 1 q 486 53 488 50 q 345 1 441 8 q 327 1 335 1 l 327 53 q 486 202 484 56 l 486 396 q 283 340 448 376 q 125 285 151 311 q 110 232 110 269 l 110 179 q 206 61 111 88 q 266 53 235 53 l 266 1 q 85 80 146 1 q 54 164 54 121 m 64 528 q 145 667 62 613 q 266 704 202 704 l 266 652 q 144 593 190 652 q 114 509 114 555 l 64 528 z "},"â":{"ha":629,"x_min":54,"x_max":575,"o":"m 152 787 l 254 993 l 297 993 l 400 787 l 351 787 l 275 940 l 201 787 l 152 787 m 54 164 l 54 227 q 121 349 56 315 q 312 400 145 361 q 484 471 483 439 l 484 492 q 403 633 484 586 q 327 655 365 655 l 327 704 q 511 600 453 704 q 540 490 540 548 l 540 100 q 575 54 545 58 l 575 1 q 491 46 521 1 q 486 53 488 50 q 345 1 441 8 q 327 1 335 1 l 327 53 q 486 202 484 56 l 486 396 q 283 340 448 376 q 125 285 151 311 q 110 232 110 269 l 110 179 q 206 61 111 88 q 266 53 235 53 l 266 1 q 85 80 146 1 q 54 164 54 121 m 64 528 q 145 667 62 613 q 266 704 202 704 l 266 652 q 144 593 190 652 q 114 509 114 555 l 64 528 z "},"´":{"ha":418,"x_min":156,"x_max":260,"o":"m 156 821 l 206 1027 l 260 1027 l 194 821 l 156 821 z "},"ä":{"ha":629,"x_min":54,"x_max":575,"o":"m 171 823 q 198 859 171 850 q 209 860 205 860 q 244 834 236 860 q 245 823 245 829 q 220 788 245 796 q 209 787 214 787 q 172 812 180 787 q 171 823 171 819 m 308 823 q 335 859 308 850 q 346 860 342 860 q 381 834 373 860 q 382 823 382 829 q 357 788 382 796 q 346 787 351 787 q 309 812 317 787 q 308 823 308 819 m 54 164 l 54 227 q 121 349 56 315 q 312 400 145 361 q 484 471 483 439 l 484 492 q 403 633 484 586 q 327 655 365 655 l 327 704 q 511 600 453 704 q 540 490 540 548 l 540 100 q 575 54 545 58 l 575 1 q 491 46 521 1 q 486 53 488 50 q 345 1 441 8 q 327 1 335 1 l 327 53 q 486 202 484 56 l 486 396 q 283 340 448 376 q 125 285 151 311 q 110 232 110 269 l 110 179 q 206 61 111 88 q 266 53 235 53 l 266 1 q 85 80 146 1 q 54 164 54 121 m 64 528 q 145 667 62 613 q 266 704 202 704 l 266 652 q 144 593 190 652 q 114 509 114 555 l 64 528 z "},"æ":{"ha":590,"x_min":35,"x_max":971,"o":"m 35 164 q 107 42 35 92 q 247 1 167 1 l 247 53 q 103 129 138 53 q 91 193 91 157 l 91 220 q 232 342 90 297 q 328 368 263 351 q 465 418 446 396 l 465 202 q 354 56 465 72 q 308 53 332 53 l 308 1 q 503 99 446 1 q 685 1 553 14 q 719 0 703 0 q 971 163 922 1 l 921 180 q 806 64 897 98 q 722 49 765 49 q 563 107 627 49 q 521 191 522 146 l 521 335 l 970 335 l 970 513 q 884 655 970 595 q 749 700 819 700 l 749 651 q 879 589 826 651 q 916 500 916 547 l 916 387 l 521 387 l 521 487 q 582 609 521 557 q 688 648 629 648 l 688 700 q 503 605 570 700 q 495 594 498 600 q 278 705 430 704 q 87 636 155 705 q 45 528 45 590 l 95 509 q 203 646 95 614 q 275 655 237 655 q 433 593 374 655 q 465 518 465 557 l 465 492 q 373 429 465 456 q 309 411 353 423 q 98 331 153 372 q 35 213 37 282 l 35 164 z "},"à":{"ha":629,"x_min":54,"x_max":575,"o":"m 189 993 l 243 993 l 293 787 l 254 787 l 189 993 m 54 164 l 54 227 q 121 349 56 315 q 312 400 145 361 q 484 471 483 439 l 484 492 q 403 633 484 586 q 327 655 365 655 l 327 704 q 511 600 453 704 q 540 490 540 548 l 540 100 q 575 54 545 58 l 575 1 q 491 46 521 1 q 486 53 488 50 q 345 1 441 8 q 327 1 335 1 l 327 53 q 486 202 484 56 l 486 396 q 283 340 448 376 q 125 285 151 311 q 110 232 110 269 l 110 179 q 206 61 111 88 q 266 53 235 53 l 266 1 q 85 80 146 1 q 54 164 54 121 m 64 528 q 145 667 62 613 q 266 704 202 704 l 266 652 q 144 593 190 652 q 114 509 114 555 l 64 528 z "},"ā":{"ha":629,"x_min":54,"x_max":575,"o":"m 90 787 l 90 827 l 518 827 l 518 787 l 90 787 m 54 164 l 54 227 q 121 349 56 315 q 312 400 145 361 q 484 471 483 439 l 484 492 q 403 633 484 586 q 327 655 365 655 l 327 704 q 511 600 453 704 q 540 490 540 548 l 540 100 q 575 54 545 58 l 575 1 q 491 46 521 1 q 486 53 488 50 q 345 1 441 8 q 327 1 335 1 l 327 53 q 486 202 484 56 l 486 396 q 283 340 448 376 q 125 285 151 311 q 110 232 110 269 l 110 179 q 206 61 111 88 q 266 53 235 53 l 266 1 q 85 80 146 1 q 54 164 54 121 m 64 528 q 145 667 62 613 q 266 704 202 704 l 266 652 q 144 593 190 652 q 114 509 114 555 l 64 528 z "},"&":{"ha":863,"x_min":54,"x_max":808,"o":"m 538 130 q 359 53 468 53 q 170 133 244 53 q 109 289 109 198 q 205 476 110 400 l 167 514 q 54 289 56 420 q 170 58 54 142 q 354 -1 251 -1 q 576 91 483 0 l 538 130 m 595 745 q 522 868 585 819 q 439 903 484 898 l 439 958 q 613 846 552 943 q 648 758 639 804 l 595 745 m 365 903 q 239 829 286 897 q 206 722 206 781 q 277 589 206 655 q 288 578 285 581 l 629 222 q 719 393 692 285 q 730 468 730 434 l 784 468 q 703 222 784 339 q 669 182 685 199 l 808 37 l 749 20 l 241 545 q 161 658 176 614 q 152 722 152 686 q 244 907 152 837 q 365 958 297 948 l 365 903 z "},"ං":{"ha":609,"x_min":41,"x_max":568,"o":"m 338 61 l 338 115 q 500 220 471 115 q 514 336 514 264 l 514 422 q 446 616 514 571 q 338 643 406 643 l 338 697 l 366 697 q 568 422 568 696 l 568 336 q 366 61 563 65 l 338 61 m 241 61 q 41 336 41 62 l 41 422 q 241 697 43 696 l 270 697 l 270 643 q 106 532 136 643 q 95 422 95 488 l 95 336 q 155 146 95 191 q 270 115 197 115 l 270 61 l 241 61 z "},"ą":{"ha":629,"x_min":54,"x_max":656,"o":"m 656 -233 q 484 -134 533 -233 q 465 -54 465 -95 l 519 -54 q 589 -167 519 -133 q 656 -182 620 -182 l 656 -233 m 54 164 l 54 227 q 121 349 56 315 q 312 400 145 361 q 484 471 483 439 l 484 492 q 403 633 484 586 q 327 655 365 655 l 327 704 q 511 600 453 704 q 540 490 540 548 l 540 100 q 575 54 545 58 l 575 1 q 491 46 521 1 q 486 53 488 50 q 345 1 441 8 q 327 1 335 1 l 327 53 q 486 202 484 56 l 486 396 q 283 340 448 376 q 125 285 151 311 q 110 232 110 269 l 110 179 q 206 61 111 88 q 266 53 235 53 l 266 1 q 85 80 146 1 q 54 164 54 121 m 64 528 q 145 667 62 613 q 266 704 202 704 l 266 652 q 144 593 190 652 q 114 509 114 555 l 64 528 z "},"≈":{"ha":770,"x_min":68,"x_max":703,"o":"m 68 354 l 68 403 q 221 450 151 450 q 369 403 279 450 q 509 351 457 355 q 525 351 518 351 q 703 412 604 353 l 703 366 q 517 304 600 304 q 359 354 453 304 q 213 403 262 400 q 68 354 142 401 m 68 545 l 68 595 q 221 643 151 643 q 369 595 279 643 q 509 544 457 548 q 525 544 518 544 q 703 605 604 545 l 703 557 q 517 495 600 495 q 359 545 453 495 q 213 594 262 591 q 68 545 142 593 z "},"å":{"ha":629,"x_min":54,"x_max":575,"o":"m 202 917 q 251 998 202 972 q 293 1008 271 1008 q 374 959 349 1008 q 384 917 384 939 q 335 836 384 861 q 293 826 315 826 q 212 875 237 826 q 202 917 202 895 m 250 917 q 279 875 250 884 q 293 873 288 873 q 335 903 326 873 q 336 917 336 911 q 307 959 336 949 q 293 960 298 960 q 251 930 260 960 q 250 917 250 922 m 54 164 l 54 227 q 121 349 56 315 q 312 400 145 361 q 484 471 483 439 l 484 492 q 403 633 484 586 q 327 655 365 655 l 327 704 q 511 600 453 704 q 540 490 540 548 l 540 100 q 575 54 545 58 l 575 1 q 491 46 521 1 q 486 53 488 50 q 345 1 441 8 q 327 1 335 1 l 327 53 q 486 202 484 56 l 486 396 q 283 340 448 376 q 125 285 151 311 q 110 232 110 269 l 110 179 q 206 61 111 88 q 266 53 235 53 l 266 1 q 85 80 146 1 q 54 164 54 121 m 64 528 q 145 667 62 613 q 266 704 202 704 l 266 652 q 144 593 190 652 q 114 509 114 555 l 64 528 z "},"^":{"ha":578,"x_min":68,"x_max":510,"o":"m 68 624 l 270 1025 l 308 1025 l 510 624 l 454 624 l 288 954 l 123 624 l 68 624 z "},"~":{"ha":852,"x_min":109,"x_max":743,"o":"m 109 434 l 109 486 q 262 533 191 533 q 410 486 320 533 q 549 434 498 438 q 566 434 559 434 q 743 495 644 435 l 743 446 q 557 384 640 384 q 400 434 494 384 q 254 483 302 480 q 109 434 183 481 z "},"*":{"ha":481,"x_min":54,"x_max":427,"o":"m 57 956 l 88 1000 l 213 921 l 213 1065 l 267 1065 l 267 914 l 397 1000 l 427 956 l 281 859 l 427 758 l 396 715 l 267 807 l 267 648 l 213 648 l 213 807 l 84 720 l 54 764 l 202 860 l 57 956 z "},"@":{"ha":1043,"x_min":54,"x_max":989,"o":"m 54 419 q 201 770 54 627 q 567 920 347 913 q 586 920 576 920 q 859 829 742 920 q 989 560 987 726 q 821 243 989 317 q 718 218 768 218 q 625 269 669 218 q 608 297 612 285 q 522 236 579 252 q 479 229 500 229 q 361 304 406 229 q 332 412 332 353 q 437 618 332 548 q 548 655 492 655 q 567 654 557 655 q 583 652 576 654 q 597 648 590 651 q 610 644 605 646 q 621 639 614 643 q 629 633 627 635 q 637 627 632 632 q 644 621 643 623 q 651 616 646 620 l 655 610 l 663 639 l 716 639 l 661 418 q 647 361 654 393 q 667 300 640 335 q 726 267 693 269 q 863 328 804 267 q 937 559 937 408 q 807 798 937 707 q 586 868 707 868 q 254 742 392 868 q 109 419 111 606 q 247 94 109 218 q 549 -19 370 -19 q 898 98 730 -19 q 905 102 902 100 l 929 56 q 549 -71 755 -71 q 171 90 311 -71 q 54 419 54 225 z "},"ã":{"ha":629,"x_min":54,"x_max":575,"o":"m 99 811 l 99 864 q 194 894 152 894 q 290 863 228 894 q 372 838 338 838 q 480 876 419 840 l 480 825 q 366 787 418 787 q 266 818 330 787 q 189 841 220 841 q 99 811 146 840 m 54 164 l 54 227 q 121 349 56 315 q 312 400 145 361 q 484 471 483 439 l 484 492 q 403 633 484 586 q 327 655 365 655 l 327 704 q 511 600 453 704 q 540 490 540 548 l 540 100 q 575 54 545 58 l 575 1 q 491 46 521 1 q 486 53 488 50 q 345 1 441 8 q 327 1 335 1 l 327 53 q 486 202 484 56 l 486 396 q 283 340 448 376 q 125 285 151 311 q 110 232 110 269 l 110 179 q 206 61 111 88 q 266 53 235 53 l 266 1 q 85 80 146 1 q 54 164 54 121 m 64 528 q 145 667 62 613 q 266 704 202 704 l 266 652 q 144 593 190 652 q 114 509 114 555 l 64 528 z "},"b":{"ha":581,"x_min":54,"x_max":540,"o":"m 54 0 l 54 948 l 109 948 l 109 0 l 54 0 m 170 0 l 170 52 l 330 52 q 444 104 391 52 q 486 194 484 146 l 486 506 q 420 617 486 570 q 330 648 376 648 l 170 648 l 170 700 l 331 700 q 492 625 426 700 q 540 511 540 571 l 540 191 q 486 68 540 127 q 327 0 422 1 l 170 0 z "},"\\":{"ha":401,"x_min":54,"x_max":347,"o":"m 54 971 l 110 971 l 347 -31 l 290 -31 l 54 971 z "},"|":{"ha":183,"x_min":68,"x_max":115,"o":"m 68 -182 l 68 1023 l 115 1023 l 115 -182 l 68 -182 z "},"{":{"ha":297,"x_min":20,"x_max":270,"o":"m 20 472 q 91 511 79 496 q 104 553 103 528 l 104 755 q 170 974 104 932 q 270 997 203 997 l 270 951 q 189 924 208 951 q 159 704 161 886 q 159 636 159 674 l 159 519 q 121 473 159 483 q 118 472 119 472 q 159 412 159 457 l 159 281 q 221 5 159 41 q 270 -5 240 -5 l 270 -52 q 122 46 156 -52 q 104 187 104 100 l 104 393 q 62 450 104 427 q 42 461 57 454 q 20 472 27 468 z "},"}":{"ha":297,"x_min":27,"x_max":277,"o":"m 27 -52 l 27 -5 q 104 35 83 -5 q 138 281 138 99 l 138 412 q 179 472 141 458 q 138 519 140 484 l 138 636 q 115 911 138 863 q 46 951 99 948 q 27 951 38 951 l 27 997 q 159 941 125 997 q 193 755 193 887 l 193 553 q 236 490 194 510 q 277 472 244 486 q 210 435 217 441 q 193 393 193 418 l 193 187 q 102 -38 193 0 q 27 -52 71 -52 z "},"[":{"ha":244,"x_min":68,"x_max":176,"o":"m 68 -49 l 68 1002 l 176 1002 l 176 951 l 123 951 l 119 3 l 176 3 l 176 -49 l 68 -49 z "},"]":{"ha":244,"x_min":68,"x_max":176,"o":"m 68 -49 l 68 3 l 125 3 l 121 951 l 68 951 l 68 1002 l 176 1002 l 176 -49 l 68 -49 z "},"˘":{"ha":331,"x_min":79,"x_max":252,"o":"m 79 713 l 122 713 q 152 671 122 681 q 165 670 160 670 q 208 700 198 670 q 209 713 209 708 l 252 713 q 217 647 252 674 q 165 629 194 629 q 85 685 109 629 q 79 713 79 700 z "},"¦":{"ha":179,"x_min":57,"x_max":111,"o":"m 57 -182 l 57 300 l 111 300 l 111 -182 l 57 -182 m 57 541 l 57 1023 l 111 1023 l 111 541 l 57 541 z "},"•":{"ha":477,"x_min":157,"x_max":320,"o":"m 157 468 q 205 543 157 521 q 239 549 221 549 q 313 502 292 549 q 320 468 320 486 q 273 393 320 415 q 239 387 256 387 q 164 434 186 387 q 157 468 157 450 z "},"c":{"ha":586,"x_min":54,"x_max":545,"o":"m 54 191 q 109 62 54 119 q 270 0 170 0 l 270 52 q 136 123 186 52 q 110 191 110 159 l 110 500 q 164 606 110 559 q 271 648 212 648 l 271 700 q 85 604 148 700 q 54 505 54 553 l 54 191 m 331 647 q 446 589 401 647 q 476 507 471 553 q 477 486 477 499 l 530 505 q 452 659 530 601 q 331 700 397 700 l 331 647 m 330 -1 q 494 72 426 -1 q 545 195 545 127 l 492 216 q 491 197 492 203 q 411 75 481 118 q 330 50 370 50 l 330 -1 z "},"ć":{"ha":586,"x_min":54,"x_max":545,"o":"m 279 783 l 330 989 l 384 989 l 317 783 l 279 783 m 54 191 q 109 62 54 119 q 270 0 170 0 l 270 52 q 136 123 186 52 q 110 191 110 159 l 110 500 q 164 606 110 559 q 271 648 212 648 l 271 700 q 85 604 148 700 q 54 505 54 553 l 54 191 m 331 647 q 446 589 401 647 q 476 507 471 553 q 477 486 477 499 l 530 505 q 452 659 530 601 q 331 700 397 700 l 331 647 m 330 -1 q 494 72 426 -1 q 545 195 545 127 l 492 216 q 491 197 492 203 q 411 75 481 118 q 330 50 370 50 l 330 -1 z "},"ˇ":{"ha":366,"x_min":58,"x_max":307,"o":"m 58 903 l 107 903 l 183 750 l 258 903 l 307 903 l 205 697 l 161 697 l 58 903 z "},"č":{"ha":586,"x_min":54,"x_max":545,"o":"m 175 989 l 224 989 l 300 836 l 374 989 l 423 989 l 321 783 l 278 783 l 175 989 m 54 191 q 109 62 54 119 q 270 0 170 0 l 270 52 q 136 123 186 52 q 110 191 110 159 l 110 500 q 164 606 110 559 q 271 648 212 648 l 271 700 q 85 604 148 700 q 54 505 54 553 l 54 191 m 331 647 q 446 589 401 647 q 476 507 471 553 q 477 486 477 499 l 530 505 q 452 659 530 601 q 331 700 397 700 l 331 647 m 330 -1 q 494 72 426 -1 q 545 195 545 127 l 492 216 q 491 197 492 203 q 411 75 481 118 q 330 50 370 50 l 330 -1 z "},"ç":{"ha":586,"x_min":54,"x_max":545,"o":"m 141 -233 l 141 -182 q 263 -115 227 -182 q 278 -54 278 -87 l 332 -54 q 269 -191 332 -138 q 141 -233 217 -233 m 54 191 q 109 62 54 119 q 270 0 170 0 l 270 52 q 136 123 186 52 q 110 191 110 159 l 110 500 q 164 606 110 559 q 271 648 212 648 l 271 700 q 85 604 148 700 q 54 505 54 553 l 54 191 m 331 647 q 446 589 401 647 q 476 507 471 553 q 477 486 477 499 l 530 505 q 452 659 530 601 q 331 700 397 700 l 331 647 m 330 -1 q 494 72 426 -1 q 545 195 545 127 l 492 216 q 491 197 492 203 q 411 75 481 118 q 330 50 370 50 l 330 -1 z "},"¸":{"ha":541,"x_min":167,"x_max":358,"o":"m 167 -12 l 167 39 q 289 106 252 39 q 304 167 304 134 l 358 167 q 294 30 358 83 q 167 -12 243 -12 z "},"¢":{"ha":570,"x_min":52,"x_max":543,"o":"m 328 783 l 328 647 q 444 587 400 647 q 475 502 471 551 l 475 486 l 528 505 q 450 659 528 601 q 373 694 414 685 l 373 783 l 328 783 m 224 783 l 224 696 q 72 585 119 677 q 52 505 52 544 l 52 191 q 104 65 52 122 q 224 4 152 16 l 224 -83 l 269 -83 l 269 52 q 134 122 186 52 q 107 191 107 159 l 107 500 q 161 606 107 559 q 269 648 209 648 l 269 783 l 224 783 m 328 -83 l 373 -83 l 373 4 q 515 103 465 24 q 543 195 543 146 l 490 216 q 488 191 490 199 q 403 71 475 111 q 328 50 366 50 l 328 -83 z "},"ˆ":{"ha":366,"x_min":58,"x_max":307,"o":"m 58 697 l 160 903 l 203 903 l 307 697 l 258 697 l 182 850 l 107 697 l 58 697 z "},":":{"ha":208,"x_min":68,"x_max":140,"o":"m 68 28 q 92 62 68 54 q 103 64 99 64 q 137 39 129 64 q 138 28 138 33 q 114 -5 138 3 q 103 -7 107 -7 q 69 18 77 -7 q 68 28 68 24 m 69 422 q 94 456 69 448 q 104 457 100 457 q 138 433 130 457 q 140 422 140 426 q 115 388 140 396 q 104 387 109 387 q 71 411 79 387 q 69 422 69 418 z "},",":{"ha":212,"x_min":54,"x_max":157,"o":"m 54 -31 l 104 175 l 157 175 l 107 -31 l 54 -31 z "},"©":{"ha":1036,"x_min":47,"x_max":996,"o":"m 47 460 q 180 122 47 263 q 479 -22 307 -11 q 502 -22 491 -22 l 502 23 q 209 155 332 23 q 87 445 94 279 q 87 460 87 452 q 236 793 87 663 q 502 901 362 895 l 502 941 q 250 854 374 943 q 53 533 80 735 q 47 460 47 496 m 327 335 q 384 197 327 250 q 503 153 431 153 l 503 193 q 389 263 427 193 q 370 335 370 298 l 370 578 q 420 696 370 651 q 503 726 456 726 l 503 766 q 349 670 397 766 q 327 582 327 627 l 327 335 m 549 -22 q 838 99 708 -22 q 994 418 978 229 q 996 460 996 439 q 849 810 996 666 q 578 940 728 928 q 549 941 563 941 l 549 901 q 818 785 697 901 q 956 484 947 661 q 956 460 956 471 q 845 167 956 297 q 575 24 731 35 q 549 23 562 23 l 549 -22 m 549 152 q 675 221 627 152 q 707 315 707 264 l 666 330 l 666 317 q 608 212 663 250 q 549 193 581 193 l 549 152 m 549 724 q 636 675 601 724 q 662 598 662 640 l 662 590 l 704 605 q 640 735 704 685 q 549 766 598 766 l 549 724 z "},"¤":{"ha":811,"x_min":54,"x_max":743,"o":"m 54 222 l 161 320 q 151 372 151 346 l 151 618 q 163 671 151 644 l 54 769 l 88 808 l 189 719 q 373 808 256 807 l 373 757 q 228 675 278 757 q 205 601 205 637 l 205 389 q 258 282 205 335 q 373 231 309 231 l 373 179 q 189 273 256 180 l 88 183 l 54 222 m 429 179 l 429 231 q 566 311 515 231 q 590 387 590 350 l 590 601 q 538 712 590 661 q 429 757 491 757 l 429 808 q 608 718 544 807 l 709 808 l 743 769 l 633 670 q 644 618 644 640 l 644 372 q 633 320 644 350 l 743 222 l 708 183 l 608 273 q 429 179 541 180 z "},"d":{"ha":581,"x_min":41,"x_max":526,"o":"m 41 191 l 41 511 q 115 651 41 591 q 250 700 178 700 l 411 700 l 411 648 l 251 648 q 132 590 183 648 q 95 506 95 549 l 95 194 q 165 80 95 127 q 251 52 210 52 l 411 52 l 411 0 l 254 0 q 72 98 136 0 q 41 191 41 146 m 472 0 l 472 948 l 526 948 l 526 0 l 472 0 z "},"†":{"ha":614,"x_min":35,"x_max":579,"o":"m 35 669 l 35 720 l 279 720 l 279 1036 l 334 1036 l 334 720 l 579 720 l 579 669 l 334 669 l 334 -76 l 279 -76 l 279 669 l 35 669 z "},"‡":{"ha":614,"x_min":35,"x_max":579,"o":"m 35 236 l 35 288 l 281 288 l 281 673 l 35 673 l 35 724 l 281 724 l 281 1036 l 335 1036 l 335 724 l 579 724 l 579 673 l 335 673 l 335 288 l 579 288 l 579 236 l 335 236 l 335 -76 l 281 -76 l 281 236 l 35 236 z "},"ď":{"ha":581,"x_min":41,"x_max":731,"o":"m 628 742 l 678 948 l 731 948 l 681 742 l 628 742 m 41 191 l 41 511 q 115 651 41 591 q 250 700 178 700 l 411 700 l 411 648 l 251 648 q 132 590 183 648 q 95 506 95 549 l 95 194 q 165 80 95 127 q 251 52 210 52 l 411 52 l 411 0 l 254 0 q 72 98 136 0 q 41 191 41 146 m 472 0 l 472 948 l 526 948 l 526 0 l 472 0 z "},"đ":{"ha":562,"x_min":35,"x_max":608,"o":"m 35 191 l 35 511 q 110 651 35 591 q 244 700 172 700 l 406 700 l 406 648 l 245 648 q 126 590 178 648 q 90 506 90 549 l 90 194 q 160 80 90 127 q 245 52 205 52 l 406 52 l 406 0 l 248 0 q 66 98 130 0 q 35 191 35 146 m 380 796 l 380 848 l 467 848 l 467 948 l 521 948 l 521 848 l 608 848 l 608 796 l 521 796 l 521 0 l 467 0 l 467 796 l 380 796 z "},"°":{"ha":283,"x_min":47,"x_max":236,"o":"m 47 791 q 98 873 47 848 q 141 884 119 884 q 224 836 197 884 q 236 791 236 814 q 186 708 236 735 q 141 697 164 697 q 58 747 84 697 q 47 791 47 769 m 90 791 q 123 742 90 754 q 141 739 133 739 q 191 774 179 739 q 194 791 194 783 q 159 841 194 829 q 141 844 149 844 q 94 810 106 844 q 90 791 90 800 z "},"¨":{"ha":361,"x_min":75,"x_max":286,"o":"m 75 921 q 102 956 75 948 q 113 958 109 958 q 148 932 140 958 q 149 921 149 926 q 123 886 149 894 q 113 884 118 884 q 76 910 84 884 q 75 921 75 917 m 212 921 q 239 956 212 948 q 250 958 245 958 q 285 932 277 958 q 286 921 286 926 q 260 886 286 894 q 250 884 255 884 q 213 910 221 884 q 212 921 212 917 z "},"÷":{"ha":882,"x_min":136,"x_max":746,"o":"m 136 370 l 136 422 l 746 422 l 746 370 l 136 370 m 400 557 q 434 606 400 593 q 453 610 444 610 q 502 576 488 610 q 506 557 506 567 q 472 509 506 522 q 453 505 463 505 q 404 538 418 505 q 400 557 400 548 m 400 236 q 434 285 400 271 q 453 289 444 289 q 502 255 488 289 q 506 236 506 245 q 472 187 506 201 q 453 183 463 183 q 404 217 418 183 q 400 236 400 227 z "},"$":{"ha":707,"x_min":54,"x_max":652,"o":"m 54 214 l 104 232 q 139 146 114 183 q 192 91 164 109 q 247 62 220 73 q 292 49 274 52 l 309 47 l 309 -64 l 269 -64 l 269 -1 q 92 117 160 16 q 54 214 56 171 m 65 697 q 191 913 65 840 q 269 944 229 935 l 269 1017 l 309 1017 l 309 898 q 203 856 260 898 q 119 689 121 792 q 282 534 119 578 q 309 528 296 530 l 309 472 q 232 488 247 483 q 90 590 122 529 q 65 697 65 633 m 370 -64 l 370 47 q 505 104 433 47 q 598 283 597 180 q 434 448 598 404 q 370 461 406 454 l 370 515 q 479 495 460 500 q 636 374 602 461 q 652 275 652 331 q 563 76 652 161 q 411 -1 496 12 l 411 -64 l 370 -64 m 370 898 l 370 1017 l 411 1017 l 411 945 q 585 818 518 925 q 614 750 609 780 l 563 734 q 526 812 551 779 q 476 861 502 845 q 426 886 450 876 q 385 897 401 895 l 370 898 z "},"˙":{"ha":274,"x_min":96,"x_max":178,"o":"m 96 920 q 125 960 96 951 q 137 962 130 962 q 176 932 167 962 q 178 920 178 926 q 148 880 178 888 q 137 879 142 879 q 98 909 106 879 q 96 920 96 914 z "},"ı":{"ha":236,"x_min":92,"x_max":146,"o":"m 92 0 l 92 700 l 146 700 l 146 0 l 92 0 z "},"◌":{"ha":863,"x_min":68,"x_max":806,"o":"m 228 656 q 259 700 228 689 q 274 703 267 703 q 317 671 307 703 q 320 656 320 663 q 289 613 320 624 q 274 610 281 610 q 231 642 241 610 q 228 656 228 650 m 111 540 q 142 583 111 572 q 157 586 151 586 q 201 555 190 586 q 203 540 203 547 q 172 496 203 507 q 157 494 164 494 q 114 525 125 494 q 111 540 111 533 m 228 98 q 259 141 228 130 q 274 144 267 144 q 317 113 307 144 q 320 98 320 104 q 289 54 320 65 q 274 52 281 52 q 231 83 241 52 q 228 98 228 91 m 111 214 q 142 258 111 247 q 157 260 151 260 q 201 229 190 260 q 203 214 203 221 q 172 171 203 182 q 157 168 164 168 q 114 199 125 168 q 111 214 111 208 m 553 98 q 585 141 553 130 q 600 144 593 144 q 643 113 632 144 q 646 98 646 104 q 614 54 646 65 q 600 52 606 52 q 556 83 567 52 q 553 98 553 91 m 670 214 q 701 258 670 247 q 716 260 709 260 q 760 229 749 260 q 762 214 762 221 q 731 171 762 182 q 716 168 723 168 q 673 199 684 168 q 670 214 670 208 m 670 540 q 701 583 670 572 q 716 586 709 586 q 760 555 749 586 q 762 540 762 547 q 731 496 762 507 q 716 494 723 494 q 673 525 684 494 q 670 540 670 533 m 553 656 q 585 700 553 689 q 600 703 593 703 q 643 671 632 703 q 646 656 646 663 q 614 613 646 624 q 600 610 606 610 q 556 642 567 610 q 553 656 553 650 m 713 377 q 745 420 713 410 q 760 423 753 423 q 803 392 792 423 q 806 377 806 384 q 774 334 806 345 q 760 331 766 331 q 716 362 727 331 q 713 377 713 370 m 391 54 q 422 98 391 87 q 437 100 430 100 q 480 69 469 100 q 483 54 483 61 q 452 11 483 22 q 437 8 444 8 q 393 39 404 8 q 391 54 391 47 m 68 377 q 99 420 68 410 q 114 423 107 423 q 157 392 146 423 q 160 377 160 384 q 129 334 160 345 q 114 331 121 331 q 71 362 81 331 q 68 377 68 370 m 391 700 q 422 743 391 732 q 437 746 430 746 q 480 715 469 746 q 483 700 483 707 q 452 656 483 667 q 437 654 444 654 q 393 685 404 654 q 391 700 391 693 z "},"e":{"ha":613,"x_min":54,"x_max":559,"o":"m 54 191 l 54 511 q 111 631 56 572 q 275 700 179 700 l 275 648 q 138 575 193 648 q 109 500 109 534 l 109 387 l 503 387 l 503 500 q 434 618 503 571 q 336 651 387 651 l 336 700 q 498 633 427 700 q 557 513 556 578 l 557 335 l 109 335 l 109 191 q 161 100 109 148 q 277 52 216 53 l 277 0 q 90 96 159 0 q 54 191 54 148 m 336 0 l 336 56 q 483 134 427 56 q 506 182 500 159 l 559 163 q 435 20 529 61 q 336 0 389 0 z "},"é":{"ha":613,"x_min":54,"x_max":559,"o":"m 285 783 l 335 989 l 389 989 l 323 783 l 285 783 m 54 191 l 54 511 q 111 631 56 572 q 275 700 179 700 l 275 648 q 138 575 193 648 q 109 500 109 534 l 109 387 l 503 387 l 503 500 q 434 618 503 571 q 336 651 387 651 l 336 700 q 498 633 427 700 q 557 513 556 578 l 557 335 l 109 335 l 109 191 q 161 100 109 148 q 277 52 216 53 l 277 0 q 90 96 159 0 q 54 191 54 148 m 336 0 l 336 56 q 483 134 427 56 q 506 182 500 159 l 559 163 q 435 20 529 61 q 336 0 389 0 z "},"ě":{"ha":613,"x_min":54,"x_max":559,"o":"m 179 989 l 228 989 l 304 836 l 378 989 l 427 989 l 326 783 l 282 783 l 179 989 m 54 191 l 54 511 q 111 631 56 572 q 275 700 179 700 l 275 648 q 138 575 193 648 q 109 500 109 534 l 109 387 l 503 387 l 503 500 q 434 618 503 571 q 336 651 387 651 l 336 700 q 498 633 427 700 q 557 513 556 578 l 557 335 l 109 335 l 109 191 q 161 100 109 148 q 277 52 216 53 l 277 0 q 90 96 159 0 q 54 191 54 148 m 336 0 l 336 56 q 483 134 427 56 q 506 182 500 159 l 559 163 q 435 20 529 61 q 336 0 389 0 z "},"ê":{"ha":613,"x_min":54,"x_max":559,"o":"m 179 783 l 281 989 l 324 989 l 427 783 l 378 783 l 302 936 l 228 783 l 179 783 m 54 191 l 54 511 q 111 631 56 572 q 275 700 179 700 l 275 648 q 138 575 193 648 q 109 500 109 534 l 109 387 l 503 387 l 503 500 q 434 618 503 571 q 336 651 387 651 l 336 700 q 498 633 427 700 q 557 513 556 578 l 557 335 l 109 335 l 109 191 q 161 100 109 148 q 277 52 216 53 l 277 0 q 90 96 159 0 q 54 191 54 148 m 336 0 l 336 56 q 483 134 427 56 q 506 182 500 159 l 559 163 q 435 20 529 61 q 336 0 389 0 z "},"ë":{"ha":613,"x_min":54,"x_max":559,"o":"m 198 819 q 225 854 198 846 q 236 856 232 856 q 271 830 263 856 q 273 819 273 825 q 247 784 273 792 q 236 783 241 783 q 199 808 208 783 q 198 819 198 815 m 335 819 q 362 854 335 846 q 373 856 369 856 q 408 830 400 856 q 410 819 410 825 q 384 784 410 792 q 373 783 378 783 q 336 808 345 783 q 335 819 335 815 m 54 191 l 54 511 q 111 631 56 572 q 275 700 179 700 l 275 648 q 138 575 193 648 q 109 500 109 534 l 109 387 l 503 387 l 503 500 q 434 618 503 571 q 336 651 387 651 l 336 700 q 498 633 427 700 q 557 513 556 578 l 557 335 l 109 335 l 109 191 q 161 100 109 148 q 277 52 216 53 l 277 0 q 90 96 159 0 q 54 191 54 148 m 336 0 l 336 56 q 483 134 427 56 q 506 182 500 159 l 559 163 q 435 20 529 61 q 336 0 389 0 z "},"ė":{"ha":613,"x_min":54,"x_max":559,"o":"m 263 823 q 292 864 263 854 q 304 865 297 865 q 343 836 334 865 q 345 823 345 830 q 315 784 345 792 q 304 783 309 783 q 264 812 273 783 q 263 823 263 818 m 54 191 l 54 511 q 111 631 56 572 q 275 700 179 700 l 275 648 q 138 575 193 648 q 109 500 109 534 l 109 387 l 503 387 l 503 500 q 434 618 503 571 q 336 651 387 651 l 336 700 q 498 633 427 700 q 557 513 556 578 l 557 335 l 109 335 l 109 191 q 161 100 109 148 q 277 52 216 53 l 277 0 q 90 96 159 0 q 54 191 54 148 m 336 0 l 336 56 q 483 134 427 56 q 506 182 500 159 l 559 163 q 435 20 529 61 q 336 0 389 0 z "},"è":{"ha":613,"x_min":54,"x_max":559,"o":"m 216 989 l 270 989 l 320 783 l 281 783 l 216 989 m 54 191 l 54 511 q 111 631 56 572 q 275 700 179 700 l 275 648 q 138 575 193 648 q 109 500 109 534 l 109 387 l 503 387 l 503 500 q 434 618 503 571 q 336 651 387 651 l 336 700 q 498 633 427 700 q 557 513 556 578 l 557 335 l 109 335 l 109 191 q 161 100 109 148 q 277 52 216 53 l 277 0 q 90 96 159 0 q 54 191 54 148 m 336 0 l 336 56 q 483 134 427 56 q 506 182 500 159 l 559 163 q 435 20 529 61 q 336 0 389 0 z "},"…":{"ha":890,"x_min":68,"x_max":822,"o":"m 68 5 q 92 39 68 31 q 103 41 99 41 q 137 16 129 41 q 138 5 138 9 q 114 -28 138 -20 q 103 -30 107 -30 q 69 -5 77 -30 q 68 5 68 1 m 410 5 q 434 39 410 31 q 445 41 441 41 q 479 16 471 41 q 480 5 480 9 q 456 -28 480 -20 q 445 -30 449 -30 q 411 -5 419 -30 q 410 5 410 1 m 751 5 q 776 39 751 31 q 787 41 783 41 q 821 16 812 41 q 822 5 822 9 q 798 -28 822 -20 q 787 -30 791 -30 q 753 -5 761 -30 q 751 5 751 1 z "},"ē":{"ha":613,"x_min":54,"x_max":559,"o":"m 90 783 l 90 823 l 518 823 l 518 783 l 90 783 m 54 191 l 54 511 q 111 631 56 572 q 275 700 179 700 l 275 648 q 138 575 193 648 q 109 500 109 534 l 109 387 l 503 387 l 503 500 q 434 618 503 571 q 336 651 387 651 l 336 700 q 498 633 427 700 q 557 513 556 578 l 557 335 l 109 335 l 109 191 q 161 100 109 148 q 277 52 216 53 l 277 0 q 90 96 159 0 q 54 191 54 148 m 336 0 l 336 56 q 483 134 427 56 q 506 182 500 159 l 559 163 q 435 20 529 61 q 336 0 389 0 z "},"—":{"ha":1229,"x_min":35,"x_max":1194,"o":"m 35 372 l 35 423 l 1194 423 l 1194 372 l 35 372 z "},"–":{"ha":722,"x_min":35,"x_max":686,"o":"m 35 373 l 35 425 l 686 425 l 686 373 l 35 373 z "},"ę":{"ha":613,"x_min":54,"x_max":559,"o":"m 472 -233 l 472 -182 q 350 -115 387 -182 q 335 -54 335 -87 l 281 -54 q 345 -191 281 -138 q 472 -233 396 -233 m 54 191 l 54 511 q 111 631 56 572 q 275 700 179 700 l 275 648 q 138 575 193 648 q 109 500 109 534 l 109 387 l 503 387 l 503 500 q 434 618 503 571 q 336 651 387 651 l 336 700 q 498 633 427 700 q 557 513 556 578 l 557 335 l 109 335 l 109 191 q 161 100 109 148 q 277 52 216 53 l 277 0 q 90 96 159 0 q 54 191 54 148 m 336 0 l 336 56 q 483 134 427 56 q 506 182 500 159 l 559 163 q 435 20 529 61 q 336 0 389 0 z "},"=":{"ha":567,"x_min":68,"x_max":499,"o":"m 68 296 l 68 350 l 499 350 l 499 296 l 68 296 m 68 441 l 68 495 l 499 495 l 499 441 l 68 441 z "},"℮":{"ha":720,"x_min":41,"x_max":614,"o":"m 290 1 q 80 123 149 1 q 41 286 41 197 l 41 673 q 118 880 41 795 q 290 956 189 956 l 290 905 q 133 812 189 905 q 95 662 95 749 l 95 454 l 559 454 l 559 662 q 469 871 559 804 q 365 905 422 905 l 365 956 q 568 837 498 956 q 613 674 613 762 l 613 403 l 95 403 l 95 297 q 202 73 95 130 q 290 53 243 53 l 290 1 m 366 0 l 366 56 q 524 121 457 56 q 562 182 555 152 l 614 163 q 499 33 590 81 q 366 0 435 0 z "},"ð":{"ha":570,"x_min":38,"x_max":553,"o":"m 38 191 l 38 510 q 95 631 38 572 q 260 700 161 700 l 260 648 q 115 567 165 648 q 92 492 92 529 l 92 209 q 145 102 92 155 q 260 50 197 50 l 260 -1 q 69 99 136 -1 q 38 191 38 148 m 260 930 l 260 968 q 458 857 389 944 l 538 880 l 553 831 l 487 811 q 532 591 532 724 l 532 191 q 476 68 532 127 q 316 -1 412 0 l 316 50 q 453 130 403 50 q 477 206 477 170 l 476 506 q 419 610 476 564 q 316 648 373 648 l 316 700 q 471 639 410 699 q 434 796 471 730 l 346 769 l 331 819 l 404 841 q 260 930 358 894 z "},"!":{"ha":179,"x_min":54,"x_max":125,"o":"m 54 31 q 79 65 54 57 q 90 66 85 66 q 123 42 115 66 q 125 31 125 35 q 100 -3 125 5 q 90 -4 94 -4 q 56 20 64 -4 q 54 31 54 27 m 62 225 l 62 949 l 117 949 l 117 225 l 62 225 z "},"¡":{"ha":187,"x_min":27,"x_max":102,"o":"m 27 663 q 54 699 27 690 q 65 700 61 700 q 100 674 92 700 q 102 663 102 669 q 76 628 102 636 q 65 627 71 627 q 28 652 37 627 q 27 663 27 659 m 38 -127 l 38 572 l 92 572 l 92 -127 l 38 -127 z "},"f":{"ha":330,"x_min":41,"x_max":302,"o":"m 41 595 l 41 647 l 126 647 l 126 749 q 209 926 126 882 q 288 944 243 944 l 302 944 l 290 892 l 283 892 q 180 749 180 886 l 180 646 l 266 647 l 266 595 l 180 595 l 180 0 l 126 0 l 126 595 l 41 595 z "},"ﬁ":{"ha":670,"x_min":90,"x_max":437,"o":"m 90 595 l 90 647 l 175 647 l 175 749 q 258 926 175 882 q 336 944 292 944 l 351 944 l 339 892 q 324 891 328 892 q 229 749 229 882 l 229 646 l 427 646 l 427 0 l 373 0 l 373 595 l 229 595 l 229 0 l 175 0 l 175 595 l 90 595 m 362 791 q 389 826 362 818 q 400 827 396 827 q 435 802 427 827 q 437 791 437 796 q 411 755 437 764 q 400 754 406 754 q 363 780 372 754 q 362 791 362 787 z "},"ﬂ":{"ha":426,"x_min":90,"x_max":452,"o":"m 90 595 l 175 595 l 175 0 l 229 0 l 229 595 l 315 595 l 315 647 l 229 646 l 229 749 q 235 796 229 749 q 334 892 256 890 l 397 892 l 397 0 l 452 0 l 452 944 l 336 944 q 180 804 206 944 q 175 749 175 777 l 175 647 l 90 647 l 90 595 z "},"ƒ":{"ha":518,"x_min":35,"x_max":483,"o":"m 35 -228 l 49 -176 l 88 -176 q 191 -58 190 -175 l 191 594 l 106 594 l 106 646 l 191 646 l 191 726 q 258 887 191 821 q 400 944 316 943 l 483 944 l 471 892 l 434 892 q 245 715 247 890 l 245 644 l 335 646 l 335 594 l 245 594 l 245 -41 q 163 -213 245 -176 q 77 -228 126 -228 l 35 -228 z "},"⁄":{"ha":635,"x_min":0,"x_max":635,"o":"m 0 0 l 586 949 l 635 949 l 49 0 l 0 0 z "},"g":{"ha":587,"x_min":41,"x_max":533,"o":"m 41 -245 l 56 -194 l 300 -194 q 456 -118 403 -190 q 479 -54 479 -85 l 479 73 q 395 12 453 35 q 323 -1 359 0 l 323 46 q 439 104 387 46 q 479 189 477 146 l 479 507 q 392 631 479 590 q 323 648 355 648 l 323 700 q 461 650 399 700 q 479 631 473 639 l 479 700 l 533 700 l 533 -54 q 483 -171 533 -110 q 326 -245 419 -244 l 41 -245 m 53 189 l 53 513 q 109 635 54 576 q 262 700 170 700 l 262 648 q 134 579 186 648 q 107 509 107 541 l 107 190 q 157 94 107 141 q 262 50 205 50 l 262 -1 q 79 103 140 0 q 53 189 53 149 z "},"ğ":{"ha":587,"x_min":41,"x_max":533,"o":"m 198 867 l 241 867 q 271 825 241 834 q 285 823 279 823 q 327 853 317 823 q 328 867 328 861 l 372 867 q 336 800 372 827 q 285 783 313 783 q 205 838 228 783 q 198 867 198 853 m 41 -245 l 56 -194 l 300 -194 q 456 -118 403 -190 q 479 -54 479 -85 l 479 73 q 395 12 453 35 q 323 -1 359 0 l 323 46 q 439 104 387 46 q 479 189 477 146 l 479 507 q 392 631 479 590 q 323 648 355 648 l 323 700 q 461 650 399 700 q 479 631 473 639 l 479 700 l 533 700 l 533 -54 q 483 -171 533 -110 q 326 -245 419 -244 l 41 -245 m 53 189 l 53 513 q 109 635 54 576 q 262 700 170 700 l 262 648 q 134 579 186 648 q 107 509 107 541 l 107 190 q 157 94 107 141 q 262 50 205 50 l 262 -1 q 79 103 140 0 q 53 189 53 149 z "},"ß":{"ha":708,"x_min":35,"x_max":673,"o":"m 35 0 l 35 620 q 52 791 37 739 q 307 956 102 955 q 549 745 530 956 q 551 703 551 724 l 551 551 l 481 551 q 416 515 431 552 q 414 503 414 509 q 456 437 414 463 q 530 406 484 420 q 673 208 671 355 q 576 35 673 94 q 444 0 517 0 l 270 0 l 270 52 l 406 52 q 609 146 568 52 q 621 208 621 175 q 589 315 621 285 q 524 354 571 330 q 481 372 510 361 q 378 437 403 404 q 359 503 359 465 q 452 601 359 586 q 496 602 473 604 l 496 618 q 491 770 496 742 q 363 901 473 882 q 307 905 336 905 q 90 675 90 903 l 90 0 l 35 0 z "},"`":{"ha":213,"x_min":54,"x_max":159,"o":"m 54 1027 l 109 1027 l 159 821 l 119 821 l 54 1027 z "},">":{"ha":589,"x_min":54,"x_max":534,"o":"m 54 107 l 54 161 l 472 396 l 54 624 l 54 678 l 534 418 l 534 374 l 54 107 z "},"≥":{"ha":562,"x_min":37,"x_max":521,"o":"m 41 197 l 41 251 l 458 486 l 41 713 l 41 768 l 521 507 l 521 464 l 41 197 m 37 72 l 37 123 l 521 123 l 521 72 l 37 72 z "},"«":{"ha":644,"x_min":37,"x_max":609,"o":"m 37 381 l 37 406 l 323 617 l 323 549 l 111 396 l 323 236 l 323 168 l 37 381 m 323 381 l 323 406 l 609 617 l 609 549 l 397 396 l 609 236 l 609 168 l 323 381 z "},"»":{"ha":620,"x_min":20,"x_max":593,"o":"m 20 195 l 20 250 l 259 396 l 20 534 l 20 589 l 307 419 l 307 368 l 20 195 m 307 195 l 307 250 l 545 396 l 307 534 l 307 589 l 593 419 l 593 368 l 307 195 z "},"‹":{"ha":458,"x_min":103,"x_max":349,"o":"m 103 396 l 281 678 l 349 678 l 171 396 l 349 107 l 281 107 l 103 396 z "},"›":{"ha":458,"x_min":106,"x_max":351,"o":"m 106 107 l 283 396 l 106 678 l 174 678 l 351 396 l 174 107 l 106 107 z "},"h":{"ha":604,"x_min":54,"x_max":549,"o":"m 54 1 l 54 947 l 107 947 l 107 616 q 254 692 156 685 q 275 693 266 693 l 275 642 q 148 583 205 642 q 109 495 110 540 l 109 1 l 54 1 m 336 642 l 336 693 q 518 606 458 693 q 549 507 549 560 l 549 1 l 495 1 l 495 495 q 430 617 495 576 q 336 642 389 642 z "},"˝":{"ha":357,"x_min":149,"x_max":373,"o":"m 269 821 l 319 1027 l 373 1027 l 307 821 l 269 821 m 149 821 l 199 1027 l 254 1027 l 187 821 l 149 821 z "},"-":{"ha":537,"x_min":54,"x_max":483,"o":"m 54 373 l 54 425 l 483 425 l 483 373 l 54 373 z "},"i":{"ha":189,"x_min":57,"x_max":132,"o":"m 57 791 q 84 826 57 818 q 95 827 91 827 q 130 802 122 827 q 132 791 132 796 q 106 755 132 764 q 95 754 100 754 q 58 780 66 754 q 57 791 57 787 m 68 0 l 68 700 l 122 700 l 122 0 l 68 0 z "},"í":{"ha":236,"x_min":92,"x_max":205,"o":"m 100 783 l 151 989 l 205 989 l 138 783 l 100 783 m 92 0 l 92 700 l 146 700 l 146 0 l 92 0 z "},"î":{"ha":236,"x_min":-5,"x_max":243,"o":"m -5 783 l 96 989 l 140 989 l 243 783 l 194 783 l 118 936 l 43 783 l -5 783 m 92 0 l 92 700 l 146 700 l 146 0 l 92 0 z "},"ï":{"ha":236,"x_min":14,"x_max":225,"o":"m 14 819 q 41 854 14 846 q 52 856 47 856 q 87 830 79 856 q 88 819 88 825 q 62 784 88 792 q 52 783 57 783 q 15 808 23 783 q 14 819 14 815 m 151 819 q 178 854 151 846 q 189 856 184 856 q 224 830 216 856 q 225 819 225 825 q 199 784 225 792 q 189 783 194 783 q 152 808 160 783 q 151 819 151 815 m 92 0 l 92 700 l 146 700 l 146 0 l 92 0 z "},"ì":{"ha":236,"x_min":31,"x_max":146,"o":"m 31 989 l 85 989 l 136 783 l 96 783 l 31 989 m 92 0 l 92 700 l 146 700 l 146 0 l 92 0 z "},"ī":{"ha":236,"x_min":-95,"x_max":334,"o":"m -95 783 l -95 823 l 334 823 l 334 783 l -95 783 m 92 0 l 92 700 l 146 700 l 146 0 l 92 0 z "},"∞":{"ha":1082,"x_min":41,"x_max":1048,"o":"m 319 -1 l 319 50 q 418 102 382 50 q 431 127 426 115 l 517 350 l 431 571 q 343 646 408 632 q 319 648 330 648 l 319 700 q 452 639 397 700 q 480 591 471 616 l 545 423 l 609 590 q 709 686 635 658 q 770 699 741 699 l 770 647 q 671 595 707 647 q 658 570 663 582 l 574 350 l 658 129 q 746 54 681 68 q 770 52 760 52 l 770 0 q 637 61 692 0 q 609 109 618 84 l 545 275 l 480 107 q 380 11 454 39 q 319 -1 349 -1 m 263 -1 q 72 99 138 -1 q 41 191 41 148 l 41 510 q 98 631 41 572 q 263 700 164 700 l 263 648 q 118 567 168 648 q 95 492 95 529 l 95 209 q 148 102 95 155 q 263 50 199 50 l 263 -1 m 826 -3 l 826 49 q 964 127 909 49 q 994 208 994 171 l 994 491 q 939 605 994 555 q 826 647 891 647 l 826 699 q 1016 601 949 699 q 1048 509 1048 552 l 1048 190 q 993 68 1048 127 q 826 -3 926 -3 z "},"∫":{"ha":387,"x_min":1,"x_max":382,"o":"m 1 -195 q 137 -152 91 -220 q 172 -4 172 -100 l 172 848 q 267 1061 172 1002 q 382 1078 326 1097 l 382 1042 q 267 1015 317 1065 q 216 848 216 962 l 216 -4 q 118 -218 216 -164 q 1 -232 61 -250 l 1 -195 z "},"į":{"ha":189,"x_min":57,"x_max":259,"o":"m 259 -231 q 87 -132 136 -231 q 68 -52 68 -92 l 122 -52 q 191 -164 122 -130 q 259 -179 222 -179 l 259 -231 m 57 791 q 84 826 57 818 q 95 827 91 827 q 130 802 122 827 q 132 791 132 796 q 106 755 132 764 q 95 754 100 754 q 58 780 66 754 q 57 791 57 787 m 68 0 l 68 700 l 122 700 l 122 0 l 68 0 z "},"j":{"ha":236,"x_min":-57,"x_max":182,"o":"m 115 700 l 170 700 l 170 -47 q 118 -172 170 -110 q -34 -245 57 -244 l -57 -245 l -45 -194 l -30 -194 q 85 -127 38 -190 q 115 -47 115 -88 l 115 700 m 107 791 q 134 826 107 818 q 145 827 141 827 q 180 802 172 827 q 182 791 182 796 q 156 755 182 764 q 145 754 151 754 q 109 780 117 754 q 107 791 107 787 z "},"k":{"ha":621,"x_min":54,"x_max":594,"o":"m 54 0 l 54 947 l 109 947 l 109 0 l 54 0 m 138 349 l 513 697 l 594 697 l 220 349 l 594 0 l 513 0 l 138 349 z "},"l":{"ha":168,"x_min":57,"x_max":111,"o":"m 57 0 l 57 947 l 111 947 l 111 0 l 57 0 z "},"ĺ":{"ha":168,"x_min":57,"x_max":170,"o":"m 65 1029 l 115 1236 l 170 1236 l 103 1029 l 65 1029 m 57 0 l 57 947 l 111 947 l 111 0 l 57 0 z "},"ľ":{"ha":168,"x_min":57,"x_max":296,"o":"m 193 741 l 243 947 l 296 947 l 245 741 l 193 741 m 57 0 l 57 947 l 111 947 l 111 0 l 57 0 z "},"<":{"ha":589,"x_min":54,"x_max":534,"o":"m 54 374 l 54 418 l 534 678 l 534 624 l 117 396 l 534 161 l 534 107 l 54 374 z "},"≤":{"ha":562,"x_min":22,"x_max":521,"o":"m 502 197 l 22 464 l 22 507 l 502 768 l 502 713 l 84 486 l 502 251 l 502 197 m 37 72 l 37 123 l 521 123 l 521 72 l 37 72 z "},"¬":{"ha":680,"x_min":54,"x_max":612,"o":"m 54 499 l 54 551 l 612 551 l 612 282 l 557 282 l 557 499 l 54 499 z "},"◊":{"ha":579,"x_min":-4,"x_max":567,"o":"m -4 477 l 263 958 l 307 958 l 567 477 l 300 -3 l 256 -3 l -4 477 m 50 477 l 278 60 l 513 477 l 285 895 l 50 477 z "},"ł":{"ha":575,"x_min":145,"x_max":431,"o":"m 259 0 l 313 0 l 313 490 l 431 581 l 397 624 l 313 559 l 313 947 l 259 947 l 259 518 l 145 430 l 179 387 l 259 448 l 259 0 z "},"m":{"ha":949,"x_min":52,"x_max":898,"o":"m 52 0 l 52 511 q 113 658 52 602 q 245 704 164 704 l 245 652 q 122 576 159 652 q 106 505 106 543 l 106 0 l 52 0 m 305 652 l 305 704 q 460 633 408 704 q 475 610 467 623 q 576 696 517 680 q 643 704 606 704 l 643 652 q 519 578 556 652 q 502 505 502 544 l 502 0 l 448 0 l 448 505 q 384 631 448 589 q 305 652 349 652 m 703 652 l 703 704 q 880 593 830 704 q 898 511 898 551 l 898 0 l 844 0 l 844 505 q 777 633 844 593 q 703 652 743 652 z "},"¯":{"ha":692,"x_min":54,"x_max":665,"o":"m 54 1017 l 665 1017 l 665 966 l 54 966 l 54 1017 z "},"−":{"ha":564,"x_min":54,"x_max":483,"o":"m 54 373 l 54 425 l 483 425 l 483 373 l 54 373 z "},"×":{"ha":669,"x_min":152,"x_max":745,"o":"m 191 270 l 152 311 l 407 566 l 153 821 l 193 861 l 448 606 l 705 863 l 745 822 l 488 566 l 745 308 l 705 267 l 448 526 l 191 270 z "},"n":{"ha":610,"x_min":52,"x_max":559,"o":"m 52 0 l 52 511 q 110 635 52 575 q 277 704 178 704 l 277 650 q 142 589 198 650 q 106 505 106 548 l 106 0 l 52 0 m 334 650 l 334 704 q 524 605 456 704 q 559 511 559 555 l 559 0 l 505 0 l 505 505 q 458 597 505 549 q 334 650 406 648 z "},"ń":{"ha":610,"x_min":52,"x_max":559,"o":"m 286 787 l 336 993 l 391 993 l 324 787 l 286 787 m 52 0 l 52 511 q 110 635 52 575 q 277 704 178 704 l 277 650 q 142 589 198 650 q 106 505 106 548 l 106 0 l 52 0 m 334 650 l 334 704 q 524 605 456 704 q 559 511 559 555 l 559 0 l 505 0 l 505 505 q 458 597 505 549 q 334 650 406 648 z "},"ň":{"ha":610,"x_min":52,"x_max":559,"o":"m 180 993 l 229 993 l 305 840 l 380 993 l 429 993 l 327 787 l 283 787 l 180 993 m 52 0 l 52 511 q 110 635 52 575 q 277 704 178 704 l 277 650 q 142 589 198 650 q 106 505 106 548 l 106 0 l 52 0 m 334 650 l 334 704 q 524 605 456 704 q 559 511 559 555 l 559 0 l 505 0 l 505 505 q 458 597 505 549 q 334 650 406 648 z "},"≠":{"ha":567,"x_min":68,"x_max":499,"o":"m 113 -92 l 168 -92 l 259 296 l 499 296 l 499 350 l 273 350 l 294 441 l 499 441 l 499 495 l 307 495 l 404 910 l 350 910 l 252 495 l 68 495 l 68 441 l 239 441 l 217 350 l 68 350 l 68 296 l 205 296 l 113 -92 z "},"ñ":{"ha":610,"x_min":52,"x_max":559,"o":"m 115 811 l 115 864 q 210 894 168 894 q 307 863 244 894 q 388 838 354 838 q 496 876 435 840 l 496 825 q 382 787 434 787 q 282 818 346 787 q 205 841 236 841 q 115 811 163 840 m 52 0 l 52 511 q 110 635 52 575 q 277 704 178 704 l 277 650 q 142 589 198 650 q 106 505 106 548 l 106 0 l 52 0 m 334 650 l 334 704 q 524 605 456 704 q 559 511 559 555 l 559 0 l 505 0 l 505 505 q 458 597 505 549 q 334 650 406 648 z "},"#":{"ha":1017,"x_min":54,"x_max":963,"o":"m 54 296 l 64 347 l 307 347 l 351 605 l 99 605 l 107 656 l 359 656 l 407 925 l 461 925 l 414 656 l 667 656 l 713 925 l 768 925 l 722 656 l 963 656 l 955 604 l 712 605 l 667 346 l 916 346 l 909 294 l 658 296 l 612 30 l 557 30 l 604 296 l 351 296 l 304 30 l 250 30 l 297 296 l 54 296 m 361 347 l 613 346 l 658 605 l 406 605 l 361 347 z "},"o":{"ha":597,"x_min":52,"x_max":545,"o":"m 52 191 l 52 510 q 109 631 52 572 q 274 700 175 700 l 274 648 q 129 567 179 648 q 106 492 106 529 l 106 209 q 159 102 106 155 q 274 50 210 50 l 274 -1 q 83 99 149 -1 q 52 191 52 148 m 330 -1 l 330 50 q 467 130 416 50 q 491 206 491 170 l 491 492 q 439 604 491 552 q 330 648 392 648 l 330 700 q 514 601 450 700 q 545 510 545 553 l 545 191 q 490 68 545 127 q 330 -1 426 0 z "},"ó":{"ha":597,"x_min":52,"x_max":545,"o":"m 283 783 l 334 989 l 388 989 l 321 783 l 283 783 m 52 191 l 52 510 q 109 631 52 572 q 274 700 175 700 l 274 648 q 129 567 179 648 q 106 492 106 529 l 106 209 q 159 102 106 155 q 274 50 210 50 l 274 -1 q 83 99 149 -1 q 52 191 52 148 m 330 -1 l 330 50 q 467 130 416 50 q 491 206 491 170 l 491 492 q 439 604 491 552 q 330 648 392 648 l 330 700 q 514 601 450 700 q 545 510 545 553 l 545 191 q 490 68 545 127 q 330 -1 426 0 z "},"ô":{"ha":597,"x_min":52,"x_max":545,"o":"m 178 783 l 279 989 l 323 989 l 426 783 l 377 783 l 301 936 l 227 783 l 178 783 m 52 191 l 52 510 q 109 631 52 572 q 274 700 175 700 l 274 648 q 129 567 179 648 q 106 492 106 529 l 106 209 q 159 102 106 155 q 274 50 210 50 l 274 -1 q 83 99 149 -1 q 52 191 52 148 m 330 -1 l 330 50 q 467 130 416 50 q 491 206 491 170 l 491 492 q 439 604 491 552 q 330 648 392 648 l 330 700 q 514 601 450 700 q 545 510 545 553 l 545 191 q 490 68 545 127 q 330 -1 426 0 z "},"ö":{"ha":597,"x_min":52,"x_max":545,"o":"m 197 819 q 224 854 197 846 q 235 856 231 856 q 270 830 262 856 q 271 819 271 825 q 245 784 271 792 q 235 783 240 783 q 198 808 206 783 q 197 819 197 815 m 334 819 q 361 854 334 846 q 372 856 368 856 q 407 830 399 856 q 408 819 408 825 q 382 784 408 792 q 372 783 377 783 q 335 808 343 783 q 334 819 334 815 m 52 191 l 52 510 q 109 631 52 572 q 274 700 175 700 l 274 648 q 129 567 179 648 q 106 492 106 529 l 106 209 q 159 102 106 155 q 274 50 210 50 l 274 -1 q 83 99 149 -1 q 52 191 52 148 m 330 -1 l 330 50 q 467 130 416 50 q 491 206 491 170 l 491 492 q 439 604 491 552 q 330 648 392 648 l 330 700 q 514 601 450 700 q 545 510 545 553 l 545 191 q 490 68 545 127 q 330 -1 426 0 z "},"œ":{"ha":1027,"x_min":41,"x_max":986,"o":"m 509 107 q 656 9 551 35 q 734 0 694 0 q 986 163 937 1 l 936 180 q 821 64 911 98 q 736 49 780 49 q 578 107 642 49 q 536 191 537 146 l 536 335 l 985 335 l 985 513 q 899 655 985 595 q 764 700 834 700 l 764 651 q 894 589 841 651 q 930 500 930 547 l 930 387 l 536 387 l 536 487 q 597 609 536 557 q 703 648 644 648 l 703 700 q 518 605 585 700 q 510 594 513 600 q 319 700 441 699 l 319 648 q 456 570 406 648 q 480 492 480 529 l 480 206 q 429 96 480 146 q 319 50 381 50 l 319 -1 q 505 100 439 -1 q 509 107 507 104 m 41 191 q 96 69 41 129 q 263 -1 163 -1 l 263 50 q 125 129 180 50 q 95 209 95 172 l 95 492 q 151 606 95 556 q 263 648 198 648 l 263 700 q 73 602 140 700 q 41 510 41 553 l 41 191 z "},"˛":{"ha":297,"x_min":-47,"x_max":144,"o":"m 144 -233 q -28 -134 20 -233 q -47 -54 -47 -96 l 7 -54 q 76 -167 7 -133 q 144 -182 107 -182 l 144 -233 z "},"ò":{"ha":597,"x_min":52,"x_max":545,"o":"m 214 989 l 269 989 l 319 783 l 279 783 l 214 989 m 52 191 l 52 510 q 109 631 52 572 q 274 700 175 700 l 274 648 q 129 567 179 648 q 106 492 106 529 l 106 209 q 159 102 106 155 q 274 50 210 50 l 274 -1 q 83 99 149 -1 q 52 191 52 148 m 330 -1 l 330 50 q 467 130 416 50 q 491 206 491 170 l 491 492 q 439 604 491 552 q 330 648 392 648 l 330 700 q 514 601 450 700 q 545 510 545 553 l 545 191 q 490 68 545 127 q 330 -1 426 0 z "},"ő":{"ha":597,"x_min":52,"x_max":545,"o":"m 343 783 l 393 989 l 448 989 l 381 783 l 343 783 m 224 783 l 274 989 l 328 989 l 262 783 l 224 783 m 52 191 l 52 510 q 109 631 52 572 q 274 700 175 700 l 274 648 q 129 567 179 648 q 106 492 106 529 l 106 209 q 159 102 106 155 q 274 50 210 50 l 274 -1 q 83 99 149 -1 q 52 191 52 148 m 330 -1 l 330 50 q 467 130 416 50 q 491 206 491 170 l 491 492 q 439 604 491 552 q 330 648 392 648 l 330 700 q 514 601 450 700 q 545 510 545 553 l 545 191 q 490 68 545 127 q 330 -1 426 0 z "},"ō":{"ha":597,"x_min":52,"x_max":545,"o":"m 88 783 l 88 823 l 517 823 l 517 783 l 88 783 m 52 191 l 52 510 q 109 631 52 572 q 274 700 175 700 l 274 648 q 129 567 179 648 q 106 492 106 529 l 106 209 q 159 102 106 155 q 274 50 210 50 l 274 -1 q 83 99 149 -1 q 52 191 52 148 m 330 -1 l 330 50 q 467 130 416 50 q 491 206 491 170 l 491 492 q 439 604 491 552 q 330 648 392 648 l 330 700 q 514 601 450 700 q 545 510 545 553 l 545 191 q 490 68 545 127 q 330 -1 426 0 z "},"½":{"ha":751,"x_min":0,"x_max":697,"o":"m 419 0 l 419 41 l 693 41 l 693 0 l 419 0 m 0 0 l 586 949 l 635 949 l 49 0 l 0 0 m 85 898 l 85 928 l 113 949 l 153 949 l 153 475 l 113 475 l 113 898 l 85 898 m 406 354 q 475 461 415 429 q 525 476 498 473 l 525 435 q 498 429 525 435 q 445 345 453 407 l 406 354 m 419 69 q 562 227 419 172 q 585 236 582 235 q 652 307 643 264 q 656 336 656 321 q 556 435 654 434 l 556 476 q 696 365 680 476 q 697 336 697 351 q 618 212 696 251 q 585 197 609 206 q 475 125 499 161 q 460 69 460 99 l 419 69 z "},"¼":{"ha":675,"x_min":0,"x_max":635,"o":"m 541 0 l 541 475 l 583 475 l 583 123 l 620 123 l 620 83 l 583 83 l 583 0 l 541 0 m 85 898 l 85 928 l 113 949 l 153 949 l 153 475 l 113 475 l 113 898 l 85 898 m 313 83 l 313 123 l 511 458 l 511 380 l 362 123 l 511 123 l 511 83 l 313 83 m 0 0 l 586 949 l 635 949 l 49 0 l 0 0 z "},"¹":{"ha":138,"x_min":12,"x_max":72,"o":"m 12 902 l 12 928 l 37 948 l 72 948 l 72 524 l 37 524 l 37 902 l 12 902 z "},"ª":{"ha":312,"x_min":27,"x_max":293,"o":"m 27 533 l 27 556 l 282 556 l 282 533 l 27 533 m 33 686 l 33 719 q 65 779 34 762 q 178 808 73 784 q 247 841 245 826 l 247 852 q 197 926 247 905 q 168 933 182 932 l 168 958 q 267 891 241 958 q 275 849 275 871 l 275 655 q 293 632 278 635 l 293 605 q 248 632 264 606 q 168 605 221 606 l 168 632 q 248 705 247 635 l 248 803 q 133 772 232 795 q 68 747 80 760 q 60 722 61 738 l 60 694 q 119 633 61 643 q 138 632 129 632 l 138 605 q 41 656 68 605 q 33 686 33 671 m 38 868 q 90 945 37 918 q 138 958 114 956 l 138 930 q 71 892 92 930 q 62 860 62 876 l 38 868 z "},"º":{"ha":312,"x_min":35,"x_max":277,"o":"m 35 560 l 35 586 l 277 586 l 277 560 l 35 560 m 52 724 l 52 865 q 88 929 52 902 q 151 949 115 949 l 151 926 q 80 880 100 926 q 76 857 76 868 l 76 731 q 109 675 76 700 q 151 661 129 662 l 151 639 q 60 694 87 639 q 52 724 52 711 m 175 639 l 175 661 q 240 705 220 661 q 247 730 245 719 l 247 857 q 212 916 247 892 q 175 926 194 926 l 175 949 q 263 894 237 949 q 270 865 270 879 l 270 724 q 235 658 270 686 q 175 639 208 639 z "},"ø":{"ha":570,"x_min":19,"x_max":659,"o":"m 19 92 l 94 160 q 90 191 90 176 l 90 510 q 146 631 90 572 q 312 700 213 700 l 312 648 q 167 567 217 648 q 144 492 144 529 l 144 206 l 515 548 q 410 643 481 623 q 368 648 388 648 l 368 700 q 552 604 488 700 q 560 589 556 595 l 623 644 l 659 605 l 581 533 q 583 510 583 517 l 583 191 q 528 68 583 127 q 368 -1 464 0 l 368 50 q 505 130 454 50 q 529 206 529 170 l 529 486 l 161 149 q 278 54 203 72 q 312 50 296 50 l 312 -1 q 125 95 190 -1 q 117 107 121 102 l 56 52 l 19 92 z "},"õ":{"ha":597,"x_min":52,"x_max":545,"o":"m 111 807 l 111 860 q 206 890 164 890 q 302 859 240 890 q 384 834 350 834 q 492 872 431 836 l 492 821 q 378 783 430 783 q 278 814 342 783 q 201 837 232 837 q 111 807 159 836 m 52 191 l 52 510 q 109 631 52 572 q 274 700 175 700 l 274 648 q 129 567 179 648 q 106 492 106 529 l 106 209 q 159 102 106 155 q 274 50 210 50 l 274 -1 q 83 99 149 -1 q 52 191 52 148 m 330 -1 l 330 50 q 467 130 416 50 q 491 206 491 170 l 491 492 q 439 604 491 552 q 330 648 392 648 l 330 700 q 514 601 450 700 q 545 510 545 553 l 545 191 q 490 68 545 127 q 330 -1 426 0 z "},"p":{"ha":602,"x_min":57,"x_max":553,"o":"m 182 0 l 182 52 l 332 52 q 479 125 433 52 q 499 194 499 159 l 499 505 q 445 605 499 559 q 319 648 392 648 l 172 648 l 172 700 l 319 700 q 521 602 452 700 q 553 509 553 553 l 553 189 q 492 61 553 119 q 330 0 427 0 l 182 0 m 57 -247 l 57 700 l 111 700 l 111 -247 l 57 -247 z "},"¶":{"ha":492,"x_min":47,"x_max":419,"o":"m 47 701 q 152 479 47 545 q 277 446 206 446 l 277 -7 l 317 -7 l 317 956 l 277 956 q 91 854 157 956 q 47 701 47 787 m 378 -7 l 419 -7 l 419 956 l 378 956 l 378 -7 z "},"(":{"ha":288,"x_min":54,"x_max":233,"o":"m 54 256 q 104 87 54 145 q 233 -7 145 41 l 233 24 q 130 137 157 72 q 110 255 110 189 l 110 327 l 109 708 q 183 897 109 844 q 232 925 189 899 l 232 956 q 126 895 152 917 q 54 692 54 829 l 54 256 z "},")":{"ha":298,"x_min":54,"x_max":244,"o":"m 54 -12 l 54 19 q 136 84 114 57 q 190 282 190 153 l 190 707 q 91 909 190 842 q 54 930 80 916 l 54 962 q 239 764 213 903 q 244 692 244 731 l 244 266 q 130 31 244 117 q 54 -12 96 5 z "},"∂":{"ha":570,"x_min":38,"x_max":532,"o":"m 38 191 l 38 510 q 95 631 38 572 q 260 700 161 700 l 260 648 q 115 567 165 648 q 92 492 92 529 l 92 209 q 145 102 92 155 q 260 50 197 50 l 260 -1 q 69 99 136 -1 q 38 191 38 148 m 95 930 l 95 968 q 461 856 366 968 q 532 610 532 770 l 532 191 q 476 68 532 127 q 316 -1 412 0 l 316 50 q 453 130 403 50 q 477 206 477 170 l 476 506 q 419 610 476 564 q 316 648 373 648 l 316 700 q 471 639 410 699 q 95 930 469 929 z "},"%":{"ha":400,"x_min":54,"x_max":346,"o":"m 75 795 q 99 829 75 821 q 110 830 106 830 q 144 806 136 830 q 145 795 145 799 q 121 761 145 769 q 110 760 114 760 q 76 784 84 760 q 75 795 75 791 m 54 -18 l 292 985 l 346 985 l 110 -18 l 54 -18 m 252 170 q 277 203 252 195 q 288 205 283 205 q 321 180 313 205 q 323 170 323 174 q 298 136 323 144 q 288 134 292 134 q 254 159 262 134 q 252 170 252 165 z "},".":{"ha":214,"x_min":54,"x_max":160,"o":"m 54 47 q 88 96 54 83 q 107 100 98 100 q 156 66 142 100 q 160 47 160 57 q 126 -1 160 12 q 107 -5 117 -5 q 58 28 72 -5 q 54 47 54 38 z "},"·":{"ha":206,"x_min":88,"x_max":194,"o":"m 88 444 q 122 492 88 479 q 141 496 132 496 q 190 463 176 496 q 194 444 194 453 q 160 395 194 408 q 141 391 151 391 q 92 425 106 391 q 88 444 88 434 z "},"‰":{"ha":1217,"x_min":26,"x_max":1191,"o":"m 163 477 l 163 517 q 85 587 111 519 q 68 708 68 636 l 68 747 q 133 902 69 865 q 164 911 149 911 l 164 951 q 47 856 84 947 q 26 718 26 799 q 134 483 26 517 q 163 477 149 479 m 205 477 q 324 585 289 483 q 342 718 342 639 q 245 941 342 898 q 205 951 225 949 l 205 911 q 275 860 245 911 q 301 747 300 817 l 301 708 q 222 521 301 548 q 205 517 213 517 l 205 477 m 661 0 l 661 39 q 583 110 609 42 q 566 231 566 159 l 566 270 q 631 425 567 388 q 662 434 647 434 l 662 473 q 545 378 582 469 q 524 240 524 321 q 632 5 524 39 q 661 0 647 1 m 703 0 q 822 107 787 5 q 840 240 840 161 q 743 464 840 420 q 703 473 723 472 l 703 434 q 773 382 743 434 q 799 270 798 338 l 799 231 q 720 43 799 71 q 703 39 711 39 l 703 0 m 1012 0 l 1012 39 q 935 110 960 42 q 917 231 917 159 l 917 270 q 982 425 918 388 q 1013 434 998 434 l 1013 473 q 897 378 933 469 q 875 240 875 321 q 983 5 875 39 q 1012 0 998 1 m 1054 0 q 1173 107 1138 5 q 1191 240 1191 161 q 1095 464 1191 420 q 1054 473 1074 472 l 1054 434 q 1124 382 1095 434 q 1150 270 1149 338 l 1150 231 q 1072 43 1150 71 q 1054 39 1062 39 l 1054 0 m 121 0 l 170 0 l 755 949 l 707 949 l 121 0 z "},"π":{"ha":571,"x_min":-38,"x_max":613,"o":"m -38 648 l -38 700 l 613 700 l 613 648 l 486 648 l 486 193 q 556 49 486 64 q 594 46 571 46 l 594 -5 q 431 180 433 -3 l 431 648 l 146 648 l 146 -5 l 92 -5 l 92 648 l -38 648 z "},"+":{"ha":617,"x_min":54,"x_max":563,"o":"m 54 373 l 54 425 l 279 425 l 279 675 l 334 675 l 334 425 l 563 425 l 563 373 l 334 373 l 334 118 l 279 118 l 279 373 l 54 373 z "},"±":{"ha":590,"x_min":41,"x_max":583,"o":"m 41 175 l 41 227 l 549 227 l 549 175 l 41 175 m 75 591 l 75 643 l 300 643 l 300 894 l 354 894 l 354 643 l 583 643 l 583 591 l 354 591 l 354 336 l 300 336 l 300 591 l 75 591 z "},"∏":{"ha":621,"x_min":3,"x_max":618,"o":"m 3 894 l 3 941 l 618 941 l 618 894 l 534 894 l 534 -190 l 484 -190 l 484 894 l 136 894 l 136 -190 l 85 -190 l 85 894 l 3 894 z "},"q":{"ha":594,"x_min":52,"x_max":537,"o":"m 275 0 q 83 98 146 0 q 52 189 52 144 l 52 509 q 111 639 52 581 q 275 700 175 700 l 422 700 l 422 648 l 275 648 q 125 567 171 648 q 106 505 106 534 l 106 194 q 170 80 106 123 q 273 52 214 52 l 412 52 l 412 0 l 275 0 m 483 -247 l 483 700 l 537 700 l 537 -247 l 483 -247 z "},"?":{"ha":651,"x_min":54,"x_max":597,"o":"m 54 829 q 241 948 133 928 q 309 954 274 954 q 553 826 479 954 q 597 666 594 757 q 581 566 597 612 q 538 490 564 519 q 481 439 513 461 q 420 405 450 416 q 363 386 389 393 q 321 377 338 378 l 305 374 l 305 96 l 254 96 l 254 429 q 511 543 441 431 q 545 666 545 595 q 452 857 545 792 q 309 899 392 899 q 91 791 172 898 l 54 829 m 245 5 q 270 39 245 31 q 281 41 277 41 q 315 16 307 41 q 316 5 316 9 q 292 -28 316 -20 q 281 -30 285 -30 q 247 -5 255 -30 q 245 5 245 1 z "},"¿":{"ha":604,"x_min":14,"x_max":556,"o":"m 556 104 q 369 -15 477 5 q 301 -20 336 -20 q 57 107 132 -20 q 14 267 16 176 q 30 368 14 321 q 72 443 46 414 q 129 494 98 472 q 191 528 160 517 q 247 547 221 540 q 289 556 273 555 l 305 559 l 305 837 l 357 837 l 357 505 q 99 391 170 502 q 65 267 65 338 q 159 76 65 141 q 301 34 218 34 q 519 142 438 35 l 556 104 m 365 928 q 340 894 365 902 q 330 892 334 892 q 296 917 304 892 q 294 928 294 924 q 319 962 294 954 q 330 963 326 963 q 363 939 355 963 q 365 928 365 932 z "},"\"":{"ha":289,"x_min":54,"x_max":235,"o":"m 54 631 l 54 998 l 109 998 l 109 631 l 54 631 m 180 631 l 180 998 l 235 998 l 235 631 l 180 631 z "},"„":{"ha":309,"x_min":35,"x_max":247,"o":"m 144 -31 l 194 175 l 247 175 l 197 -31 l 144 -31 m 35 -31 l 85 175 l 138 175 l 88 -31 l 35 -31 z "},"“":{"ha":289,"x_min":54,"x_max":235,"o":"m 54 631 l 54 998 l 109 998 l 109 631 l 54 631 m 180 631 l 180 998 l 235 998 l 235 631 l 180 631 z "},"”":{"ha":289,"x_min":54,"x_max":235,"o":"m 54 631 l 54 998 l 109 998 l 109 631 l 54 631 m 180 631 l 180 998 l 235 998 l 235 631 l 180 631 z "},"‘":{"ha":163,"x_min":54,"x_max":109,"o":"m 54 631 l 54 998 l 109 998 l 109 631 l 54 631 z "},"’":{"ha":163,"x_min":54,"x_max":109,"o":"m 54 631 l 54 998 l 109 998 l 109 631 l 54 631 z "},"‚":{"ha":163,"x_min":54,"x_max":109,"o":"m 54 631 l 54 998 l 109 998 l 109 631 l 54 631 z "},"'":{"ha":163,"x_min":54,"x_max":109,"o":"m 54 631 l 54 998 l 109 998 l 109 631 l 54 631 z "},"r":{"ha":316,"x_min":57,"x_max":289,"o":"m 57 0 l 57 700 l 111 700 l 111 585 q 197 675 134 642 q 288 699 240 699 l 289 699 l 275 648 q 157 567 210 648 q 111 418 111 495 l 111 0 l 57 0 z "},"ŕ":{"ha":316,"x_min":57,"x_max":289,"o":"m 144 783 l 194 989 l 248 989 l 182 783 l 144 783 m 57 0 l 57 700 l 111 700 l 111 585 q 197 675 134 642 q 288 699 240 699 l 289 699 l 275 648 q 157 567 210 648 q 111 418 111 495 l 111 0 l 57 0 z "},"√":{"ha":758,"x_min":8,"x_max":745,"o":"m 8 696 l 228 772 l 499 98 l 690 1111 l 745 1111 l 543 -3 l 479 -3 l 191 705 l 23 647 l 8 696 z "},"ř":{"ha":316,"x_min":49,"x_max":297,"o":"m 49 989 l 98 989 l 174 836 l 248 989 l 297 989 l 195 783 l 152 783 l 49 989 m 57 0 l 57 700 l 111 700 l 111 585 q 197 675 134 642 q 288 699 240 699 l 289 699 l 275 648 q 157 567 210 648 q 111 418 111 495 l 111 0 l 57 0 z "},"®":{"ha":521,"x_min":45,"x_max":476,"o":"m 225 703 l 225 728 l 251 728 q 313 773 312 730 q 251 825 313 821 q 236 825 243 825 l 225 825 l 225 850 q 330 818 307 850 q 340 773 340 799 q 312 716 339 732 q 340 670 335 707 q 340 667 340 669 l 347 586 l 320 586 l 315 652 q 273 700 311 693 q 225 703 256 703 m 250 500 q 85 590 146 506 q 45 716 45 647 q 127 886 45 821 q 250 932 182 928 l 250 899 q 109 818 159 894 q 77 716 77 770 q 152 568 77 623 q 250 533 197 537 l 250 500 m 271 500 l 271 533 q 412 614 362 538 q 444 716 444 662 q 369 864 444 810 q 271 899 324 895 l 271 932 q 435 842 374 926 q 476 716 476 787 q 393 547 476 612 q 271 500 339 505 m 180 586 l 180 850 l 209 850 l 209 586 l 180 586 z "},"˚":{"ha":331,"x_min":75,"x_max":256,"o":"m 75 713 q 123 795 75 769 q 165 804 144 804 q 247 755 221 804 q 256 713 256 735 q 208 632 256 658 q 165 623 187 623 q 84 671 110 623 q 75 713 75 692 m 122 713 q 152 671 122 681 q 165 670 160 670 q 208 700 198 670 q 209 713 209 708 q 179 755 209 746 q 165 757 171 757 q 123 727 133 757 q 122 713 122 719 z "},"s":{"ha":563,"x_min":27,"x_max":536,"o":"m 27 184 l 80 194 q 157 72 80 119 q 247 45 203 45 l 247 -7 q 66 79 134 -7 q 27 184 27 130 m 33 495 q 141 674 33 618 q 244 701 191 701 l 244 650 q 132 598 183 650 q 87 495 87 552 q 156 418 87 445 q 345 370 179 410 q 384 361 366 365 q 536 208 534 320 q 437 30 536 90 q 302 -7 377 -7 l 302 43 q 435 98 378 43 q 481 208 481 145 q 370 307 481 271 q 184 351 353 312 q 167 355 175 354 q 33 495 34 388 m 301 648 l 301 701 q 481 617 414 701 q 524 507 524 564 l 471 499 q 380 628 471 582 q 301 648 336 648 z "},"ś":{"ha":563,"x_min":27,"x_max":536,"o":"m 254 784 l 304 990 l 358 990 l 292 784 l 254 784 m 27 184 l 80 194 q 157 72 80 119 q 247 45 203 45 l 247 -7 q 66 79 134 -7 q 27 184 27 130 m 33 495 q 141 674 33 618 q 244 701 191 701 l 244 650 q 132 598 183 650 q 87 495 87 552 q 156 418 87 445 q 345 370 179 410 q 384 361 366 365 q 536 208 534 320 q 437 30 536 90 q 302 -7 377 -7 l 302 43 q 435 98 378 43 q 481 208 481 145 q 370 307 481 271 q 184 351 353 312 q 167 355 175 354 q 33 495 34 388 m 301 648 l 301 701 q 481 617 414 701 q 524 507 524 564 l 471 499 q 380 628 471 582 q 301 648 336 648 z "},"š":{"ha":563,"x_min":34,"x_max":543,"o":"m 152 990 l 201 990 l 277 837 l 351 990 l 400 990 l 298 784 l 255 784 l 152 990 m 34 184 l 87 194 q 164 72 87 119 q 254 45 210 45 l 254 -7 q 73 79 141 -7 q 34 184 34 130 m 39 495 q 148 674 39 618 q 251 701 198 701 l 251 650 q 138 598 190 650 q 94 495 94 552 q 163 418 94 445 q 351 370 186 410 q 391 361 373 365 q 543 208 541 320 q 444 30 543 90 q 309 -7 384 -7 l 309 43 q 442 98 385 43 q 488 208 488 145 q 377 307 488 271 q 191 351 359 312 q 174 355 182 354 q 39 495 41 388 m 308 648 l 308 701 q 488 617 420 701 q 530 507 530 564 l 477 499 q 387 628 477 582 q 308 648 343 648 z "},"§":{"ha":817,"x_min":73,"x_max":743,"o":"m 73 483 q 175 684 75 612 q 156 781 156 724 q 297 1006 156 945 q 415 1031 354 1031 l 548 1031 l 548 979 l 454 979 q 217 842 255 978 q 210 784 210 815 q 377 623 213 671 l 377 559 q 323 572 339 566 q 208 637 243 602 q 127 475 129 574 q 282 323 127 366 q 377 302 319 313 l 377 248 q 244 273 255 269 q 240 274 241 274 q 98 376 130 315 q 73 483 73 419 m 267 -133 l 355 -133 q 583 -30 525 -134 q 606 69 606 14 q 449 232 606 187 q 438 235 442 233 l 438 292 q 487 281 464 288 q 617 208 576 255 q 689 368 688 278 q 522 533 689 490 q 438 549 488 541 l 438 606 q 496 594 458 602 q 570 579 549 585 q 727 458 693 545 q 743 359 743 415 q 652 159 743 243 q 647 153 650 155 q 661 61 661 115 q 576 -123 661 -52 q 396 -186 503 -186 l 267 -186 l 267 -133 z "},";":{"ha":270,"x_min":68,"x_max":202,"o":"m 68 -31 l 118 175 l 171 175 l 121 -31 l 68 -31 m 132 422 q 156 456 132 448 q 167 457 163 457 q 201 433 193 457 q 202 422 202 426 q 178 388 202 396 q 167 387 171 387 q 133 411 141 387 q 132 422 132 418 z "},"අ":{"ha":734,"x_min":41,"x_max":693,"o":"m 532 -229 l 586 -229 l 586 0 l 670 0 l 670 56 l 586 56 l 586 587 q 640 713 586 669 q 693 739 665 732 l 682 791 q 553 686 593 772 q 548 674 551 680 q 350 784 484 774 q 327 785 338 785 q 136 703 206 785 q 92 618 104 665 l 145 601 q 260 719 170 689 q 330 730 294 730 q 499 654 442 730 q 532 545 532 608 l 347 545 q 80 423 157 545 q 41 270 41 358 q 190 31 41 96 q 349 0 260 0 l 457 0 l 457 54 l 349 54 q 119 171 176 54 q 98 270 98 216 q 206 464 98 408 q 334 491 260 491 l 532 491 l 532 -229 z "},"ආ":{"ha":1077,"x_min":41,"x_max":1036,"o":"m 532 -229 l 586 -229 l 586 0 l 670 0 l 670 56 l 586 56 l 586 587 q 640 713 586 669 q 693 739 665 732 l 682 791 q 553 686 593 772 q 548 674 551 680 q 350 784 484 774 q 327 785 338 785 q 136 703 206 785 q 92 618 104 665 l 145 601 q 260 719 170 689 q 330 730 294 730 q 499 654 442 730 q 532 545 532 608 l 347 545 q 80 423 157 545 q 41 270 41 358 q 190 31 41 96 q 349 0 260 0 l 457 0 l 457 54 l 349 54 q 119 171 176 54 q 98 270 98 216 q 206 464 98 408 q 334 491 260 491 l 532 491 l 532 -229 m 765 0 l 792 0 q 1025 160 987 0 q 1036 262 1036 205 l 1036 490 q 892 739 1036 696 q 792 751 848 751 l 765 751 l 765 699 l 792 699 q 947 635 903 699 q 981 490 981 582 l 981 263 q 833 54 981 71 q 792 53 815 53 l 765 53 l 765 0 z "},"ඈ":{"ha":1073,"x_min":41,"x_max":1032,"o":"m 532 -229 l 586 -229 l 586 0 l 670 0 l 670 56 l 586 56 l 586 587 q 640 713 586 669 q 693 739 665 732 l 682 791 q 553 686 593 772 q 548 674 551 680 q 350 784 484 774 q 327 785 338 785 q 136 703 206 785 q 92 618 104 665 l 145 601 q 260 719 170 689 q 330 730 294 730 q 499 654 442 730 q 532 545 532 608 l 347 545 q 80 423 157 545 q 41 270 41 358 q 190 31 41 96 q 349 0 260 0 l 457 0 l 457 54 l 349 54 q 119 171 176 54 q 98 270 98 216 q 206 464 98 408 q 334 491 260 491 l 532 491 l 532 -229 m 765 279 l 765 217 q 909 8 765 38 q 990 0 944 0 l 1032 0 l 1032 54 l 989 54 q 822 165 838 54 q 819 217 819 186 l 819 279 q 844 363 819 331 q 1032 519 884 416 l 1032 574 l 849 574 l 1032 724 l 1032 779 l 765 779 l 765 724 l 947 724 l 765 574 l 765 519 l 940 519 q 781 369 808 430 q 765 279 765 334 z "},"ඇ":{"ha":1072,"x_min":41,"x_max":1031,"o":"m 532 -229 l 586 -229 l 586 0 l 670 0 l 670 56 l 586 56 l 586 587 q 640 713 586 669 q 693 739 665 732 l 682 791 q 553 686 593 772 q 548 674 551 680 q 350 784 484 774 q 327 785 338 785 q 136 703 206 785 q 92 618 104 665 l 145 601 q 260 719 170 689 q 330 730 294 730 q 499 654 442 730 q 532 545 532 608 l 347 545 q 80 423 157 545 q 41 270 41 358 q 190 31 41 96 q 349 0 260 0 l 457 0 l 457 54 l 349 54 q 119 171 176 54 q 98 270 98 216 q 206 464 98 408 q 334 491 260 491 l 532 491 l 532 -229 m 989 0 l 1031 0 l 1031 54 l 987 54 q 818 225 823 54 q 818 248 818 236 l 818 419 q 840 536 818 498 q 1017 712 871 591 q 1031 724 1024 719 l 1031 779 l 764 779 l 764 724 l 949 724 q 796 571 826 621 q 764 419 764 517 l 764 248 q 906 12 764 57 q 989 0 945 0 z "},"ඓ":{"ha":1405,"x_min":41,"x_max":1364,"o":"m 338 711 q 519 571 500 709 l 575 585 q 498 720 564 666 q 366 765 441 765 l 282 765 q 56 605 104 765 q 41 503 41 556 l 41 269 q 146 20 41 83 q 255 -7 193 -7 l 283 -7 l 283 47 q 103 183 132 47 q 95 269 95 220 l 95 503 q 283 711 103 705 l 338 711 m 316 426 l 434 426 q 522 372 510 426 q 525 343 525 358 l 525 209 q 349 47 522 49 l 349 -7 l 377 -7 q 566 122 524 -7 q 579 213 579 164 l 579 346 q 460 479 579 469 q 434 480 448 480 l 316 480 l 316 426 m 711 541 l 764 528 q 875 594 800 589 q 989 538 952 594 q 1006 473 1006 509 l 647 473 l 647 419 l 762 419 q 705 259 705 355 q 793 62 705 137 q 985 0 869 0 l 985 54 q 785 161 841 54 q 762 259 762 208 q 821 395 762 350 q 890 419 852 419 l 1061 419 l 1061 480 q 1002 608 1059 560 q 876 650 949 650 q 731 585 779 650 q 711 541 718 564 m 1233 629 l 1233 684 q 1076 770 1118 684 q 1057 864 1057 811 l 1057 970 q 1284 837 1236 970 q 1308 675 1308 773 l 1308 327 q 1059 54 1301 58 l 1059 0 q 1356 227 1317 0 q 1364 327 1364 273 l 1364 701 q 1100 1023 1364 1001 q 1057 1024 1078 1024 l 1002 1024 l 1002 864 q 1107 658 1002 718 q 1233 629 1161 629 z "},"ඖ":{"ha":1351,"x_min":41,"x_max":1310,"o":"m 232 0 q 393 79 342 1 q 555 0 446 1 q 722 85 671 0 q 746 180 746 127 l 746 697 q 594 996 746 932 q 426 1024 526 1024 l 426 970 q 663 848 610 970 q 689 697 689 788 l 689 189 q 640 83 689 122 q 555 54 605 54 q 431 140 463 54 q 422 189 422 165 l 422 260 l 365 260 l 365 189 q 319 84 365 125 q 232 54 283 54 q 107 140 138 54 q 98 189 98 165 l 98 496 q 156 590 98 567 q 190 595 174 595 q 270 547 247 595 q 279 502 279 526 l 279 420 q 345 321 279 347 q 389 312 366 312 q 487 365 457 312 q 500 420 500 389 l 500 636 l 446 636 l 446 427 q 406 376 446 387 q 389 374 397 374 q 336 408 349 374 q 334 427 334 418 l 334 502 q 254 637 334 601 q 193 651 225 651 q 66 587 110 651 q 41 496 41 548 l 41 180 q 130 23 41 71 q 232 0 175 0 m 100 750 q 201 926 100 863 q 349 970 267 970 l 349 1024 q 134 945 227 1024 q 47 764 49 869 l 100 750 m 1081 -11 q 1265 68 1199 -11 q 1310 202 1310 123 l 1310 631 q 1237 755 1310 722 q 1181 768 1210 768 q 1070 707 1105 768 q 1053 631 1053 673 l 1053 560 q 1001 487 1053 502 q 978 483 989 483 q 910 526 928 483 q 903 560 903 543 l 903 765 l 849 765 l 849 562 q 924 435 849 468 q 978 425 949 425 q 1088 486 1051 425 q 1107 562 1107 518 l 1107 632 q 1157 705 1107 689 q 1181 709 1169 709 q 1251 663 1233 709 q 1256 632 1256 648 l 1256 201 q 1162 65 1256 103 q 1082 50 1124 50 q 933 113 985 50 q 903 201 903 152 l 903 274 l 849 274 l 849 202 q 958 19 849 77 q 1081 -11 1015 -11 z "},"බ":{"ha":795,"x_min":41,"x_max":754,"o":"m 41 240 q 160 19 41 62 q 286 0 210 0 l 286 54 q 121 121 160 54 q 96 240 96 164 l 96 385 q 172 526 96 488 q 231 540 201 540 q 342 475 304 540 q 363 385 363 435 l 363 191 q 461 18 363 69 q 557 -5 506 -5 q 715 69 658 -5 q 754 195 754 122 l 754 697 q 544 1015 754 971 q 449 1024 500 1024 l 434 1024 l 434 970 l 449 970 q 693 769 663 970 q 697 697 697 735 l 697 191 q 620 68 697 102 q 559 56 590 56 q 439 117 479 56 q 419 191 419 149 l 419 385 q 321 578 419 522 q 231 601 279 601 q 80 522 134 601 q 41 385 41 465 l 41 240 m 56 764 l 109 750 q 209 926 109 863 q 357 970 275 970 l 357 1024 q 142 945 235 1024 q 56 764 57 869 z "},"භ":{"ha":1008,"x_min":41,"x_max":967,"o":"m 452 422 l 452 490 q 576 703 452 667 q 639 711 606 711 l 639 765 q 441 666 503 764 q 308 762 406 745 q 270 765 289 765 q 125 700 172 765 q 104 656 111 680 l 157 643 q 269 709 194 704 q 382 654 346 709 q 400 589 400 624 l 41 589 l 41 534 l 168 534 q 95 339 95 471 l 95 266 q 197 35 95 110 q 347 -11 260 -11 l 347 43 q 171 152 220 43 q 149 266 149 202 l 149 339 q 260 524 149 492 q 347 534 298 534 l 399 534 q 396 488 396 505 l 396 368 l 469 368 q 595 206 594 365 q 423 43 593 45 l 423 -11 q 632 103 583 -11 q 650 197 650 145 l 650 222 q 543 407 650 363 q 452 422 502 422 m 715 -11 q 936 130 875 -11 q 967 293 967 199 l 967 461 q 848 730 967 655 q 715 765 791 765 l 715 711 q 905 551 869 711 q 913 461 913 510 l 913 293 q 793 58 913 107 q 715 43 757 43 l 715 -11 z "},"ච":{"ha":800,"x_min":41,"x_max":760,"o":"m 378 0 l 378 54 q 179 161 235 54 q 156 259 156 208 q 214 395 156 350 q 283 419 245 419 l 454 419 l 454 480 q 396 608 453 560 q 270 650 343 650 q 125 585 172 650 q 104 541 111 564 l 157 528 q 269 594 194 589 q 382 538 346 594 q 400 473 400 509 l 41 473 l 41 419 l 156 419 q 99 259 99 355 q 187 62 99 137 q 378 0 263 0 m 454 0 q 751 227 712 0 q 760 327 760 273 l 760 697 q 549 1015 760 971 q 454 1024 506 1024 l 454 970 q 701 753 678 970 q 704 697 704 726 l 704 327 q 454 54 701 56 l 454 0 m 146 750 q 236 920 146 852 q 378 970 302 970 l 378 1024 q 183 947 271 1024 q 94 764 95 867 l 146 750 z "},"ඡ":{"ha":841,"x_min":41,"x_max":803,"o":"m 381 -8 l 465 -8 q 764 98 694 -8 q 803 262 803 159 l 803 359 q 747 410 796 407 l 601 410 q 475 476 521 410 q 448 563 448 517 q 514 689 448 643 q 601 716 555 716 q 730 647 684 716 q 741 627 736 636 l 789 643 q 665 757 753 728 q 601 768 633 768 q 557 764 578 768 l 776 1050 l 723 1065 l 441 693 q 427 675 434 685 l 423 670 l 423 669 q 263 764 376 754 q 244 765 252 765 q 41 647 88 764 l 94 629 q 244 711 125 709 q 387 598 362 711 q 392 545 392 574 l 266 545 q 46 378 69 545 q 43 328 43 355 l 98 328 q 157 468 98 434 q 267 491 198 491 l 406 491 q 524 373 438 408 q 601 358 562 358 l 749 358 l 749 262 q 640 69 749 113 q 465 46 579 46 l 381 46 q 146 109 206 46 q 98 262 98 160 l 43 262 q 164 28 43 85 q 381 -8 243 -8 z "},"ද":{"ha":722,"x_min":41,"x_max":722,"o":"m 490 -277 q 308 -197 373 -277 q 262 -61 262 -141 l 316 -61 q 403 -201 316 -156 q 495 -222 446 -222 q 646 -144 597 -222 q 669 -90 662 -119 l 722 -103 q 590 -258 699 -213 q 490 -277 543 -277 m 41 270 q 190 515 41 449 q 347 545 258 545 l 532 545 q 431 708 532 661 q 330 730 384 730 q 172 656 227 730 q 145 601 153 631 l 92 618 q 228 768 121 726 q 327 785 275 785 q 533 694 461 785 q 586 528 586 627 l 586 491 l 334 491 q 118 372 171 491 q 98 270 98 326 q 210 83 98 137 q 349 54 269 54 l 401 54 q 623 195 553 54 q 625 201 624 199 l 675 187 q 458 5 620 34 q 401 0 430 0 l 349 0 q 92 104 175 0 q 41 270 41 172 z "},"ඩ":{"ha":846,"x_min":41,"x_max":806,"o":"m 292 0 q 453 79 401 1 q 614 0 506 1 q 781 85 731 0 q 806 180 806 127 l 806 697 q 636 1004 806 944 q 491 1024 574 1024 l 491 970 q 731 829 682 970 q 749 697 749 774 l 749 189 q 700 83 749 122 q 614 54 665 54 q 491 140 522 54 q 481 189 481 165 l 481 260 l 425 260 l 425 189 q 378 84 425 125 q 292 54 343 54 q 167 140 198 54 q 157 189 157 165 l 157 319 q 233 418 157 410 q 259 419 245 419 l 481 419 l 481 480 q 423 608 480 560 q 297 650 370 650 q 152 585 199 650 q 132 541 138 564 l 184 528 q 296 594 221 589 q 410 538 373 594 q 427 473 427 509 l 41 473 l 41 419 l 138 419 q 100 319 100 397 l 100 180 q 190 23 100 71 q 292 0 235 0 m 114 764 l 167 750 q 267 926 167 863 q 415 970 334 970 l 415 1024 q 201 945 293 1024 q 114 764 115 869 z "},"ඪ":{"ha":846,"x_min":41,"x_max":806,"o":"m 292 0 q 453 79 401 1 q 614 0 506 1 q 781 85 731 0 q 806 180 806 127 l 806 701 q 541 1023 806 1001 q 498 1024 519 1024 l 444 1024 l 444 864 q 548 658 444 718 q 674 629 602 629 l 674 684 q 517 770 559 684 q 498 864 498 811 l 498 970 q 726 837 677 970 q 749 675 749 773 l 749 189 q 700 83 749 122 q 614 54 665 54 q 491 140 522 54 q 481 189 481 165 l 481 260 l 425 260 l 425 189 q 378 84 425 125 q 292 54 343 54 q 167 140 198 54 q 157 189 157 165 l 157 319 q 233 418 157 410 q 259 419 245 419 l 481 419 l 481 480 q 423 608 480 560 q 297 650 370 650 q 152 585 199 650 q 132 541 138 564 l 184 528 q 296 594 221 589 q 410 538 373 594 q 427 473 427 509 l 41 473 l 41 419 l 138 419 q 100 319 100 397 l 100 180 q 190 23 100 71 q 292 0 235 0 z "},"ධ":{"ha":787,"x_min":41,"x_max":746,"o":"m 232 0 q 393 79 342 1 q 555 0 446 1 q 722 85 671 0 q 746 180 746 127 l 746 697 q 576 1004 746 944 q 431 1024 514 1024 l 431 970 q 671 829 623 970 q 689 697 689 773 l 689 189 q 640 83 689 122 q 555 54 605 54 q 431 140 463 54 q 422 189 422 165 l 422 260 l 365 260 l 365 189 q 319 84 365 125 q 232 54 283 54 q 107 140 138 54 q 98 189 98 165 l 98 408 q 165 562 98 511 q 286 597 213 597 l 339 597 l 339 651 l 286 651 q 64 524 121 651 q 41 416 41 473 l 41 180 q 130 23 41 71 q 232 0 175 0 m 54 764 l 107 750 q 208 926 107 863 q 355 970 274 970 l 355 1024 q 141 945 233 1024 q 54 764 56 869 z "},"එ":{"ha":799,"x_min":41,"x_max":758,"o":"m 104 541 l 157 528 q 269 594 194 589 q 382 538 346 594 q 400 473 400 509 l 41 473 l 41 419 l 156 419 q 99 259 99 355 q 187 62 99 137 q 378 0 263 0 l 378 54 q 179 161 235 54 q 156 259 156 208 q 214 395 156 350 q 283 419 245 419 l 454 419 l 454 480 q 396 608 453 560 q 270 650 343 650 q 125 585 172 650 q 104 541 111 564 m 627 629 l 627 684 q 469 770 511 684 q 450 864 450 811 l 450 970 q 678 837 629 970 q 701 675 701 773 l 701 327 q 453 54 694 58 l 453 0 q 750 227 711 0 q 758 327 758 273 l 758 701 q 494 1023 758 1001 q 450 1024 472 1024 l 396 1024 l 396 864 q 500 658 396 718 q 627 629 555 629 z "},"ඒ":{"ha":799,"x_min":41,"x_max":758,"o":"m 41 419 l 156 419 q 99 259 99 355 q 187 62 99 137 q 378 0 263 0 l 378 54 q 179 161 235 54 q 156 259 156 208 q 214 395 156 350 q 283 419 245 419 l 454 419 l 454 480 q 396 608 453 560 q 270 650 343 650 q 125 585 172 650 q 104 541 111 564 l 157 528 q 269 594 194 589 q 382 538 346 594 q 400 473 400 509 l 41 473 l 41 419 m 396 864 q 500 658 396 718 q 627 629 555 629 l 627 684 q 469 770 511 684 q 450 864 450 811 l 450 970 q 678 837 629 970 q 701 675 701 773 l 701 327 q 453 54 694 58 l 453 0 q 750 227 711 0 q 758 327 758 273 l 758 701 l 758 703 l 758 1111 l 701 1111 l 701 921 q 450 1024 627 1024 l 396 1024 l 396 864 z "},"ෆ":{"ha":854,"x_min":41,"x_max":814,"o":"m 41 328 l 41 575 q 130 734 41 681 q 247 765 182 765 q 418 688 359 765 q 427 674 423 681 q 586 764 477 754 q 608 765 597 765 q 777 686 719 765 q 814 575 814 637 l 814 328 l 760 328 l 760 574 q 671 701 760 670 q 608 711 642 711 q 467 635 502 711 q 454 574 454 606 l 454 328 l 400 328 l 400 574 q 311 701 400 671 q 247 711 281 711 q 109 637 144 711 q 95 574 95 609 l 95 328 l 41 328 m 41 260 l 95 260 q 175 90 95 145 q 305 54 228 54 l 305 0 q 65 138 126 0 q 41 260 41 194 m 549 0 l 549 54 q 747 182 704 54 q 760 260 760 220 l 814 260 q 709 42 814 110 q 549 0 644 0 z "},"ග":{"ha":954,"x_min":41,"x_max":913,"o":"m 293 -11 l 293 43 q 110 180 152 43 q 95 293 95 231 l 95 461 q 233 703 95 666 q 293 711 262 711 l 293 765 q 72 624 133 765 q 41 461 41 555 l 41 293 q 160 24 41 99 q 293 -11 217 -11 m 661 -11 q 882 130 821 -11 q 913 293 913 199 l 913 461 q 793 730 913 655 q 661 765 736 765 l 661 711 q 850 551 815 711 q 859 461 859 510 l 859 293 q 739 58 859 107 q 661 43 703 43 l 661 -11 m 342 368 l 415 368 q 541 206 540 365 q 369 43 538 45 l 369 -11 q 578 103 529 -11 q 595 197 595 145 l 595 222 q 507 400 595 353 q 415 422 468 422 l 397 422 l 397 490 q 522 703 397 667 q 585 711 552 711 l 585 765 q 362 616 416 765 q 342 488 342 559 l 342 368 z "},"ඝ":{"ha":918,"x_min":41,"x_max":878,"o":"m 278 0 q 450 191 449 3 q 473 225 450 221 q 491 227 481 227 q 532 193 528 216 q 704 0 534 1 q 845 73 795 0 q 878 189 878 122 l 878 260 l 823 260 l 823 189 q 755 62 823 96 q 704 50 730 50 q 591 134 609 50 q 586 193 586 160 q 536 273 586 259 q 492 277 517 277 q 400 225 412 277 q 396 191 396 210 q 316 54 396 72 q 278 50 298 50 q 176 111 209 50 q 159 189 159 145 l 159 260 l 104 260 l 104 189 q 194 22 104 72 q 278 0 233 0 m 114 647 l 167 629 q 317 711 198 709 q 456 620 425 711 q 465 563 465 593 l 465 545 l 41 545 l 41 491 l 142 491 q 104 391 104 469 l 104 327 l 159 327 l 159 391 q 235 490 159 481 q 260 491 247 491 l 722 491 q 818 435 800 491 q 823 391 823 416 l 823 327 l 878 327 l 878 391 q 831 517 878 484 q 720 545 792 545 l 519 545 l 519 563 q 590 693 519 656 q 667 711 624 711 q 818 629 788 709 l 871 647 q 667 765 822 764 q 509 699 564 765 q 492 675 499 686 q 332 765 445 757 q 317 765 324 765 q 114 647 161 764 z "},"හ":{"ha":954,"x_min":41,"x_max":913,"o":"m 397 422 l 397 490 q 400 534 397 506 l 400 537 q 553 709 418 692 q 585 711 570 711 l 585 765 q 387 666 449 764 q 254 762 351 745 q 216 765 235 765 q 71 700 118 765 q 50 656 57 680 l 103 643 q 214 709 140 704 q 328 654 292 709 q 346 589 346 624 l 292 589 q 52 435 91 589 q 41 339 41 393 l 41 266 q 142 35 41 110 q 293 -11 206 -11 l 293 43 q 117 152 165 43 q 95 266 95 202 l 95 339 q 206 524 95 492 q 293 534 244 534 l 345 534 q 342 488 342 505 l 342 368 l 415 368 q 541 206 540 365 q 369 43 538 45 l 369 -11 q 578 103 529 -11 q 595 197 595 145 l 595 222 q 488 407 595 363 q 397 422 448 422 m 661 -11 q 882 130 821 -11 q 913 293 913 199 l 913 461 q 793 730 913 655 q 661 765 736 765 l 661 711 q 850 551 815 711 q 859 461 859 510 l 859 293 q 739 58 859 107 q 661 43 703 43 l 661 -11 z "},"්":{"ha":136,"x_min":41,"x_max":95,"o":"m 41 840 l 41 1111 l 95 1111 l 95 840 l 41 840 z "},"ඉ":{"ha":753,"x_min":27,"x_max":712,"o":"m 260 0 l 384 0 q 696 208 636 0 q 712 338 712 267 l 712 511 q 587 736 712 667 q 439 772 522 772 l 418 772 l 418 718 q 613 643 548 718 q 658 511 658 591 l 658 338 q 498 75 658 136 q 384 54 445 54 l 260 54 l 260 0 m 96 -103 q 231 -254 118 -208 q 342 -277 283 -277 q 528 -203 457 -277 q 583 -61 583 -145 l 529 -61 q 438 -198 529 -152 q 336 -222 389 -222 q 184 -159 240 -222 q 149 -90 159 -127 l 96 -103 m 27 423 q 134 254 27 300 q 224 236 178 236 q 377 302 324 236 q 407 396 407 343 l 407 495 l 353 495 l 353 396 q 278 302 353 327 q 225 294 252 294 q 100 357 136 294 q 84 423 84 387 l 84 522 q 221 697 84 644 q 321 718 275 718 l 343 718 l 343 772 l 321 772 q 104 693 193 772 q 27 521 28 623 l 27 423 z "},"ඊ":{"ha":713,"x_min":41,"x_max":673,"o":"m 41 319 q 213 9 41 71 q 317 -8 262 -8 l 317 46 q 98 262 121 46 q 95 319 95 290 l 95 570 q 121 723 95 673 q 199 812 146 770 l 500 1058 l 431 1076 l 167 860 q 41 608 45 761 q 41 579 41 595 l 41 319 m 190 711 l 412 711 q 604 488 602 708 l 604 319 q 469 57 604 98 q 393 47 435 47 l 393 -7 q 627 126 570 -7 q 658 319 658 201 l 658 490 q 414 765 644 758 l 245 765 l 190 711 m 475 905 q 525 821 475 849 q 574 807 548 807 q 661 859 632 807 q 673 905 673 880 q 621 991 673 963 q 574 1004 598 1004 q 487 952 515 1004 q 475 905 475 929 m 68 1043 q 118 959 68 987 q 167 945 141 945 q 254 997 225 945 q 266 1043 266 1019 q 214 1130 266 1101 q 167 1142 191 1142 q 80 1090 109 1142 q 68 1043 68 1067 z "},"ජ":{"ha":841,"x_min":41,"x_max":800,"o":"m 42 647 l 95 629 q 245 711 126 709 q 384 620 353 711 q 393 563 393 593 l 393 545 l 263 545 q 43 378 66 545 q 41 328 41 355 l 95 328 q 155 468 95 434 q 264 491 195 491 l 571 491 q 732 420 703 491 q 746 328 746 387 l 800 328 q 686 529 800 491 q 568 545 639 545 l 448 545 l 448 563 q 518 693 448 656 q 595 711 552 711 q 746 629 716 709 l 799 647 q 595 765 750 764 q 549 761 572 765 l 769 1050 l 716 1065 l 445 707 q 420 675 429 690 q 260 765 373 757 q 245 765 252 765 q 42 647 90 764 m 378 -8 l 463 -8 q 761 98 692 -8 q 800 262 800 159 l 746 262 q 637 69 746 113 q 463 46 576 46 l 378 46 q 144 109 203 46 q 95 262 95 160 l 41 262 q 161 28 41 85 q 378 -8 240 -8 z "},"ඣ":{"ha":1496,"x_min":41,"x_max":1455,"o":"m 41 266 q 60 270 57 270 q 88 198 88 269 l 88 155 q 168 14 88 58 q 250 -7 206 -7 q 374 49 323 -5 q 518 -5 438 -5 q 659 66 614 -5 q 682 155 682 104 l 682 326 q 571 528 682 483 q 495 547 540 540 l 444 502 q 600 437 566 483 q 628 326 628 399 l 628 155 q 562 61 628 88 q 509 52 536 52 q 411 107 437 52 q 401 155 401 129 l 401 260 l 347 260 l 347 155 q 281 56 347 75 q 251 52 266 52 q 159 100 189 52 q 144 155 144 125 l 144 225 q 102 312 142 283 l 473 632 q 732 730 591 730 q 929 647 863 728 q 765 505 806 624 q 750 416 750 463 l 750 180 q 840 23 750 71 q 941 0 884 0 q 1103 79 1051 1 q 1264 0 1156 1 q 1431 85 1381 0 q 1455 180 1455 127 l 1455 697 q 1303 996 1455 932 q 1135 1024 1236 1024 l 1135 970 q 1373 848 1320 970 q 1398 697 1398 788 l 1398 189 q 1350 83 1398 122 q 1264 54 1314 54 q 1141 140 1172 54 q 1131 189 1131 165 l 1131 260 l 1074 260 l 1074 189 q 1028 84 1074 125 q 941 54 993 54 q 817 140 848 54 q 807 189 807 165 l 807 408 q 875 562 807 511 q 996 597 922 597 l 1021 597 q 812 776 967 745 q 742 783 779 783 q 434 670 579 781 l 426 663 q 307 758 393 734 q 247 766 277 766 q 66 658 129 766 q 45 613 54 636 l 98 597 q 232 707 137 697 q 245 707 239 707 q 370 646 326 707 q 382 627 377 636 l 41 334 l 41 266 m 791 872 l 844 852 q 993 963 872 940 q 1058 970 1025 970 l 1058 1024 q 842 948 922 1024 q 791 872 807 914 z "},"ඥ":{"ha":1426,"x_min":41,"x_max":1426,"o":"m 1053 0 l 1105 0 q 1324 92 1242 0 q 1379 187 1359 133 l 1329 201 q 1105 54 1256 58 l 1053 54 q 823 171 880 54 q 802 270 802 216 q 956 465 802 431 q 1038 473 994 473 l 1290 473 l 1290 510 q 939 779 1289 779 l 939 723 q 1221 602 1166 723 q 1236 528 1236 568 l 1051 528 q 760 368 814 528 q 754 347 757 357 q 605 422 705 420 l 587 422 l 587 490 q 730 701 587 646 q 856 724 787 723 l 863 724 l 863 779 l 856 779 q 579 658 662 776 q 532 488 532 589 l 532 368 l 605 368 q 731 206 730 365 q 559 43 728 45 l 559 -11 q 766 100 719 -11 q 777 133 773 117 q 1017 1 845 15 q 1053 0 1035 0 m 41 282 q 66 90 41 152 q 127 -12 87 41 l 184 9 q 99 189 109 100 q 95 282 95 220 l 95 389 q 125 601 95 536 q 323 711 178 709 l 324 711 q 231 461 231 631 l 231 293 q 350 24 231 99 q 483 -11 407 -11 l 483 43 q 300 180 342 43 q 285 293 285 231 l 285 461 q 423 703 285 666 q 483 711 452 711 l 483 765 l 359 765 q 79 629 142 765 q 41 389 41 549 l 41 282 m 1194 -277 q 1378 -198 1310 -277 q 1426 -103 1413 -156 l 1373 -90 q 1253 -216 1350 -189 q 1199 -222 1226 -222 q 1054 -159 1107 -222 q 1020 -61 1020 -117 l 966 -61 q 1074 -248 966 -191 q 1194 -277 1128 -277 z "},"ක":{"ha":1031,"x_min":41,"x_max":990,"o":"m 45 613 l 98 597 q 232 707 137 697 q 245 707 239 707 q 370 646 326 707 q 382 627 377 636 l 41 334 l 41 266 q 60 270 57 270 q 88 198 88 269 l 88 155 q 168 14 88 58 q 250 -7 206 -7 q 374 49 323 -5 q 518 -5 438 -5 q 659 66 614 -5 q 682 155 682 104 l 682 326 q 571 528 682 483 q 495 547 540 540 l 444 502 q 600 437 566 483 q 628 326 628 399 l 628 155 q 562 61 628 88 q 509 52 536 52 q 411 107 437 52 q 401 155 401 129 l 401 260 l 347 260 l 347 155 q 281 56 347 75 q 251 52 266 52 q 159 100 189 52 q 144 155 144 125 l 144 225 q 102 312 142 283 l 473 632 q 677 707 563 707 q 880 610 808 707 q 936 426 936 536 l 936 260 q 821 58 936 84 q 751 53 792 53 l 751 -1 q 966 107 920 -1 q 990 260 990 164 l 990 426 q 846 719 990 636 q 689 760 777 760 q 434 670 548 758 l 426 663 q 307 758 393 734 q 247 766 277 766 q 66 658 129 766 q 45 613 54 636 z "},"ඛ":{"ha":795,"x_min":41,"x_max":754,"o":"m 559 -5 q 716 69 661 -5 q 754 193 754 119 l 754 697 q 544 1015 754 971 q 449 1024 500 1024 l 434 1024 l 434 970 l 449 970 q 693 769 663 970 q 697 697 697 735 l 697 193 q 620 69 697 103 q 559 57 590 57 q 439 118 479 57 q 419 193 419 151 l 419 385 q 321 578 419 522 q 231 601 279 601 q 80 522 134 601 q 41 385 41 465 l 41 240 q 160 19 41 62 q 286 0 210 0 l 286 54 q 121 121 160 54 q 96 240 96 164 l 96 385 q 172 526 96 488 q 231 540 201 540 q 342 475 304 540 q 363 385 363 435 l 363 -88 l 419 -88 l 419 49 q 559 -5 475 -5 m 110 750 q 210 926 110 863 q 358 970 277 970 l 358 1024 q 144 945 236 1024 q 57 764 58 869 l 110 750 z "},"ල":{"ha":822,"x_min":41,"x_max":781,"o":"m 374 319 q 469 153 374 203 q 570 129 515 129 q 736 209 675 129 q 781 357 781 269 l 781 456 q 547 766 781 730 q 448 773 503 773 l 448 719 q 705 581 654 719 q 724 456 724 528 l 724 357 q 637 203 724 245 q 568 187 605 187 q 452 248 488 187 q 433 319 433 279 l 433 395 l 533 395 l 533 449 l 275 449 l 275 395 l 374 395 l 374 319 m 366 -229 l 366 -175 q 123 -35 184 -175 q 99 103 99 24 l 99 442 q 262 704 99 651 q 366 719 309 719 l 366 773 q 79 623 155 773 q 41 442 41 548 l 41 103 q 254 -216 41 -159 q 366 -229 305 -229 m 448 -175 l 448 -229 q 753 -42 674 -229 q 764 -15 760 -28 l 711 0 q 490 -174 652 -157 q 448 -175 469 -175 z "},"ළ":{"ha":826,"x_min":41,"x_max":799,"o":"m 146 563 l 201 576 q 309 708 203 707 q 403 647 377 708 q 414 591 414 621 l 468 591 q 532 701 468 675 q 571 708 551 708 q 677 612 669 708 q 678 593 678 602 l 732 593 q 616 760 732 734 q 567 765 593 765 q 449 712 492 765 q 441 700 445 705 q 315 765 392 760 q 157 665 193 765 q 146 593 146 632 l 146 563 m 41 104 q 217 -201 41 -125 q 384 -231 290 -231 l 384 -175 q 133 -50 202 -175 q 98 104 98 14 l 98 264 q 156 415 99 357 q 258 189 164 263 q 427 134 324 134 l 498 134 q 732 278 671 136 l 677 293 q 498 189 627 191 l 427 189 q 218 381 254 189 q 212 453 213 415 q 296 472 255 472 l 732 472 l 732 526 l 292 526 q 114 450 189 526 q 41 263 41 374 l 41 104 m 467 -176 l 467 -231 q 799 -1 750 -228 l 745 14 q 467 -176 699 -175 z "},"ම":{"ha":773,"x_min":41,"x_max":732,"o":"m 41 342 l 41 456 q 126 632 41 585 q 193 650 157 650 q 300 589 264 650 q 317 515 317 556 l 317 427 q 357 376 317 387 q 373 374 366 374 q 427 410 415 374 q 430 427 430 418 l 430 636 l 484 636 l 484 420 q 419 320 484 347 q 373 312 396 312 q 277 363 308 312 q 263 420 263 389 l 263 515 q 217 589 263 568 q 187 594 202 594 q 106 528 130 594 q 95 456 95 496 l 95 342 q 251 66 95 118 q 330 54 289 54 l 330 0 q 53 221 104 0 q 41 342 41 277 m 406 0 l 406 54 q 662 218 612 54 q 677 327 677 267 l 677 697 q 469 966 677 933 q 406 970 439 970 l 406 1024 q 726 785 682 1024 q 732 697 732 745 l 732 327 q 495 8 732 52 q 406 0 453 0 m 41 764 q 148 960 41 879 q 330 1024 235 1024 l 330 970 q 157 895 232 970 q 94 750 94 830 l 41 764 z "},"ා":{"ha":353,"x_min":41,"x_max":312,"o":"m 41 0 l 41 54 l 68 54 q 221 118 179 54 q 256 267 256 172 l 256 498 q 109 709 256 693 q 68 711 91 711 l 41 711 l 41 765 l 68 765 q 300 606 260 765 q 312 498 312 560 l 312 267 q 170 14 312 58 q 68 0 126 0 l 41 0 z "},"ෑ":{"ha":376,"x_min":68,"x_max":335,"o":"m 68 279 l 68 217 q 212 8 68 38 q 293 0 247 0 l 335 0 l 335 54 l 292 54 q 125 165 141 54 q 122 217 122 186 l 122 279 q 146 363 122 331 q 335 519 187 416 l 335 574 l 152 574 l 335 724 l 335 779 l 68 779 l 68 724 l 250 724 l 68 574 l 68 519 l 243 519 q 84 369 111 430 q 68 279 68 334 z "},"ැ":{"ha":349,"x_min":41,"x_max":308,"o":"m 266 0 l 308 0 l 308 54 l 264 54 q 95 225 100 54 q 95 248 95 236 l 95 419 q 117 536 95 498 q 294 712 148 591 q 308 724 301 719 l 308 779 l 41 779 l 41 724 l 227 724 q 73 571 103 621 q 41 419 41 517 l 41 248 q 183 12 41 57 q 266 0 222 0 z "},"ෛ":{"ha":1204,"x_min":41,"x_max":1164,"o":"m 338 711 q 519 571 500 709 l 575 585 q 498 720 564 666 q 366 765 441 765 l 282 765 q 56 605 104 765 q 41 503 41 556 l 41 269 q 146 20 41 83 q 255 -7 193 -7 l 283 -7 l 283 47 q 103 183 132 47 q 95 269 95 220 l 95 503 q 283 711 103 705 l 338 711 m 316 426 l 434 426 q 522 372 510 426 q 525 343 525 358 l 525 209 q 349 47 522 49 l 349 -7 l 377 -7 q 566 122 524 -7 q 579 213 579 164 l 579 346 q 460 479 579 469 q 434 480 448 480 l 316 480 l 316 426 m 922 715 q 1104 575 1085 713 l 1160 589 q 1082 724 1149 670 q 951 769 1025 769 l 867 769 q 640 609 689 769 q 625 507 625 560 l 625 273 q 731 24 625 87 q 840 -3 777 -3 l 868 -3 l 868 52 q 688 187 716 52 q 680 273 680 224 l 680 507 q 868 715 688 709 l 922 715 m 901 430 l 1019 430 q 1107 376 1095 430 q 1109 347 1109 362 l 1109 213 q 933 52 1107 53 l 933 -3 l 962 -3 q 1150 126 1108 -3 q 1164 217 1164 168 l 1164 350 q 1044 483 1164 473 q 1019 484 1032 484 l 901 484 l 901 430 z "},"ෞ":{"ha":1356,"x_min":41,"x_max":1316,"o":"m 338 711 q 519 571 500 709 l 575 585 q 498 720 564 666 q 366 765 441 765 l 282 765 q 56 605 104 765 q 41 503 41 556 l 41 269 q 146 20 41 83 q 255 -7 193 -7 l 283 -7 l 283 47 q 103 183 132 47 q 95 269 95 220 l 95 503 q 283 711 103 705 l 338 711 m 316 426 l 434 426 q 522 372 510 426 q 525 343 525 358 l 525 209 q 349 47 522 49 l 349 -7 l 377 -7 q 566 122 524 -7 q 579 213 579 164 l 579 346 q 460 479 579 469 q 434 480 448 480 l 316 480 l 316 426 m 1086 -11 q 1271 68 1204 -11 q 1316 202 1316 123 l 1316 631 q 1242 755 1316 722 q 1187 768 1215 768 q 1076 707 1111 768 q 1058 631 1058 673 l 1058 560 q 1006 487 1058 502 q 983 483 994 483 q 916 526 933 483 q 909 560 909 543 l 909 765 l 854 765 l 854 562 q 929 435 854 468 q 983 425 955 425 q 1093 486 1057 425 q 1112 562 1112 518 l 1112 632 q 1162 705 1112 689 q 1187 709 1175 709 q 1256 663 1238 709 q 1261 632 1261 648 l 1261 201 q 1168 65 1261 103 q 1088 50 1130 50 q 939 113 990 50 q 909 201 909 152 l 909 274 l 854 274 l 854 202 q 963 19 854 77 q 1086 -11 1020 -11 z "},"ෙ":{"ha":620,"x_min":41,"x_max":579,"o":"m 338 711 q 519 571 500 709 l 575 585 q 498 720 564 666 q 366 765 441 765 l 282 765 q 56 605 104 765 q 41 503 41 556 l 41 269 q 146 20 41 83 q 255 -7 193 -7 l 283 -7 l 283 47 q 103 183 132 47 q 95 269 95 220 l 95 503 q 283 711 103 705 l 338 711 m 316 426 l 434 426 q 522 372 510 426 q 525 343 525 358 l 525 209 q 349 47 522 49 l 349 -7 l 377 -7 q 566 122 524 -7 q 579 213 579 164 l 579 346 q 460 479 579 469 q 434 480 448 480 l 316 480 l 316 426 z "},"ේ":{"ha":949,"x_min":41,"x_max":909,"o":"m 338 711 q 519 571 500 709 l 575 585 q 498 720 564 666 q 366 765 441 765 l 282 765 q 56 605 104 765 q 41 503 41 556 l 41 269 q 146 20 41 83 q 255 -7 193 -7 l 283 -7 l 283 47 q 103 183 132 47 q 95 269 95 220 l 95 503 q 283 711 103 705 l 338 711 m 316 426 l 434 426 q 522 372 510 426 q 525 343 525 358 l 525 209 q 349 47 522 49 l 349 -7 l 377 -7 q 566 122 524 -7 q 579 213 579 164 l 579 346 q 460 479 579 469 q 434 480 448 480 l 316 480 l 316 426 m 854 840 l 909 840 l 909 1111 l 854 1111 l 854 840 z "},"ි":{"ha":0,"x_min":-792,"x_max":-83,"o":"m -792 817 l -792 854 q -697 1029 -792 968 q -553 1070 -635 1070 l -321 1070 q -126 983 -194 1070 q -83 854 -83 926 l -83 817 l -137 817 q -288 1012 -137 987 q -343 1016 -315 1016 l -532 1016 q -738 834 -731 1016 q -738 817 -738 825 l -792 817 z "},"ී":{"ha":0,"x_min":-787,"x_max":-83,"o":"m -732 817 q -557 1055 -732 1036 q -526 1057 -541 1057 l -324 1057 q -258 1051 -288 1057 q -324 970 -309 1031 q -327 941 -327 955 q -269 837 -327 872 q -205 819 -239 819 q -100 878 -136 819 q -83 941 -83 907 q -264 1109 -83 1095 q -302 1111 -283 1111 l -548 1111 q -731 1015 -658 1111 q -787 854 -787 941 l -787 817 l -732 817 z "},"ෳ":{"ha":515,"x_min":14,"x_max":475,"o":"m 245 -11 q 62 65 130 -11 q 14 202 14 122 l 14 274 l 68 274 l 68 201 q 159 68 68 109 q 247 50 201 50 q 395 117 346 50 q 420 201 420 153 l 420 632 q 369 705 420 690 q 346 709 357 709 q 278 666 296 709 q 271 632 271 650 l 271 562 q 198 437 271 471 q 142 425 171 425 q 31 486 66 425 q 14 562 14 519 l 14 765 l 68 765 l 68 560 q 118 487 68 503 q 142 483 130 483 q 212 529 194 483 q 217 560 217 544 l 217 631 q 292 757 217 724 q 346 768 317 768 q 456 707 419 768 q 475 631 475 674 l 475 202 q 366 18 475 75 q 245 -11 311 -11 z "},"ෟ":{"ha":515,"x_min":14,"x_max":475,"o":"m 245 -11 q 62 65 130 -11 q 14 202 14 122 l 14 274 l 68 274 l 68 201 q 159 68 68 109 q 247 50 201 50 q 395 117 346 50 q 420 201 420 153 l 420 632 q 369 705 420 690 q 346 709 357 709 q 278 666 296 709 q 271 632 271 650 l 271 562 q 198 437 271 471 q 142 425 171 425 q 31 486 66 425 q 14 562 14 519 l 14 765 l 68 765 l 68 560 q 118 487 68 503 q 142 483 130 483 q 212 529 194 483 q 217 560 217 544 l 217 631 q 292 757 217 724 q 346 768 317 768 q 456 707 419 768 q 475 631 475 674 l 475 202 q 366 18 475 75 q 245 -11 311 -11 z "},"ො":{"ha":1063,"x_min":41,"x_max":1023,"o":"m 338 711 q 519 571 500 709 l 575 585 q 498 720 564 666 q 366 765 441 765 l 282 765 q 56 605 104 765 q 41 503 41 556 l 41 269 q 146 20 41 83 q 255 -7 193 -7 l 283 -7 l 283 47 q 103 183 132 47 q 95 269 95 220 l 95 503 q 283 711 103 705 l 338 711 m 316 426 l 434 426 q 522 372 510 426 q 525 343 525 358 l 525 209 q 349 47 522 49 l 349 -7 l 377 -7 q 566 122 524 -7 q 579 213 579 164 l 579 346 q 460 479 579 469 q 434 480 448 480 l 316 480 l 316 426 m 751 0 l 779 0 q 1010 159 971 0 q 1023 267 1023 205 l 1023 498 q 880 751 1023 707 q 779 765 837 765 l 751 765 l 751 711 l 779 711 q 932 647 890 711 q 967 498 967 593 l 967 267 q 819 56 967 72 q 779 54 802 54 l 751 54 l 751 0 z "},"ෝ":{"ha":1063,"x_min":41,"x_max":1023,"o":"m 338 711 q 519 571 500 709 l 575 585 q 498 720 564 666 q 366 765 441 765 l 282 765 q 56 605 104 765 q 41 503 41 556 l 41 269 q 146 20 41 83 q 255 -7 193 -7 l 283 -7 l 283 47 q 103 183 132 47 q 95 269 95 220 l 95 503 q 283 711 103 705 l 338 711 m 316 426 l 434 426 q 522 372 510 426 q 525 343 525 358 l 525 209 q 349 47 522 49 l 349 -7 l 377 -7 q 566 122 524 -7 q 579 213 579 164 l 579 346 q 460 479 579 469 q 434 480 448 480 l 316 480 l 316 426 m 751 0 l 779 0 q 1010 159 971 0 q 1023 267 1023 205 l 1023 498 q 880 751 1023 707 q 779 765 837 765 l 751 765 l 751 711 l 779 711 q 932 647 890 711 q 967 498 967 593 l 967 267 q 819 56 967 72 q 779 54 802 54 l 751 54 l 751 0 m 750 840 l 804 840 l 804 1111 l 750 1111 l 750 840 z "},"ෘ":{"ha":426,"x_min":12,"x_max":384,"o":"m 198 0 q 49 76 104 0 q 12 186 12 126 q 88 335 12 279 q 198 372 138 372 l 254 372 l 254 317 l 198 317 q 88 256 127 317 q 66 186 66 224 q 127 76 66 115 q 198 54 160 54 q 308 115 269 54 q 330 186 330 148 l 330 541 q 254 704 330 673 q 214 711 235 711 l 92 711 l 92 765 l 212 765 q 384 566 374 765 q 384 541 384 553 l 384 186 q 308 37 384 92 q 198 0 258 0 z "},"ෲ":{"ha":910,"x_min":42,"x_max":868,"o":"m 228 0 q 79 76 134 0 q 42 186 42 126 q 118 335 42 279 q 228 372 168 372 l 283 372 l 283 317 l 228 317 q 118 256 157 317 q 96 186 96 224 q 157 76 96 115 q 228 54 190 54 q 338 115 298 54 q 359 186 359 148 l 359 541 q 283 704 359 673 q 244 711 264 711 l 122 711 l 122 765 l 241 765 q 414 566 404 765 q 414 541 414 553 l 414 186 q 338 37 414 92 q 228 0 288 0 m 682 0 q 533 76 589 0 q 496 186 496 126 q 572 335 496 279 q 682 372 623 372 l 738 372 l 738 317 l 682 317 q 572 256 612 317 q 551 186 551 224 q 612 76 551 115 q 682 54 644 54 q 792 115 753 54 q 814 186 814 148 l 814 541 q 738 704 814 673 q 699 711 719 711 l 576 711 l 576 765 l 696 765 q 868 566 859 765 q 868 541 868 553 l 868 186 q 792 37 868 92 q 682 0 742 0 z "},"ු":{"ha":0,"x_min":-689,"x_max":-81,"o":"m -136 180 l -136 -224 l -366 -224 l -366 -278 l -81 -278 l -81 180 l -136 180 m -689 -224 l -689 -278 l -442 -278 l -442 -224 l -689 -224 z "},"ූ":{"ha":0,"x_min":-700,"x_max":-81,"o":"m -700 -165 l -700 -222 q -598 -270 -647 -270 q -513 -243 -572 -270 q -435 -222 -468 -222 l -435 -165 q -532 -195 -469 -165 q -597 -214 -571 -214 q -700 -165 -644 -213 m -136 -278 l -81 -278 l -81 167 l -136 167 l -136 -218 q -171 -203 -153 -210 q -204 -190 -189 -195 q -235 -180 -220 -184 q -263 -174 -251 -176 q -288 -170 -275 -171 q -310 -167 -301 -168 q -328 -165 -319 -165 q -342 -165 -338 -165 q -353 -165 -347 -165 l -359 -165 l -359 -222 q -136 -278 -243 -224 z "},"ඹ":{"ha":791,"x_min":41,"x_max":750,"o":"m 251 -15 q 73 90 130 -15 q 41 227 41 149 l 41 496 q 121 635 41 594 q 193 651 155 651 q 312 586 274 651 q 334 502 334 549 l 334 427 q 373 376 334 387 q 389 374 382 374 q 444 410 431 374 q 446 427 446 418 l 446 636 l 500 636 l 500 420 q 435 320 500 347 q 389 312 412 312 q 293 363 324 312 q 279 420 279 389 l 279 502 q 221 590 279 570 q 189 595 205 595 q 106 544 129 595 q 96 496 96 522 l 96 227 q 156 79 96 136 q 251 39 198 39 q 301 73 296 39 q 302 94 302 83 q 300 126 302 102 q 316 259 285 229 q 369 277 336 277 l 422 277 q 496 159 509 277 q 492 126 495 146 q 488 94 488 102 q 518 42 488 49 q 540 39 529 39 q 671 126 625 39 q 696 227 696 174 l 696 697 q 494 964 696 929 q 423 970 460 970 l 423 1024 q 743 785 700 1024 q 750 697 750 745 l 750 227 q 661 23 750 90 q 540 -15 608 -15 q 435 79 437 -12 q 441 134 435 92 q 445 187 445 175 q 411 232 445 228 q 395 232 404 232 q 349 208 355 232 q 346 187 346 198 q 350 134 346 175 q 355 79 355 92 q 251 -15 353 -14 m 100 750 l 47 764 q 164 968 47 890 q 349 1024 250 1024 l 349 970 q 157 891 232 970 q 100 750 100 831 z "},"න":{"ha":987,"x_min":41,"x_max":947,"o":"m 708 -1 q 922 107 876 -1 q 947 260 947 164 l 947 456 q 807 723 947 642 q 642 765 732 765 q 429 690 513 765 q 418 680 422 684 q 278 764 372 750 q 247 766 263 766 q 66 658 129 766 q 45 613 54 636 l 98 597 q 232 707 137 697 q 245 707 239 707 q 370 647 326 707 q 380 632 376 639 l 267 483 q 96 349 167 359 l 96 366 l 96 467 l 41 467 l 41 347 q 180 52 41 148 q 370 -7 266 -7 q 595 85 510 -7 q 667 282 667 165 q 575 494 667 415 q 481 547 534 529 l 448 502 q 608 282 606 441 q 502 85 608 149 q 373 50 444 50 q 170 142 250 50 q 103 289 119 203 q 312 445 194 297 q 334 473 323 458 l 439 613 q 635 708 514 707 q 830 625 753 708 q 892 456 892 555 l 892 260 q 777 58 892 84 q 708 53 749 53 l 708 -1 z "},"ඳ":{"ha":911,"x_min":41,"x_max":911,"o":"m 538 0 l 591 0 q 810 92 728 0 q 865 187 845 133 l 815 201 q 591 54 742 58 l 538 54 q 309 171 366 54 q 288 270 288 216 q 396 464 288 408 q 524 491 450 491 l 776 491 l 776 528 q 651 754 776 688 q 517 785 591 785 q 326 703 396 785 q 302 669 312 686 q 258 674 282 674 q 90 583 151 674 q 41 403 41 511 l 41 283 q 66 91 41 153 q 127 -11 87 42 l 184 11 q 99 190 109 102 q 95 283 95 221 l 95 403 q 159 578 95 515 q 256 617 201 617 q 323 605 288 617 l 335 601 q 450 719 359 689 q 519 730 484 730 q 689 654 632 730 q 722 545 722 608 l 537 545 q 270 423 347 545 q 231 270 231 358 q 380 31 231 96 q 538 0 450 0 m 680 -277 q 864 -198 796 -277 q 911 -103 899 -156 l 859 -90 q 739 -216 836 -189 q 685 -222 712 -222 q 540 -159 593 -222 q 506 -61 506 -117 l 452 -61 q 560 -248 452 -191 q 680 -277 614 -277 z "},"ඦ":{"ha":1038,"x_min":41,"x_max":997,"o":"m 575 -8 l 659 -8 q 958 98 888 -8 q 997 262 997 159 l 943 262 q 834 69 943 113 q 659 46 773 46 l 575 46 q 340 109 400 46 q 292 262 292 160 l 237 262 q 358 28 237 85 q 575 -8 437 -8 m 127 -11 l 184 11 q 99 190 109 102 q 95 283 95 221 l 95 473 q 210 648 104 640 q 252 643 233 648 l 292 629 q 442 711 323 709 q 581 620 549 711 q 590 563 590 593 l 590 545 l 460 545 q 240 378 263 545 q 237 328 237 354 l 292 328 q 351 468 292 434 q 461 491 392 491 l 768 491 q 929 420 899 491 q 943 328 943 387 l 997 328 q 883 529 997 491 q 765 545 836 545 l 644 545 l 644 563 q 715 693 644 656 q 792 711 749 711 q 943 629 913 709 l 996 647 q 792 765 947 764 q 746 761 769 765 l 966 1050 l 913 1065 l 642 707 q 617 675 625 690 q 457 765 570 757 q 442 765 449 765 q 267 696 326 764 q 210 703 235 703 q 52 568 84 703 q 41 473 41 526 l 41 283 q 66 91 41 153 q 127 -11 87 42 z "},"ඞ":{"ha":787,"x_min":41,"x_max":746,"o":"m 232 0 q 393 79 342 1 q 555 0 446 1 q 722 85 671 0 q 746 180 746 127 l 746 697 q 594 996 746 932 q 426 1024 526 1024 l 426 970 q 663 848 610 970 q 689 697 689 788 l 689 189 q 640 83 689 122 q 555 54 605 54 q 431 140 463 54 q 422 189 422 165 l 422 260 l 365 260 l 365 189 q 319 84 365 125 q 232 54 283 54 q 107 140 138 54 q 98 189 98 165 l 98 309 q 134 396 98 373 q 286 420 178 420 l 350 420 q 469 492 437 420 q 481 548 481 519 q 420 655 481 621 q 350 673 389 673 l 235 673 q 72 547 73 670 l 126 547 q 193 614 126 601 q 236 618 213 618 l 355 618 q 427 570 412 618 q 430 549 430 559 q 387 481 430 500 q 351 475 370 475 l 218 475 q 41 308 45 467 l 41 180 q 130 23 41 71 q 232 0 175 0 m 47 764 l 100 750 q 201 926 100 863 q 349 970 267 970 l 349 1024 q 134 945 227 1024 q 47 764 49 869 z "},"ණ":{"ha":1306,"x_min":14,"x_max":1265,"o":"m 14 7 l 66 -7 q 190 58 96 58 q 315 26 232 58 q 431 0 382 0 q 582 60 518 0 q 651 239 651 126 l 651 519 q 552 769 650 694 l 762 1047 l 700 1063 l 499 799 q 363 822 441 822 q 141 727 224 822 q 76 540 76 651 q 174 313 76 395 q 320 260 239 260 q 385 262 342 260 q 411 262 406 262 l 411 316 l 349 316 q 140 465 182 316 q 130 540 130 503 q 184 694 130 629 q 363 768 248 768 q 571 648 515 768 q 595 519 595 593 l 595 239 q 495 71 595 114 q 430 56 463 56 q 316 87 392 56 q 190 115 245 115 q 14 7 68 113 m 922 328 l 977 328 l 977 586 q 1046 699 977 670 q 1093 708 1069 708 q 1196 650 1164 708 q 1211 586 1211 621 l 1211 328 l 1265 328 l 1265 586 q 1176 746 1265 700 q 1093 766 1137 766 q 952 693 1001 766 q 949 689 951 690 q 804 766 898 765 q 692 724 738 765 l 718 671 q 804 708 753 708 q 907 650 875 708 q 922 586 922 621 l 922 328 m 726 217 q 845 26 726 88 q 996 -9 913 -9 q 1208 72 1131 -9 q 1265 217 1265 132 l 1265 262 l 1211 262 l 1211 217 q 1107 68 1211 114 q 996 46 1055 46 q 818 115 879 46 q 780 217 780 159 l 780 262 l 726 262 l 726 217 z "},"ඬ":{"ha":987,"x_min":41,"x_max":947,"o":"m 433 0 q 594 79 543 1 q 755 0 647 1 q 922 85 872 0 q 947 180 947 127 l 947 697 q 777 1004 947 944 q 632 1024 715 1024 l 632 970 q 872 829 823 970 q 890 697 890 774 l 890 189 q 841 83 890 122 q 755 54 806 54 q 632 140 663 54 q 623 189 623 165 l 623 260 l 566 260 l 566 189 q 519 84 566 125 q 433 54 484 54 q 308 140 339 54 q 298 189 298 165 l 298 319 q 374 418 298 410 q 400 419 387 419 l 623 419 l 623 480 q 528 631 623 586 q 438 650 486 650 q 300 593 349 648 q 225 604 264 604 q 60 499 104 604 q 41 393 41 453 l 41 221 q 72 52 41 114 q 113 -11 88 20 l 170 11 q 96 179 102 91 q 95 216 95 195 l 95 393 q 170 536 95 503 q 227 547 195 547 q 273 541 252 547 l 326 528 q 437 594 362 589 q 551 538 514 594 q 568 473 568 509 l 182 473 l 182 419 l 279 419 q 241 319 241 397 l 241 180 q 331 23 241 71 q 433 0 376 0 m 255 764 l 308 750 q 408 926 308 863 q 556 970 475 970 l 556 1024 q 342 945 434 1024 q 255 764 256 869 z "},"ඟ":{"ha":1143,"x_min":41,"x_max":1103,"o":"m 483 -11 l 483 43 q 300 180 342 43 q 285 293 285 231 l 285 461 q 423 703 285 666 q 483 711 452 711 l 483 765 l 359 765 q 79 629 142 765 q 41 389 41 549 l 41 283 q 66 91 41 153 q 127 -11 87 42 l 184 11 q 99 190 109 102 q 95 283 95 221 l 95 389 q 125 601 95 536 q 323 711 178 709 l 324 711 q 231 461 231 631 l 231 293 q 350 24 231 99 q 483 -11 407 -11 m 850 -11 q 1072 130 1010 -11 q 1103 293 1103 199 l 1103 461 q 983 730 1103 655 q 850 765 926 765 l 850 711 q 1040 551 1005 711 q 1048 461 1048 510 l 1048 293 q 929 58 1048 107 q 850 43 892 43 l 850 -11 m 532 368 l 605 368 q 731 206 730 365 q 559 43 728 45 l 559 -11 q 768 103 719 -11 q 785 197 785 145 l 785 222 q 697 400 785 353 q 605 422 658 422 l 587 422 l 587 490 q 712 703 587 667 q 774 711 742 711 l 774 765 q 552 616 606 765 q 532 488 532 559 l 532 368 z "},"ඤ":{"ha":1510,"x_min":41,"x_max":1510,"o":"m 228 266 q 247 270 244 270 q 275 198 275 269 l 275 155 q 355 14 275 58 q 437 -7 393 -7 q 562 49 510 -5 q 705 -5 625 -5 q 846 68 803 -5 q 867 125 861 94 q 1120 0 941 7 q 1137 0 1128 0 l 1190 0 q 1408 92 1326 0 q 1463 187 1443 133 l 1413 201 q 1190 54 1340 58 l 1137 54 q 907 171 964 54 q 886 270 886 216 q 994 464 886 408 q 1122 491 1048 491 l 1374 491 l 1374 528 q 1171 784 1374 726 q 1023 803 1101 803 l 1023 746 q 1308 617 1256 746 q 1320 545 1320 585 l 1135 545 q 868 423 945 545 q 860 408 864 415 q 730 537 836 507 q 682 547 708 543 l 631 502 q 787 437 753 483 q 815 326 815 399 l 815 155 q 749 61 815 88 q 696 52 723 52 q 598 107 624 52 q 589 155 589 129 l 589 260 l 534 260 l 534 155 q 468 56 534 75 q 438 52 453 52 q 346 100 376 52 q 331 155 331 125 l 331 225 q 289 312 330 283 l 661 632 q 948 746 799 746 l 948 803 q 621 670 791 802 l 613 663 q 494 758 581 734 q 434 766 464 766 q 256 663 319 765 q 210 667 232 667 q 52 533 84 667 q 41 438 41 491 l 41 262 q 66 69 41 132 q 127 -33 87 20 l 184 -11 q 99 168 109 80 q 95 262 95 199 l 95 438 q 210 613 104 605 q 245 609 228 613 l 285 597 q 419 707 324 697 q 433 707 426 707 q 557 646 513 707 q 570 627 564 636 l 228 334 l 228 266 m 1278 -277 q 1462 -198 1394 -277 q 1510 -103 1497 -156 l 1457 -90 q 1337 -216 1434 -189 q 1283 -222 1310 -222 q 1138 -159 1191 -222 q 1104 -61 1104 -117 l 1050 -61 q 1158 -248 1050 -191 q 1278 -277 1213 -277 z "},"ඕ":{"ha":787,"x_min":41,"x_max":746,"o":"m 232 0 q 393 79 342 1 q 555 0 446 1 q 722 85 671 0 q 746 180 746 127 l 746 643 q 661 845 746 793 q 472 884 595 884 l 244 884 q 153 943 172 884 q 148 971 148 956 q 197 1047 148 1025 q 244 1057 218 1057 l 366 1057 l 366 1111 l 250 1111 q 114 1044 159 1111 q 91 974 91 1010 q 127 884 92 918 l 80 884 l 80 830 l 472 830 q 652 777 609 830 q 689 631 689 732 l 689 189 q 640 83 689 122 q 555 54 605 54 q 431 140 463 54 q 422 189 422 165 l 422 260 l 365 260 l 365 189 q 319 84 365 125 q 232 54 283 54 q 107 140 138 54 q 98 189 98 165 l 98 496 q 156 590 98 567 q 190 595 174 595 q 270 547 247 595 q 279 502 279 526 l 279 420 q 345 321 279 347 q 389 312 366 312 q 487 365 457 312 q 500 420 500 389 l 500 636 l 446 636 l 446 427 q 406 376 446 387 q 389 374 397 374 q 336 408 349 374 q 334 427 334 418 l 334 502 q 254 637 334 601 q 191 651 224 651 q 66 587 110 651 q 41 496 41 548 l 41 180 q 130 23 41 71 q 232 0 175 0 m 686 913 l 741 913 q 701 1059 741 1017 q 530 1111 650 1111 l 442 1111 l 442 1057 l 530 1057 q 646 1034 616 1057 q 686 913 686 1000 z "},"ඔ":{"ha":787,"x_min":41,"x_max":746,"o":"m 232 0 q 393 79 342 1 q 555 0 446 1 q 722 85 671 0 q 746 180 746 127 l 746 697 q 594 996 746 932 q 426 1024 526 1024 l 426 970 q 663 848 610 970 q 689 697 689 788 l 689 189 q 640 83 689 122 q 555 54 605 54 q 431 140 463 54 q 422 189 422 165 l 422 260 l 365 260 l 365 189 q 319 84 365 125 q 232 54 283 54 q 107 140 138 54 q 98 189 98 165 l 98 496 q 156 590 98 567 q 190 595 174 595 q 270 547 247 595 q 279 502 279 526 l 279 420 q 345 321 279 347 q 389 312 366 312 q 487 365 457 312 q 500 420 500 389 l 500 636 l 446 636 l 446 427 q 406 376 446 387 q 389 374 397 374 q 336 408 349 374 q 334 427 334 418 l 334 502 q 254 637 334 601 q 193 651 225 651 q 66 587 110 651 q 41 496 41 548 l 41 180 q 130 23 41 71 q 232 0 175 0 m 100 750 q 201 926 100 863 q 349 970 267 970 l 349 1024 q 134 945 227 1024 q 47 764 49 869 l 100 750 z "},"ප":{"ha":841,"x_min":41,"x_max":800,"o":"m 42 647 l 95 629 q 245 711 126 709 q 384 620 353 711 q 393 563 393 593 l 393 545 l 263 545 q 43 378 66 545 q 41 328 41 355 l 95 328 q 155 468 95 434 q 264 491 195 491 l 571 491 q 732 420 703 491 q 746 328 746 387 l 800 328 q 686 529 800 491 q 568 545 639 545 l 448 545 l 448 563 q 518 693 448 656 q 595 711 552 711 q 746 629 716 709 l 799 647 q 595 765 750 764 q 437 699 492 765 q 420 675 427 686 q 260 765 373 757 q 245 765 252 765 q 42 647 90 764 m 378 -8 l 463 -8 q 761 98 692 -8 q 800 262 800 159 l 746 262 q 637 69 746 113 q 463 46 576 46 l 378 46 q 144 109 203 46 q 95 262 95 160 l 41 262 q 161 28 41 85 q 378 -8 240 -8 z "},"ඵ":{"ha":743,"x_min":41,"x_max":703,"o":"m 321 0 l 321 54 q 127 145 191 54 q 95 245 95 193 q 168 393 95 358 q 355 419 225 419 l 422 419 l 422 480 q 327 631 422 586 q 237 650 285 650 q 92 585 140 650 q 72 541 79 564 l 125 528 q 236 594 161 589 q 350 538 313 594 q 368 473 368 509 q 132 434 199 473 q 91 401 109 420 q 41 245 41 346 q 133 64 41 137 q 321 0 214 0 m 340 864 q 445 658 340 718 q 571 629 499 629 l 571 684 q 414 770 456 684 q 395 864 395 811 l 395 970 q 623 837 574 970 q 646 675 646 773 l 646 327 q 397 54 639 58 l 397 0 q 694 227 655 0 q 703 327 703 273 l 703 701 q 438 1023 703 1001 q 395 1024 416 1024 l 340 1024 l 340 864 z "},"ර":{"ha":699,"x_min":41,"x_max":658,"o":"m 41 319 q 213 9 41 71 q 317 -8 262 -8 l 317 46 q 98 262 121 46 q 95 319 95 290 l 95 570 q 121 723 95 673 q 199 812 146 770 l 500 1058 l 431 1076 l 167 860 q 41 608 45 761 q 41 579 41 595 l 41 319 m 190 711 l 412 711 q 604 488 602 708 l 604 319 q 469 57 604 98 q 393 47 435 47 l 393 -7 q 627 126 570 -7 q 658 319 658 201 l 658 490 q 414 765 644 758 l 245 765 l 190 711 z "},"ස":{"ha":918,"x_min":41,"x_max":878,"o":"m 104 190 q 194 31 104 84 q 311 0 245 0 q 481 77 423 0 q 491 91 487 84 q 650 1 541 11 q 671 0 661 0 q 841 79 783 0 q 878 190 878 127 l 878 262 l 823 262 l 823 191 q 735 64 823 95 q 671 54 705 54 q 530 130 566 54 q 518 191 518 159 l 518 262 l 464 262 l 464 191 q 374 64 464 94 q 311 54 345 54 q 172 127 208 54 q 159 191 159 156 l 159 262 l 104 262 l 104 190 m 114 647 l 167 629 q 317 711 198 709 q 456 620 425 711 q 465 563 465 593 l 465 545 l 41 545 l 41 491 l 142 491 q 104 391 104 469 l 104 328 l 159 328 l 159 391 q 235 490 159 481 q 260 491 247 491 l 722 491 q 818 435 800 491 q 823 391 823 416 l 823 328 l 878 328 l 878 391 q 831 517 878 484 q 720 545 792 545 l 519 545 l 519 563 q 590 693 519 656 q 667 711 624 711 q 818 629 788 709 l 871 647 q 667 765 822 764 q 509 699 564 765 q 492 675 499 686 q 332 765 445 757 q 317 765 324 765 q 114 647 161 764 z "},"ශ":{"ha":954,"x_min":41,"x_max":913,"o":"m 661 -11 q 882 130 821 -11 q 913 293 913 199 l 913 461 q 793 730 913 655 q 661 765 736 765 l 661 711 q 850 551 815 711 q 859 461 859 510 l 859 293 q 739 58 859 107 q 661 43 703 43 l 661 -11 m 293 -11 l 293 43 q 110 180 152 43 q 95 293 95 231 l 95 461 q 233 703 95 666 q 293 711 262 711 l 293 765 q 72 624 133 765 q 41 461 41 555 l 41 293 q 160 24 41 99 q 293 -11 217 -11 m 342 368 l 415 368 q 541 206 540 365 q 369 43 538 45 l 369 -11 q 579 106 530 -11 q 594 168 590 134 l 594 168 q 595 191 595 176 q 746 317 608 305 q 780 319 764 319 l 780 373 q 583 304 643 372 q 415 422 544 420 l 397 422 l 397 490 q 522 703 397 667 q 585 711 552 711 l 585 765 q 362 616 416 765 q 342 488 342 559 l 342 368 z "},"ෂ":{"ha":841,"x_min":41,"x_max":800,"o":"m 42 647 l 95 629 q 245 711 126 709 q 384 620 353 711 q 393 563 393 593 l 393 545 l 263 545 q 43 378 66 545 q 41 328 41 355 l 95 328 q 155 468 95 434 q 264 491 195 491 l 571 491 l 581 491 q 400 324 445 444 q 382 228 382 278 l 437 228 q 544 420 437 347 q 656 481 586 449 q 742 384 730 461 q 746 328 746 361 l 800 328 q 686 529 800 491 q 568 545 639 545 l 448 545 l 448 563 q 518 693 448 656 q 595 711 552 711 q 746 629 716 709 l 799 647 q 595 765 750 764 q 437 699 492 765 q 420 675 427 686 q 260 765 373 757 q 245 765 252 765 q 42 647 90 764 m 378 -8 l 463 -8 q 761 98 692 -8 q 800 262 800 159 l 746 262 q 637 69 746 113 q 463 46 576 46 l 378 46 q 144 109 203 46 q 95 262 95 160 l 41 262 q 161 28 41 85 q 378 -8 240 -8 z "},"ත":{"ha":1031,"x_min":41,"x_max":990,"o":"m 41 266 q 58 269 53 269 q 117 217 91 269 q 129 191 121 209 q 157 132 146 152 q 384 -4 225 9 q 426 -5 404 -5 q 663 129 601 -5 q 689 256 689 186 q 628 475 689 408 q 491 547 579 526 l 441 503 q 620 380 587 472 q 635 256 635 338 q 544 79 635 133 q 426 49 494 49 q 202 163 270 49 q 170 227 189 184 q 114 311 138 296 q 104 315 109 313 l 473 632 q 677 707 563 707 q 880 610 808 707 q 936 426 936 536 l 936 260 q 821 58 936 84 q 751 53 792 53 l 751 -1 q 966 107 920 -1 q 990 260 990 164 l 990 426 q 846 719 990 636 q 689 760 777 760 q 456 686 564 758 q 317 765 410 753 q 290 766 304 766 q 110 658 172 766 q 88 613 98 636 l 141 597 q 275 707 180 697 q 289 707 282 707 q 411 650 365 705 l 41 334 l 41 266 z "},"ථ":{"ha":738,"x_min":41,"x_max":697,"o":"m 335 864 q 439 658 335 718 q 566 629 494 629 l 566 684 q 408 770 450 684 q 389 864 389 811 l 389 970 q 617 837 568 970 q 640 675 640 773 l 640 327 q 392 54 633 58 l 392 0 q 689 227 650 0 q 697 327 697 273 l 697 701 q 433 1023 697 1001 q 389 1024 411 1024 l 335 1024 l 335 864 m 41 366 l 41 271 q 117 77 41 156 q 316 0 193 0 l 316 54 q 129 152 189 54 q 96 271 96 205 l 96 366 q 195 555 96 500 q 316 583 247 583 l 316 637 q 61 481 122 637 q 41 366 41 427 z "},"ට":{"ha":747,"x_min":41,"x_max":707,"o":"m 50 366 q 144 582 50 509 q 326 637 214 637 l 326 583 q 123 464 174 583 q 106 366 106 420 l 106 271 q 193 94 106 156 q 326 54 250 54 l 326 0 q 83 137 153 0 q 50 271 50 201 l 50 366 m 401 0 l 401 54 q 651 327 650 57 l 651 697 q 441 968 651 948 q 401 970 422 970 l 401 1024 q 699 798 659 1024 q 707 697 707 751 l 707 327 q 496 9 707 53 q 401 0 453 0 m 41 764 q 146 960 41 880 q 326 1024 232 1024 l 326 970 q 155 894 227 970 q 94 750 94 830 l 41 764 z "},"ඨ":{"ha":804,"x_min":58,"x_max":764,"o":"m 250 0 q 411 79 359 1 q 572 0 464 1 q 739 85 689 0 q 764 180 764 127 l 764 701 q 499 1023 764 1001 q 456 1024 477 1024 l 401 1024 l 401 864 q 506 658 401 718 q 632 629 560 629 l 632 684 q 475 770 517 684 q 456 864 456 811 l 456 970 q 684 837 635 970 q 707 675 707 773 l 707 189 q 658 83 707 122 q 572 54 623 54 q 449 140 480 54 q 439 189 439 165 l 439 260 l 382 260 l 382 189 q 336 84 382 125 q 250 54 301 54 q 125 140 156 54 q 115 189 115 165 l 115 408 q 183 562 115 511 q 304 597 231 597 l 357 597 l 357 651 l 304 651 q 81 524 138 651 q 58 416 58 473 l 58 180 q 148 23 58 71 q 250 0 193 0 z "},"උ":{"ha":738,"x_min":41,"x_max":772,"o":"m 439 -174 q 707 -20 650 -174 q 719 20 715 0 l 772 5 q 492 -225 728 -202 q 439 -228 467 -228 l 439 -174 m 174 629 q 312 758 202 718 q 429 779 369 779 q 643 685 570 779 q 696 536 690 624 l 696 484 l 363 484 q 129 362 189 484 q 95 180 95 292 l 95 115 q 258 -145 95 -68 q 363 -175 320 -175 l 363 -229 q 151 -144 245 -229 q 41 115 41 -43 l 41 180 q 363 538 43 537 l 639 538 q 506 712 625 674 q 431 723 471 723 q 260 663 326 723 q 225 610 235 639 l 174 629 z "},"ඌ":{"ha":1265,"x_min":41,"x_max":1225,"o":"m 439 -174 q 707 -20 650 -174 q 719 20 715 0 l 772 5 q 492 -225 728 -202 q 439 -228 467 -228 l 439 -174 m 174 629 q 312 758 202 718 q 429 779 369 779 q 643 685 570 779 q 696 536 690 624 l 696 484 l 363 484 q 129 362 189 484 q 95 180 95 292 l 95 115 q 258 -145 95 -68 q 363 -175 320 -175 l 363 -229 q 151 -144 245 -229 q 41 115 41 -43 l 41 180 q 363 538 43 537 l 639 538 q 506 712 625 674 q 431 723 471 723 q 260 663 326 723 q 225 610 235 639 l 174 629 m 996 -11 q 812 65 880 -11 q 764 202 764 121 l 764 274 l 818 274 l 818 201 q 909 68 818 109 q 997 50 951 50 q 1145 117 1096 50 q 1171 201 1171 153 l 1171 632 q 1119 705 1171 690 q 1096 709 1107 709 q 1028 666 1046 709 q 1021 632 1021 650 l 1021 562 q 948 437 1021 471 q 892 425 922 425 q 781 486 817 425 q 764 562 764 519 l 764 765 l 818 765 l 818 560 q 868 487 818 503 q 892 483 880 483 q 962 529 944 483 q 967 560 967 544 l 967 631 q 1042 757 967 724 q 1096 768 1067 768 q 1206 707 1169 768 q 1225 631 1225 674 l 1225 202 q 1116 18 1225 75 q 996 -11 1061 -11 z "},"ව":{"ha":747,"x_min":41,"x_max":707,"o":"m 326 0 q 104 95 189 0 q 45 245 45 163 q 95 401 46 347 q 297 472 153 464 q 372 473 330 473 q 297 583 372 553 q 240 594 270 594 q 134 538 165 594 q 129 528 132 533 l 76 541 q 186 643 96 618 q 241 650 213 650 q 393 582 340 650 q 426 480 426 538 l 426 419 l 359 419 q 140 372 191 419 q 99 245 99 331 q 175 100 99 157 q 326 54 237 54 l 326 0 m 401 0 l 401 54 q 651 327 650 57 l 651 697 q 441 968 651 948 q 401 970 422 970 l 401 1024 q 699 798 659 1024 q 707 697 707 751 l 707 327 q 496 9 707 53 q 401 0 453 0 m 41 764 q 146 960 41 880 q 326 1024 232 1024 l 326 970 q 155 894 227 970 q 94 750 94 830 l 41 764 z "},"ය":{"ha":854,"x_min":41,"x_max":814,"o":"m 41 190 q 130 31 41 84 q 247 0 182 0 q 418 77 359 0 q 427 91 423 84 q 586 1 477 11 q 608 0 597 0 q 777 79 719 0 q 814 190 814 127 l 814 260 l 760 260 l 760 191 q 671 64 760 95 q 608 54 642 54 q 467 130 502 54 q 454 191 454 159 l 454 260 l 400 260 l 400 191 q 311 64 400 94 q 247 54 281 54 q 109 127 144 54 q 95 191 95 156 l 95 260 l 41 260 l 41 190 m 400 491 l 662 491 q 747 461 728 491 q 760 404 760 439 l 760 328 l 814 328 l 814 404 q 757 525 814 495 q 650 545 716 545 l 454 545 q 524 697 454 667 q 602 711 556 711 q 753 629 723 709 l 806 647 q 602 765 757 764 q 444 697 499 765 q 400 563 400 646 l 400 491 m 41 328 l 95 328 l 95 463 q 210 682 95 623 q 334 709 263 709 l 359 709 l 359 764 l 336 764 q 98 655 179 764 q 41 461 41 578 l 41 328 z "},"෴":{"ha":1987,"x_min":203,"x_max":1865,"o":"m 831 614 l 882 589 q 671 191 713 259 q 515 27 593 65 q 366 0 457 0 l 203 0 l 203 54 l 366 54 q 529 103 471 54 q 699 351 594 156 q 831 614 735 423 m 991 618 l 1042 593 l 750 0 l 699 27 l 991 618 m 1086 490 l 1137 464 l 907 0 l 856 27 l 1086 490 m 1067 0 l 1017 28 l 1183 366 q 1267 300 1211 345 q 1538 107 1447 155 q 1731 54 1643 54 l 1865 54 l 1865 0 l 1728 0 q 1375 140 1569 0 q 1202 277 1333 171 l 1067 0 z "},"ඏ":{"ha":1199,"x_min":41,"x_max":1158,"o":"m 557 -8 l 642 -8 q 924 76 849 -7 q 989 -3 933 18 q 1024 -8 1005 -8 q 1114 45 1085 -8 q 1115 47 1115 46 q 1158 274 1158 129 l 1104 274 q 1093 170 1104 224 q 1024 195 1062 195 q 972 182 997 195 q 979 262 979 224 l 925 262 q 817 69 925 113 q 642 46 755 46 l 557 46 q 323 109 382 46 q 274 262 274 160 l 220 262 q 227 182 220 221 q 175 195 202 195 q 106 170 136 194 q 95 274 95 224 l 41 274 q 83 50 41 133 q 175 -8 115 -4 q 266 46 239 -8 q 275 76 273 61 q 557 -8 351 -8 m 220 328 l 274 328 q 334 468 274 434 q 444 491 374 491 l 750 491 q 911 420 882 491 q 925 328 925 387 l 979 328 q 865 529 979 491 q 747 545 818 545 l 627 545 l 627 563 q 697 693 627 656 q 774 711 731 711 q 925 629 895 709 l 958 640 q 1001 647 981 647 q 1100 552 1084 647 q 1104 506 1104 530 l 1104 340 l 1158 340 l 1158 503 q 1066 690 1158 648 q 1004 703 1038 703 q 949 694 977 703 q 774 765 892 765 q 616 699 671 765 q 600 675 606 686 q 439 765 552 757 q 425 765 431 765 q 250 694 305 764 q 195 703 221 703 q 56 601 92 703 q 41 503 41 557 l 41 340 l 95 340 l 95 506 q 182 646 95 633 q 198 647 191 647 q 241 640 220 647 l 274 629 q 425 711 305 709 q 563 620 532 711 q 572 563 572 593 l 572 545 l 442 545 q 222 378 245 545 q 220 328 220 354 z "},"ඐ":{"ha":1739,"x_min":41,"x_max":1698,"o":"m 41 274 q 83 50 41 133 q 175 -8 115 -4 q 266 46 239 -8 q 275 76 273 61 q 557 -8 351 -8 l 642 -8 q 924 76 849 -7 q 989 -3 933 18 q 1024 -8 1005 -8 q 1114 45 1085 -8 q 1115 47 1115 46 q 1158 274 1158 129 l 1104 274 q 1093 170 1104 224 q 1024 195 1062 195 q 972 182 997 195 q 979 262 979 224 l 925 262 q 817 69 925 113 q 642 46 755 46 l 557 46 q 323 109 382 46 q 274 262 274 160 l 220 262 q 227 182 220 221 q 175 195 202 195 q 106 170 136 194 q 95 274 95 224 l 41 274 m 220 328 l 274 328 q 334 468 274 434 q 444 491 374 491 l 750 491 q 911 420 882 491 q 925 328 925 387 l 979 328 q 865 529 979 491 q 747 545 818 545 l 627 545 l 627 563 q 697 693 627 656 q 774 711 731 711 q 925 629 895 709 l 958 640 q 1001 647 981 647 q 1100 552 1084 647 q 1104 506 1104 530 l 1104 340 l 1158 340 l 1158 503 q 1066 690 1158 648 q 1004 703 1038 703 q 949 694 977 703 q 774 765 892 765 q 616 699 671 765 q 600 675 606 686 q 439 765 552 757 q 425 765 431 765 q 250 694 305 764 q 195 703 221 703 q 56 601 92 703 q 41 503 41 557 l 41 340 l 95 340 l 95 506 q 182 646 95 633 q 198 647 191 647 q 241 640 220 647 l 274 629 q 425 711 305 709 q 563 620 532 711 q 572 563 572 593 l 572 545 l 442 545 q 222 378 245 545 q 220 328 220 354 m 1469 -11 q 1653 68 1587 -11 q 1698 202 1698 123 l 1698 631 q 1625 755 1698 722 q 1569 768 1599 768 q 1458 707 1493 768 q 1440 631 1440 673 l 1440 560 q 1389 487 1440 502 q 1366 483 1377 483 q 1298 526 1316 483 q 1291 560 1291 543 l 1291 765 l 1237 765 l 1237 562 q 1312 435 1237 468 q 1366 425 1337 425 q 1476 486 1439 425 q 1495 562 1495 518 l 1495 632 q 1545 705 1495 689 q 1569 709 1557 709 q 1638 663 1621 709 q 1644 632 1644 648 l 1644 201 q 1550 65 1644 103 q 1470 50 1512 50 q 1321 113 1373 50 q 1291 201 1291 152 l 1291 274 l 1237 274 l 1237 202 q 1345 19 1237 77 q 1469 -11 1402 -11 z "},"ඍ":{"ha":1309,"x_min":41,"x_max":1267,"o":"m 1081 0 q 1230 76 1175 0 q 1267 186 1267 126 l 1267 541 q 1095 765 1253 757 l 975 765 l 975 711 l 1097 711 q 1203 616 1177 711 q 1213 541 1213 582 l 1213 186 q 1152 76 1213 115 q 1081 54 1119 54 q 971 115 1010 54 q 949 186 949 148 q 1010 296 949 256 q 1081 317 1043 317 l 1137 317 l 1137 372 l 1081 372 q 932 296 987 372 q 895 186 895 245 q 971 37 895 92 q 1081 0 1021 0 m 41 190 q 130 31 41 84 q 247 0 182 0 q 418 77 359 0 q 427 91 423 84 q 586 1 477 11 q 608 0 597 0 q 777 79 719 0 q 814 190 814 127 l 814 260 l 760 260 l 760 191 q 671 64 760 95 q 608 54 642 54 q 467 130 502 54 q 454 191 454 159 l 454 260 l 400 260 l 400 191 q 311 64 400 94 q 247 54 281 54 q 109 127 144 54 q 95 191 95 156 l 95 260 l 41 260 l 41 190 m 49 647 l 102 629 q 252 711 133 709 q 391 620 359 711 q 400 563 400 593 l 400 545 l 198 545 q 43 439 60 545 q 41 391 41 419 l 41 327 l 95 327 l 95 391 q 171 490 95 481 q 197 491 183 491 l 658 491 q 754 435 736 491 q 760 391 760 416 l 760 327 l 814 327 l 814 391 q 768 517 814 484 q 656 545 728 545 l 454 545 l 454 563 q 525 693 454 656 q 602 711 559 711 q 753 629 723 709 l 806 647 q 602 765 757 764 q 444 699 499 765 q 427 675 434 686 q 267 765 380 757 q 252 765 259 765 q 49 647 96 764 z "},"ඎ":{"ha":1762,"x_min":41,"x_max":1720,"o":"m 41 190 q 130 31 41 84 q 247 0 182 0 q 418 77 359 0 q 427 91 423 84 q 586 1 477 11 q 608 0 597 0 q 777 79 719 0 q 814 190 814 127 l 814 260 l 760 260 l 760 191 q 671 64 760 95 q 608 54 642 54 q 467 130 502 54 q 454 191 454 159 l 454 260 l 400 260 l 400 191 q 311 64 400 94 q 247 54 281 54 q 109 127 144 54 q 95 191 95 156 l 95 260 l 41 260 l 41 190 m 49 647 l 102 629 q 252 711 133 709 q 391 620 359 711 q 400 563 400 593 l 400 545 l 198 545 q 43 439 60 545 q 41 391 41 419 l 41 327 l 95 327 l 95 391 q 171 490 95 481 q 197 491 183 491 l 658 491 q 754 435 736 491 q 760 391 760 416 l 760 327 l 814 327 l 814 391 q 768 517 814 484 q 656 545 728 545 l 454 545 l 454 563 q 525 693 454 656 q 602 711 559 711 q 753 629 723 709 l 806 647 q 602 765 757 764 q 444 699 499 765 q 427 675 434 686 q 267 765 380 757 q 252 765 259 765 q 49 647 96 764 m 1081 0 q 1230 76 1175 0 q 1267 186 1267 126 l 1267 541 q 1095 765 1253 757 l 975 765 l 975 711 l 1097 711 q 1203 616 1177 711 q 1213 541 1213 582 l 1213 186 q 1152 76 1213 115 q 1081 54 1119 54 q 971 115 1010 54 q 949 186 949 148 q 1010 296 949 256 q 1081 317 1043 317 l 1137 317 l 1137 372 l 1081 372 q 932 296 987 372 q 895 186 895 245 q 971 37 895 92 q 1081 0 1021 0 m 1534 0 q 1683 76 1628 0 q 1720 186 1720 126 l 1720 541 q 1548 765 1706 757 l 1428 765 l 1428 711 l 1550 711 q 1656 616 1630 711 q 1666 541 1666 582 l 1666 186 q 1605 76 1666 115 q 1534 54 1572 54 q 1424 115 1463 54 q 1402 186 1402 148 q 1463 296 1402 256 q 1534 317 1496 317 l 1590 317 l 1590 372 l 1534 372 q 1385 296 1440 372 q 1348 186 1348 245 q 1424 37 1348 92 q 1534 0 1474 0 z "},"/":{"ha":400,"x_min":54,"x_max":346,"o":"m 54 -18 l 292 985 l 346 985 l 110 -18 l 54 -18 z "}," ":{"ha":326,"x_min":0,"x_max":0,"o":""},"£":{"ha":505,"x_min":27,"x_max":477,"o":"m 27 437 l 27 488 l 111 488 l 111 750 q 184 917 111 859 q 300 955 233 955 l 302 955 q 381 940 346 955 q 475 853 444 916 l 427 830 q 308 901 378 899 q 184 831 224 901 q 165 754 165 798 l 165 491 l 363 491 l 363 439 l 165 439 l 165 52 l 477 52 l 477 0 l 111 0 l 111 437 l 27 437 z "},"∑":{"ha":757,"x_min":41,"x_max":716,"o":"m 187 899 l 152 941 l 152 954 l 716 954 l 716 899 l 187 899 m 41 -190 l 41 -136 l 434 391 l 41 899 l 41 954 l 68 954 l 503 389 l 109 -137 l 716 -136 l 716 -190 l 41 -190 z "},"t":{"ha":342,"x_min":27,"x_max":342,"o":"m 27 631 l 27 684 l 113 684 l 113 949 l 167 949 l 167 684 l 252 684 l 252 631 l 167 631 l 167 216 q 241 65 167 96 q 328 52 277 52 l 330 52 l 342 0 l 321 0 q 125 125 159 1 q 113 228 113 167 l 113 631 l 27 631 z "},"ť":{"ha":342,"x_min":27,"x_max":346,"o":"m 243 743 l 293 949 l 346 949 l 296 743 l 243 743 m 27 631 l 27 684 l 113 684 l 113 949 l 167 949 l 167 684 l 252 684 l 252 631 l 167 631 l 167 216 q 241 65 167 96 q 328 52 277 52 l 330 52 l 342 0 l 321 0 q 125 125 159 1 q 113 228 113 167 l 113 631 l 27 631 z "},"þ":{"ha":572,"x_min":41,"x_max":537,"o":"m 41 -247 l 41 949 l 95 949 l 95 -247 l 41 -247 m 156 648 l 156 700 l 309 700 q 500 608 431 700 q 537 509 537 556 l 537 189 q 476 61 537 118 q 315 0 412 0 l 165 0 l 165 52 l 317 52 q 456 118 410 52 q 483 214 483 160 l 483 494 q 400 628 483 587 q 309 648 359 648 l 156 648 z "},"¾":{"ha":846,"x_min":54,"x_max":806,"o":"m 210 468 l 210 509 q 302 583 293 509 q 304 601 304 593 q 251 684 304 663 q 208 690 231 690 l 194 690 l 194 727 l 208 727 q 302 800 290 727 q 304 817 304 808 q 231 907 304 897 q 210 909 221 909 l 210 949 q 334 875 302 949 q 345 818 345 848 q 290 709 343 745 q 345 600 345 671 q 278 483 345 517 q 210 468 248 468 m 712 0 l 712 475 l 754 475 l 754 123 l 791 123 l 791 83 l 754 83 l 754 0 l 712 0 m 484 83 l 484 123 l 682 458 l 682 380 l 533 123 l 682 123 l 682 83 l 484 83 m 54 590 l 94 600 q 164 510 103 522 q 174 509 174 509 l 174 468 q 65 547 96 475 q 54 590 57 568 m 54 827 q 119 933 61 898 q 174 949 145 947 l 174 909 q 146 902 174 909 q 94 818 102 880 l 54 827 m 171 0 l 757 949 l 806 949 l 220 0 l 171 0 z "},"³":{"ha":305,"x_min":27,"x_max":278,"o":"m 159 525 l 159 560 q 231 601 208 560 q 241 643 241 620 q 201 709 241 688 q 156 720 180 720 l 156 754 q 236 806 216 754 q 241 833 241 821 q 184 910 241 894 q 159 914 171 914 l 159 949 q 266 887 235 949 q 278 834 278 861 q 232 736 277 769 q 278 642 278 705 q 222 541 278 575 q 159 525 193 525 m 27 628 l 61 635 q 83 584 66 602 q 114 563 99 566 l 127 560 l 127 525 q 35 597 61 530 q 27 628 28 613 m 27 846 q 91 940 35 914 q 127 949 109 948 l 127 914 q 104 907 127 914 q 61 840 69 887 l 27 846 z "},"˜":{"ha":452,"x_min":35,"x_max":416,"o":"m 35 184 l 35 237 q 130 267 88 267 q 227 236 164 267 q 308 212 274 212 q 416 250 355 213 l 416 198 q 302 160 354 160 q 202 191 266 160 q 125 214 156 214 q 35 184 83 213 z "},"™":{"ha":628,"x_min":35,"x_max":511,"o":"m 35 921 l 35 948 l 214 948 l 214 921 l 140 921 l 140 658 l 110 658 l 110 921 l 35 921 m 244 658 l 244 873 l 251 873 l 274 819 l 274 658 l 244 658 m 245 939 l 245 948 l 274 948 l 370 715 l 454 899 l 464 899 l 464 853 l 378 658 l 362 658 l 245 939 m 481 658 l 481 948 l 511 948 l 511 658 l 481 658 z "},"²":{"ha":313,"x_min":28,"x_max":286,"o":"m 28 846 q 90 936 35 906 q 136 949 111 947 l 136 914 q 110 907 136 914 q 62 840 71 887 l 28 846 m 34 525 l 34 560 l 278 560 l 278 525 l 34 525 m 34 586 q 165 736 34 678 q 182 745 179 743 q 250 822 244 779 q 251 833 251 827 q 208 905 251 883 q 163 914 187 914 l 163 949 q 281 869 259 949 q 286 831 286 850 q 201 712 285 757 q 127 675 132 678 q 75 586 76 639 l 34 586 z "},"u":{"ha":610,"x_min":52,"x_max":559,"o":"m 52 186 l 52 697 l 106 697 l 106 193 q 164 88 106 137 q 277 47 216 47 l 277 -7 q 83 94 149 -7 q 52 186 52 141 m 334 -7 l 334 47 q 475 117 422 47 q 505 193 505 155 l 505 697 l 559 697 l 559 186 q 503 65 559 125 q 334 -7 435 -5 z "},"ú":{"ha":610,"x_min":52,"x_max":559,"o":"m 286 783 l 336 989 l 391 989 l 324 783 l 286 783 m 52 186 l 52 697 l 106 697 l 106 193 q 164 88 106 137 q 277 47 216 47 l 277 -7 q 83 94 149 -7 q 52 186 52 141 m 334 -7 l 334 47 q 475 117 422 47 q 505 193 505 155 l 505 697 l 559 697 l 559 186 q 503 65 559 125 q 334 -7 435 -5 z "},"û":{"ha":610,"x_min":52,"x_max":559,"o":"m 182 783 l 283 989 l 327 989 l 430 783 l 381 783 l 305 936 l 231 783 l 182 783 m 52 186 l 52 697 l 106 697 l 106 193 q 164 88 106 137 q 277 47 216 47 l 277 -7 q 83 94 149 -7 q 52 186 52 141 m 334 -7 l 334 47 q 475 117 422 47 q 505 193 505 155 l 505 697 l 559 697 l 559 186 q 503 65 559 125 q 334 -7 435 -5 z "},"ü":{"ha":610,"x_min":52,"x_max":559,"o":"m 199 819 q 227 854 199 846 q 237 856 233 856 q 273 830 264 856 q 274 819 274 825 q 248 784 274 792 q 237 783 243 783 q 201 808 209 783 q 199 819 199 815 m 336 819 q 363 854 336 846 q 374 856 370 856 q 410 830 401 856 q 411 819 411 825 q 385 784 411 792 q 374 783 380 783 q 338 808 346 783 q 336 819 336 815 m 52 186 l 52 697 l 106 697 l 106 193 q 164 88 106 137 q 277 47 216 47 l 277 -7 q 83 94 149 -7 q 52 186 52 141 m 334 -7 l 334 47 q 475 117 422 47 q 505 193 505 155 l 505 697 l 559 697 l 559 186 q 503 65 559 125 q 334 -7 435 -5 z "},"ù":{"ha":610,"x_min":52,"x_max":559,"o":"m 218 989 l 273 989 l 323 783 l 283 783 l 218 989 m 52 186 l 52 697 l 106 697 l 106 193 q 164 88 106 137 q 277 47 216 47 l 277 -7 q 83 94 149 -7 q 52 186 52 141 m 334 -7 l 334 47 q 475 117 422 47 q 505 193 505 155 l 505 697 l 559 697 l 559 186 q 503 65 559 125 q 334 -7 435 -5 z "},"ű":{"ha":610,"x_min":52,"x_max":559,"o":"m 332 783 l 382 989 l 437 989 l 370 783 l 332 783 m 213 783 l 263 989 l 317 989 l 251 783 l 213 783 m 52 186 l 52 697 l 106 697 l 106 193 q 164 88 106 137 q 277 47 216 47 l 277 -7 q 83 94 149 -7 q 52 186 52 141 m 334 -7 l 334 47 q 475 117 422 47 q 505 193 505 155 l 505 697 l 559 697 l 559 186 q 503 65 559 125 q 334 -7 435 -5 z "},"ū":{"ha":610,"x_min":52,"x_max":559,"o":"m 91 783 l 91 823 l 519 823 l 519 783 l 91 783 m 52 186 l 52 697 l 106 697 l 106 193 q 164 88 106 137 q 277 47 216 47 l 277 -7 q 83 94 149 -7 q 52 186 52 141 m 334 -7 l 334 47 q 475 117 422 47 q 505 193 505 155 l 505 697 l 559 697 l 559 186 q 503 65 559 125 q 334 -7 435 -5 z "},"_":{"ha":719,"x_min":54,"x_max":665,"o":"m 54 -227 l 665 -227 l 665 -278 l 54 -278 l 54 -227 z "},"­":{"ha":510,"x_min":27,"x_max":456,"o":"m 27 373 l 27 425 l 456 425 l 456 373 l 27 373 z "},"µ":{"ha":666,"x_min":47,"x_max":612,"o":"m 47 0 l 102 0 l 102 349 q 273 298 189 298 l 273 350 q 125 392 178 350 q 102 429 103 411 l 102 947 l 47 947 l 47 0 m 330 298 q 510 349 445 298 q 586 302 538 308 q 612 301 598 301 l 612 354 q 557 391 564 354 q 555 427 555 404 l 555 949 l 500 949 l 500 429 q 430 366 500 392 q 330 350 381 350 l 330 298 z "},"Ģ":{"ha":699,"x_min":54,"x_max":644,"o":"m 271 -296 l 321 -90 l 374 -90 l 324 -296 l 271 -296 m 54 260 l 54 711 q 115 860 54 785 q 326 956 198 956 l 326 905 q 160 826 228 905 q 109 689 109 765 l 109 260 q 228 75 109 138 q 326 45 283 45 l 326 -7 q 160 52 240 -7 q 54 260 56 129 m 387 -7 l 387 45 q 514 106 448 45 q 590 258 589 175 l 590 427 l 387 427 l 387 479 l 644 479 l 644 239 q 560 75 644 156 q 387 -7 475 -5 m 387 905 l 387 956 q 574 868 492 958 q 644 700 644 791 l 591 681 q 590 703 591 696 q 469 882 581 825 q 387 905 423 905 z "},"ģ":{"ha":587,"x_min":41,"x_max":533,"o":"m 275 783 l 326 989 l 380 989 l 313 783 l 275 783 m 41 -245 l 56 -194 l 300 -194 q 456 -118 403 -190 q 479 -54 479 -85 l 479 73 q 395 12 453 35 q 323 -1 359 0 l 323 46 q 439 104 387 46 q 479 189 477 146 l 479 507 q 392 631 479 590 q 323 648 355 648 l 323 700 q 461 650 399 700 q 479 631 473 639 l 479 700 l 533 700 l 533 -54 q 483 -171 533 -110 q 326 -245 419 -244 l 41 -245 m 53 189 l 53 513 q 109 635 54 576 q 262 700 170 700 l 262 648 q 134 579 186 648 q 107 509 107 541 l 107 190 q 157 94 107 141 q 262 50 205 50 l 262 -1 q 79 103 140 0 q 53 189 53 149 z "},"Ķ":{"ha":666,"x_min":54,"x_max":639,"o":"m 222 -289 l 273 -83 l 326 -83 l 275 -289 l 222 -289 m 54 0 l 54 949 l 109 949 l 109 0 l 54 0 m 170 463 l 566 949 l 633 949 l 237 463 l 639 0 l 571 0 l 170 463 z "},"ķ":{"ha":621,"x_min":54,"x_max":594,"o":"m 201 -289 l 251 -83 l 304 -83 l 254 -289 l 201 -289 m 54 0 l 54 947 l 109 947 l 109 0 l 54 0 m 138 349 l 513 697 l 594 697 l 220 349 l 594 0 l 513 0 l 138 349 z "},"Ļ":{"ha":591,"x_min":54,"x_max":564,"o":"m 245 -289 l 296 -83 l 349 -83 l 298 -289 l 245 -289 m 54 0 l 54 949 l 109 949 l 109 52 l 564 52 l 564 0 l 54 0 z "},"ļ":{"ha":168,"x_min":-5,"x_max":111,"o":"m -5 -289 l 45 -83 l 98 -83 l 47 -289 l -5 -289 m 57 0 l 57 947 l 111 947 l 111 0 l 57 0 z "},"Ņ":{"ha":718,"x_min":57,"x_max":661,"o":"m 293 -289 l 343 -83 l 396 -83 l 346 -289 l 293 -289 m 57 0 l 57 808 l 68 808 l 111 738 l 111 0 l 57 0 m 57 917 l 57 949 l 110 949 l 661 72 l 661 0 l 632 0 l 57 917 m 606 256 l 606 949 l 661 949 l 661 184 l 650 184 l 606 256 z "},"ņ":{"ha":610,"x_min":52,"x_max":559,"o":"m 239 -289 l 289 -83 l 342 -83 l 292 -289 l 239 -289 m 52 0 l 52 511 q 110 635 52 575 q 277 704 178 704 l 277 650 q 142 589 198 650 q 106 505 106 548 l 106 0 l 52 0 m 334 650 l 334 704 q 524 605 456 704 q 559 511 559 555 l 559 0 l 505 0 l 505 505 q 458 597 505 549 q 334 650 406 648 z "},"Ŗ":{"ha":690,"x_min":57,"x_max":650,"o":"m 288 -289 l 338 -83 l 391 -83 l 340 -289 l 288 -289 m 57 0 l 57 949 l 111 949 l 111 0 l 57 0 m 172 431 l 172 484 l 389 484 q 547 583 515 484 q 560 689 560 627 q 456 890 560 850 q 354 905 414 905 l 172 905 l 172 949 l 384 949 q 602 798 560 940 q 616 685 616 747 q 522 457 614 510 q 627 294 617 414 l 650 0 l 595 0 l 575 241 q 518 401 564 363 q 404 431 479 434 l 172 431 z "},"ŗ":{"ha":316,"x_min":4,"x_max":289,"o":"m 4 -289 l 54 -83 l 107 -83 l 57 -289 l 4 -289 m 57 0 l 57 700 l 111 700 l 111 585 q 197 675 134 642 q 288 699 240 699 l 289 699 l 275 648 q 157 567 210 648 q 111 418 111 495 l 111 0 l 57 0 z "},"Ş":{"ha":680,"x_min":41,"x_max":639,"o":"m 148 -233 l 148 -182 q 270 -115 233 -182 q 285 -54 285 -87 l 339 -54 q 275 -191 339 -138 q 148 -233 224 -233 m 41 214 l 91 232 q 125 146 100 183 q 178 91 151 109 q 233 62 206 73 q 278 49 260 52 l 296 47 l 296 -4 q 91 99 172 -4 q 41 214 42 161 m 52 697 q 179 914 52 841 q 296 949 241 949 l 296 898 q 190 856 247 898 q 106 689 107 792 q 267 536 106 579 q 425 505 282 532 q 465 495 449 499 q 623 374 589 461 q 639 275 639 331 q 549 76 639 161 q 357 -4 465 -4 l 357 47 q 491 104 419 47 q 585 283 583 180 q 419 449 585 406 q 270 476 404 452 q 218 488 235 481 q 76 590 109 529 q 52 697 52 633 m 357 898 l 357 949 q 560 834 480 949 q 601 750 593 788 l 549 734 q 513 812 537 779 q 463 861 488 845 q 412 886 437 876 q 372 897 388 895 l 357 898 z "},"ş":{"ha":563,"x_min":27,"x_max":536,"o":"m 243 -233 l 243 -182 q 365 -115 328 -182 q 380 -54 380 -87 l 434 -54 q 370 -191 434 -138 q 243 -233 319 -233 m 27 184 l 80 194 q 157 72 80 119 q 247 45 203 45 l 247 -7 q 66 79 134 -7 q 27 184 27 130 m 33 495 q 141 674 33 618 q 244 701 191 701 l 244 650 q 132 598 183 650 q 87 495 87 552 q 156 418 87 445 q 345 370 179 410 q 384 361 366 365 q 536 208 534 320 q 437 30 536 90 q 302 -7 377 -7 l 302 43 q 435 98 378 43 q 481 208 481 145 q 370 307 481 271 q 184 351 353 312 q 167 355 175 354 q 33 495 34 388 m 301 648 l 301 701 q 481 617 414 701 q 524 507 524 564 l 471 499 q 380 628 471 582 q 301 648 336 648 z "},"Ţ":{"ha":642,"x_min":27,"x_max":614,"o":"m 149 -233 l 149 -182 q 271 -115 235 -182 q 286 -54 286 -87 l 340 -54 q 277 -191 340 -138 q 149 -233 225 -233 m 27 898 l 27 949 l 614 949 l 614 898 l 347 898 l 347 0 l 293 0 l 293 898 l 27 898 z "},"ţ":{"ha":342,"x_min":27,"x_max":342,"o":"m 145 -229 l 145 -178 q 267 -111 231 -178 q 282 -50 282 -83 l 336 -50 q 273 -187 336 -134 q 145 -229 221 -229 m 27 631 l 27 684 l 113 684 l 113 949 l 167 949 l 167 684 l 252 684 l 252 631 l 167 631 l 167 216 q 241 65 167 96 q 328 52 277 52 l 330 52 l 342 0 l 321 0 q 125 125 159 1 q 113 228 113 167 l 113 631 l 27 631 z "},"Ș":{"ha":680,"x_min":41,"x_max":639,"o":"m 250 -293 l 300 -87 l 353 -87 l 302 -293 l 250 -293 m 41 214 l 91 232 q 125 146 100 183 q 178 91 151 109 q 233 62 206 73 q 278 49 260 52 l 296 47 l 296 -4 q 91 99 172 -4 q 41 214 42 161 m 52 697 q 179 914 52 841 q 296 949 241 949 l 296 898 q 190 856 247 898 q 106 689 107 792 q 267 536 106 579 q 425 505 282 532 q 465 495 449 499 q 623 374 589 461 q 639 275 639 331 q 549 76 639 161 q 357 -4 465 -4 l 357 47 q 491 104 419 47 q 585 283 583 180 q 419 449 585 406 q 270 476 404 452 q 218 488 235 481 q 76 590 109 529 q 52 697 52 633 m 357 898 l 357 949 q 560 834 480 949 q 601 750 593 788 l 549 734 q 513 812 537 779 q 463 861 488 845 q 412 886 437 876 q 372 897 388 895 l 357 898 z "},"ș":{"ha":563,"x_min":27,"x_max":536,"o":"m 189 -296 l 239 -90 l 292 -90 l 241 -296 l 189 -296 m 27 184 l 80 194 q 157 72 80 119 q 247 45 203 45 l 247 -7 q 66 79 134 -7 q 27 184 27 130 m 33 495 q 141 674 33 618 q 244 701 191 701 l 244 650 q 132 598 183 650 q 87 495 87 552 q 156 418 87 445 q 345 370 179 410 q 384 361 366 365 q 536 208 534 320 q 437 30 536 90 q 302 -7 377 -7 l 302 43 q 435 98 378 43 q 481 208 481 145 q 370 307 481 271 q 184 351 353 312 q 167 355 175 354 q 33 495 34 388 m 301 648 l 301 701 q 481 617 414 701 q 524 507 524 564 l 471 499 q 380 628 471 582 q 301 648 336 648 z "},"Ț":{"ha":642,"x_min":27,"x_max":614,"o":"m 241 -289 l 292 -83 l 345 -83 l 294 -289 l 241 -289 m 27 898 l 27 949 l 614 949 l 614 898 l 347 898 l 347 0 l 293 0 l 293 898 l 27 898 z "},"ț":{"ha":342,"x_min":27,"x_max":342,"o":"m 172 -289 l 222 -83 l 275 -83 l 225 -289 l 172 -289 m 27 631 l 27 684 l 113 684 l 113 949 l 167 949 l 167 684 l 252 684 l 252 631 l 167 631 l 167 216 q 241 65 167 96 q 328 52 277 52 l 330 52 l 342 0 l 321 0 q 125 125 159 1 q 113 228 113 167 l 113 631 l 27 631 z "},"ˉ":{"ha":564,"x_min":68,"x_max":496,"o":"m 68 732 l 68 773 l 496 773 l 496 732 l 68 732 z "},"ℓ":{"ha":250,"x_min":96,"x_max":288,"o":"m 96 231 l 96 949 l 151 949 l 151 231 q 267 46 151 60 q 288 45 278 45 l 288 -7 q 115 109 160 -7 q 96 231 96 160 z "},"Ω":{"ha":570,"x_min":27,"x_max":562,"o":"m 27 -1 l 27 39 l 137 39 q 50 168 65 90 q 47 191 47 180 l 47 510 q 104 631 47 572 q 270 700 171 700 l 270 648 q 125 567 175 648 q 102 492 102 529 l 102 209 q 155 102 102 155 q 270 50 206 50 l 270 -1 l 27 -1 m 326 -1 l 326 50 q 463 130 412 50 q 487 206 487 170 l 487 492 q 435 604 487 552 q 326 648 388 648 l 326 700 q 510 601 446 700 q 541 510 541 553 l 541 191 q 486 68 541 127 q 454 39 471 52 l 562 39 l 562 -1 l 326 -1 z "},"∆":{"ha":646,"x_min":41,"x_max":605,"o":"m 41 0 l 266 834 l 277 834 l 294 751 l 107 54 l 530 54 l 290 958 l 342 958 l 605 0 l 41 0 z "},"∕":{"ha":635,"x_min":0,"x_max":635,"o":"m 0 0 l 586 949 l 635 949 l 49 0 l 0 0 z "},"∙":{"ha":339,"x_min":54,"x_max":160,"o":"m 54 548 q 88 597 54 583 q 107 601 98 601 q 156 567 142 601 q 160 548 160 557 q 126 499 160 513 q 107 495 117 495 q 58 529 72 495 q 54 548 54 538 z "},"圓":{"ha":1143,"x_min":68,"x_max":1089,"o":"m 68 662 l 68 947 l 109 947 l 109 825 l 137 825 l 137 784 l 109 784 l 109 662 l 68 662 m 159 784 l 159 825 l 189 825 l 189 947 l 229 947 l 229 662 l 189 662 l 189 784 l 159 784 m 269 662 l 269 947 l 309 947 l 309 662 l 269 662 m 326 815 l 397 947 l 439 947 l 368 815 l 441 662 l 399 662 l 326 815 m 491 214 l 541 232 q 576 146 551 183 q 629 91 601 109 q 684 62 656 73 q 728 49 711 52 l 746 47 l 746 -64 l 705 -64 l 705 -1 q 529 117 597 16 q 491 214 492 171 m 502 697 q 628 913 502 840 q 705 944 666 935 l 705 1017 l 746 1017 l 746 898 q 640 856 697 898 q 556 689 557 792 q 719 534 556 578 q 746 528 732 530 l 746 472 q 669 488 684 483 q 526 590 559 529 q 502 697 502 633 m 807 -64 l 807 47 q 941 104 869 47 q 1035 283 1034 180 q 871 448 1035 404 q 807 461 842 454 l 807 515 q 916 495 897 500 q 1073 374 1039 461 q 1089 275 1089 331 q 1000 76 1089 161 q 848 -1 933 12 l 848 -64 l 807 -64 m 807 898 l 807 1017 l 848 1017 l 848 945 q 1021 818 955 925 q 1051 750 1046 780 l 1000 734 q 963 812 987 779 q 913 861 939 845 q 863 886 887 876 q 822 897 838 895 l 807 898 z "},"ų":{"ha":610,"x_min":52,"x_max":559,"o":"m 472 -235 q 300 -136 349 -235 q 281 -56 281 -96 l 335 -56 q 404 -168 335 -134 q 472 -183 435 -183 l 472 -235 m 52 186 l 52 697 l 106 697 l 106 193 q 164 88 106 137 q 277 47 216 47 l 277 -7 q 83 94 149 -7 q 52 186 52 141 m 334 -7 l 334 47 q 475 117 422 47 q 505 193 505 155 l 505 697 l 559 697 l 559 186 q 503 65 559 125 q 334 -7 435 -5 z "},"ů":{"ha":610,"x_min":52,"x_max":559,"o":"m 214 913 q 263 994 214 968 q 305 1004 283 1004 q 387 955 361 1004 q 396 913 396 935 q 347 831 396 857 q 305 822 327 822 q 224 871 250 822 q 214 913 214 891 m 262 913 q 292 871 262 880 q 305 869 300 869 q 347 899 338 869 q 349 913 349 907 q 319 955 349 945 q 305 956 311 956 q 263 926 273 956 q 262 913 262 918 m 52 186 l 52 697 l 106 697 l 106 193 q 164 88 106 137 q 277 47 216 47 l 277 -7 q 83 94 149 -7 q 52 186 52 141 m 334 -7 l 334 47 q 475 117 422 47 q 505 193 505 155 l 505 697 l 559 697 l 559 186 q 503 65 559 125 q 334 -7 435 -5 z "},"v":{"ha":548,"x_min":14,"x_max":534,"o":"m 14 699 l 75 699 l 300 42 l 282 0 l 255 0 l 14 699 m 292 190 l 473 699 l 534 699 l 330 125 l 313 125 l 292 190 z "},"ඃ":{"ha":521,"x_min":42,"x_max":479,"o":"m 294 -9 l 294 45 q 407 118 376 45 q 418 174 418 145 q 361 283 418 248 q 294 302 331 302 l 294 357 l 313 357 q 460 263 416 357 q 479 174 479 221 q 410 20 479 73 q 313 -9 368 -9 l 294 -9 m 208 -9 q 61 83 104 -9 q 42 174 42 126 q 110 324 42 273 q 208 357 152 357 l 227 357 l 227 302 q 115 231 146 302 q 103 174 103 203 q 161 62 103 98 q 227 45 190 45 l 227 -9 l 208 -9 m 294 404 l 294 458 q 407 532 376 458 q 418 587 418 559 q 361 697 418 662 q 294 716 331 716 l 294 770 l 313 770 q 460 677 416 770 q 479 587 479 635 q 410 434 479 487 q 313 404 368 404 l 294 404 m 208 404 q 61 496 104 404 q 42 587 42 540 q 110 738 42 686 q 208 770 152 770 l 227 770 l 227 716 q 115 644 146 716 q 103 587 103 617 q 161 476 103 511 q 227 458 190 458 l 227 404 l 208 404 z "},"w":{"ha":981,"x_min":14,"x_max":967,"o":"m 14 700 l 258 1 l 285 1 l 300 43 l 75 700 l 14 700 m 292 191 l 313 126 l 330 126 l 491 610 l 704 1 l 731 1 l 746 43 l 521 700 l 460 700 l 292 191 m 738 191 l 760 126 l 776 126 l 967 700 l 906 700 l 738 191 z "},"x":{"ha":514,"x_min":11,"x_max":503,"o":"m 11 0 l 225 355 l 18 700 l 71 700 l 258 397 l 444 699 l 498 699 l 292 355 l 503 0 l 450 0 l 258 315 l 64 0 l 11 0 z "},"y":{"ha":529,"x_min":5,"x_max":524,"o":"m 5 699 l 58 699 l 288 151 l 156 -247 l 103 -247 l 235 151 l 5 699 m 289 267 l 471 699 l 524 699 l 319 212 l 312 212 l 289 267 z "},"ý":{"ha":529,"x_min":5,"x_max":524,"o":"m 245 783 l 296 989 l 350 989 l 283 783 l 245 783 m 5 699 l 58 699 l 288 151 l 156 -247 l 103 -247 l 235 151 l 5 699 m 289 267 l 471 699 l 524 699 l 319 212 l 312 212 l 289 267 z "},"ÿ":{"ha":529,"x_min":5,"x_max":524,"o":"m 159 819 q 186 854 159 846 q 197 856 193 856 q 232 830 224 856 q 233 819 233 825 q 208 784 233 792 q 197 783 202 783 q 160 808 168 783 q 159 819 159 815 m 296 819 q 323 854 296 846 q 334 856 330 856 q 369 830 361 856 q 370 819 370 825 q 345 784 370 792 q 334 783 339 783 q 297 808 305 783 q 296 819 296 815 m 5 699 l 58 699 l 288 151 l 156 -247 l 103 -247 l 235 151 l 5 699 m 289 267 l 471 699 l 524 699 l 319 212 l 312 212 l 289 267 z "},"¥":{"ha":613,"x_min":28,"x_max":591,"o":"m 281 0 l 335 0 l 335 208 l 591 208 l 591 252 l 335 252 l 335 330 l 591 330 l 591 374 l 335 374 l 335 391 l 537 947 l 481 947 l 308 465 l 133 947 l 77 947 l 281 391 l 281 374 l 28 374 l 28 330 l 281 330 l 281 252 l 28 252 l 28 208 l 281 208 l 281 0 z "},"z":{"ha":483,"x_min":41,"x_max":442,"o":"m 41 0 l 42 50 l 385 646 l 41 646 l 41 697 l 442 697 l 442 654 l 98 52 l 442 52 l 442 0 l 41 0 z "},"ź":{"ha":483,"x_min":41,"x_max":442,"o":"m 222 783 l 273 989 l 327 989 l 260 783 l 222 783 m 41 0 l 42 50 l 385 646 l 41 646 l 41 697 l 442 697 l 442 654 l 98 52 l 442 52 l 442 0 l 41 0 z "},"ž":{"ha":483,"x_min":41,"x_max":442,"o":"m 119 989 l 168 989 l 244 836 l 319 989 l 368 989 l 266 783 l 222 783 l 119 989 m 41 0 l 42 50 l 385 646 l 41 646 l 41 697 l 442 697 l 442 654 l 98 52 l 442 52 l 442 0 l 41 0 z "},"ż":{"ha":483,"x_min":41,"x_max":442,"o":"m 201 823 q 229 864 201 854 q 241 865 235 865 q 281 836 271 865 q 282 823 282 830 q 252 784 282 792 q 241 783 247 783 q 202 812 210 783 q 201 823 201 818 m 41 0 l 42 50 l 385 646 l 41 646 l 41 697 l 442 697 l 442 654 l 98 52 l 442 52 l 442 0 l 41 0 z "},"‍":{"ha":0,"x_min":-241,"x_max":243,"o":"m -27 12 l 27 12 l 27 780 l 197 663 l 228 708 l 49 831 l 243 966 l 212 1010 l 1 865 l -210 1010 l -241 966 l -47 831 l -227 708 l -197 663 l -27 780 l -27 12 z "},"‌":{"ha":0,"x_min":-27,"x_max":27,"o":"m -27 12 l -27 1032 l 27 1032 l 27 12 l -27 12 z "}}}
